<?xml version='1.0' encoding='UTF-8'?><svg fill="currentColor" version="1.1" xmlns="http://www.w3.org/2000/svg" xmlns:xlink="http://www.w3.org/1999/xlink" width="152.57" height="121.09" viewBox="0 -90.82 114.42 90.82"><g transform="scale(1 -1)" id="page1"><path d="M13.82 14.15H92.2" stroke="currentColor" fill="none" stroke-width=".8" stroke-miterlimit="10"/><path d="M90.65 16.22c.13-.78 1.55-1.94 1.94-2.07-.39-.13-1.81-1.3-1.94-2.08" stroke="currentColor" fill="none" stroke-width=".64" stroke-miterlimit="10" stroke-linecap="round" stroke-linejoin="round"/><path d="M100.2 14.27q-.04 1-.43 1.9c-.3.63-.72.88-1.2.88-1.14 0-1.78-1.33-1.78-1.63 0-.1.1-.1.12-.1q.1-.01.13.1c.29.82 1.12.97 1.42.97 1.44 0 1.48-1.72 1.48-2.3 0-.53-.03-.66-.08-.79a13 13 0 0 1-.47-1.95c0-.06 0-.2.12-.2.07 0 .15 0 .3.55.23.82.3 1.3.35 1.68 0 .1.48 1.55 1.3 3.15.14.29.14.3.14.32q0 .1-.11.1-.04.01-.12-.05a24 24 0 0 1-1.17-2.63"/><path d="M13.82 14.15v60.8" stroke="currentColor" fill="none" stroke-width=".8" stroke-miterlimit="10"/><path d="M11.75 73.4c.78.13 1.95 1.55 2.07 1.94.13-.39 1.3-1.81 2.07-1.94" stroke="currentColor" fill="none" stroke-width=".64" stroke-miterlimit="10" stroke-linecap="round" stroke-linejoin="round"/><path d="M8.98 85.6c-.05.12-.07.2-.22.2s-.16-.06-.21-.2l-1.93-5.33c-.1-.3-.31-.6-1-.62v-.27c.34.02.58.02.91.02l1.02-.02v.27c-.52.01-.67.3-.67.46q0 .11.04.17l.42 1.16h2.32l.48-1.35c.04-.1.05-.12.05-.17 0-.27-.5-.27-.74-.27v-.27c.4.02.87.02 1.29.02l1.17-.02v.27h-.15c-.56 0-.66.09-.75.34zm.57-3.88H7.44l1.06 2.93zm4.73.83v2.3c0 .24.01.32.18.35.09.02.37.02.56.02.77 0 1.91 0 1.91-1.33 0-.77-.4-1.34-1.61-1.34zm2.01-.13c.85.24 1.55.77 1.55 1.47 0 .88-1.08 1.61-2.4 1.61h-2.86v-.28h.2c.7 0 .72-.1.72-.43v-4.7c0-.34-.02-.44-.71-.44h-.2v-.27q.63.02 1.3.02c.66 0 .87 0 1.3-.02v.27H15c-.7 0-.71.1-.71.44v2.24h1.07c.65 0 .93-.34.97-.38.27-.33.27-.47.27-1.1 0-.6 0-1 .43-1.34.42-.33.96-.33 1.06-.33.75 0 .88.78.88 1 0 .05 0 .16-.12.16s-.12-.08-.13-.16c-.04-.56-.32-.78-.6-.78s-.38.18-.45.34c-.08.2-.17.8-.22 1.2-.07.56-.15 1.16-1.15 1.48m4.78 2.37c0 .32.02.43.73.43h.23v.28c-.37-.03-.98-.03-1.37-.03-.38 0-.99 0-1.36.03v-.28h.23c.71 0 .73-.1.73-.43v-4.7c0-.33-.02-.44-.73-.44h-.23v-.27c.37.02.98.02 1.36.02s1 0 1.37-.02v.27h-.23c-.71 0-.73.11-.73.44z"/><path d="M17.34 14.15V52.8h7.03V14.15Z" fill="#d9d9ff"/><path d="M34.91 14.15V52.8h10.55V14.15Z" fill="#ffd9d9"/><path d="M13.82 14.15h70.3m-70.3 8.78h70.3m-70.3 8.8h70.3m-70.3 8.78h70.3m-70.3 8.79h70.3m-70.3 8.79h70.3m-70.3 8.78h70.3m-70.3-52.72v52.72m8.79-52.72v52.72m8.79-52.72v52.72m8.78-52.72v52.72m8.8-52.72v52.72m8.78-52.72v52.72m8.79-52.72v52.72m8.79-52.72v52.72m8.78-52.72v52.72" stroke="#d9d9d9" fill="none" stroke-width=".2" stroke-miterlimit="10"/><path d="m13.82 16.78 1.76 6.5 1.76 25.14 1.75 15.81 1.76-2.63 1.76-7.9 1.76-7.92 1.75-7.03 1.76-5.27 1.76-3.87 1.76-2.8 1.76-2.12 1.75-1.76 1.76-1.4 1.76-1.06 1.75-.88 1.76-.7 1.76-.53 1.76-.52 1.75-.36 1.76-.35 1.76-.35 1.76-.17 1.76-.18 1.75-.17 1.76-.18 1.76-.17 1.75-.18 1.76-.18 1.76-.17 1.76-.18 1.75-.17 1.76-.18 1.76-.17 1.76-.18 1.76-.18 1.75-.17h7.03" stroke="#0000b3" fill="none" stroke-width=".8" stroke-miterlimit="10"/><path d="M14.75 16.78a.93.93 0 1 1-1.86 0 .93.93 0 0 1 1.86 0" fill="#0000b3"/><path d="M14.75 16.78a.93.93 0 1 1-1.86 0 .93.93 0 0 1 1.86 0Z" stroke="#0000b3" fill="none" stroke-width=".8" stroke-miterlimit="10"/><path d="M16.5 23.29a.92.92 0 0 1-1.86 0 .93.93 0 0 1 1.87 0" fill="#0000b3"/><path d="M16.5 23.29a.92.92 0 0 1-1.86 0 .93.93 0 0 1 1.87 0Z" stroke="#0000b3" fill="none" stroke-width=".8" stroke-miterlimit="10"/><path d="M18.27 48.42a.93.93 0 0 1-1.86 0 .93.93 0 0 1 1.86 0" fill="#0000b3"/><path d="M18.27 48.42a.93.93 0 0 1-1.86 0 .93.93 0 0 1 1.86 0Z" stroke="#0000b3" fill="none" stroke-width=".8" stroke-miterlimit="10"/><path d="M20.02 64.23a.93.93 0 0 1-1.85 0 .92.92 0 0 1 1.85 0" fill="#0000b3"/><path d="M20.02 64.23a.93.93 0 0 1-1.85 0 .92.92 0 0 1 1.85 0Z" stroke="#0000b3" fill="none" stroke-width=".8" stroke-miterlimit="10"/><path d="M21.78 61.6c0 .5-.42.93-.93.93a.93.93 0 0 1 0-1.86c.51 0 .93.42.93.93" fill="#0000b3"/><path d="M21.78 61.6c0 .5-.42.93-.93.93a.93.93 0 0 1 0-1.86c.51 0 .93.42.93.93Z" stroke="#0000b3" fill="none" stroke-width=".8" stroke-miterlimit="10"/><path d="M23.54 53.7a.93.93 0 1 1-1.86 0 .93.93 0 0 1 1.86 0" fill="#0000b3"/><path d="M23.54 53.7a.93.93 0 1 1-1.86 0 .93.93 0 0 1 1.86 0Z" stroke="#0000b3" fill="none" stroke-width=".8" stroke-miterlimit="10"/><path d="M25.3 45.78a.93.93 0 1 1-1.86 0 .93.93 0 0 1 1.85 0" fill="#0000b3"/><path d="M25.3 45.78a.93.93 0 1 1-1.86 0 .93.93 0 0 1 1.85 0Z" stroke="#0000b3" fill="none" stroke-width=".8" stroke-miterlimit="10"/><path d="M27.05 38.75c0 .51-.41.93-.93.93s-.92-.42-.92-.93a.93.93 0 0 1 1.85 0" fill="#0000b3"/><path d="M27.05 38.75c0 .51-.41.93-.93.93s-.92-.42-.92-.93a.93.93 0 0 1 1.85 0Z" stroke="#0000b3" fill="none" stroke-width=".8" stroke-miterlimit="10"/><path d="M28.8 33.48a.93.93 0 1 1-1.84 0 .93.93 0 0 1 1.85 0" fill="#0000b3"/><path d="M28.8 33.48a.93.93 0 1 1-1.84 0 .93.93 0 0 1 1.85 0Z" stroke="#0000b3" fill="none" stroke-width=".8" stroke-miterlimit="10"/><path d="M30.57 29.61a.93.93 0 1 1-1.85 0 .93.93 0 0 1 1.85 0" fill="#0000b3"/><path d="M30.57 29.61a.93.93 0 1 1-1.85 0 .93.93 0 0 1 1.85 0Z" stroke="#0000b3" fill="none" stroke-width=".8" stroke-miterlimit="10"/><path d="M32.32 26.8a.93.93 0 1 1-1.85 0 .93.93 0 0 1 1.85 0" fill="#0000b3"/><path d="M32.32 26.8a.93.93 0 1 1-1.85 0 .93.93 0 0 1 1.85 0Z" stroke="#0000b3" fill="none" stroke-width=".8" stroke-miterlimit="10"/><path d="M34.08 24.7a.93.93 0 1 1-1.85 0 .93.93 0 0 1 1.85 0" fill="#0000b3"/><path d="M34.08 24.7a.93.93 0 1 1-1.85 0 .93.93 0 0 1 1.85 0Z" stroke="#0000b3" fill="none" stroke-width=".8" stroke-miterlimit="10"/><path d="M35.84 22.93a.93.93 0 0 1-1.86 0 .93.93 0 0 1 1.86 0" fill="#0000b3"/><path d="M35.84 22.93a.93.93 0 0 1-1.86 0 .93.93 0 0 1 1.86 0Z" stroke="#0000b3" fill="none" stroke-width=".8" stroke-miterlimit="10"/><path d="M37.6 21.53a.93.93 0 0 1-1.86 0 .93.93 0 0 1 1.86 0" fill="#0000b3"/><path d="M37.6 21.53a.93.93 0 0 1-1.86 0 .93.93 0 0 1 1.86 0Z" stroke="#0000b3" fill="none" stroke-width=".8" stroke-miterlimit="10"/><path d="M39.36 20.47a.93.93 0 1 1-.93-.93c.5 0 .93.42.93.93" fill="#0000b3"/><path d="M39.36 20.47a.93.93 0 1 1-.93-.93c.5 0 .93.42.93.93Z" stroke="#0000b3" fill="none" stroke-width=".8" stroke-miterlimit="10"/><path d="M41.11 19.6a.93.93 0 1 1 0-.01" fill="#0000b3"/><path d="M41.11 19.6a.93.93 0 1 1 0-.01Z" stroke="#0000b3" fill="none" stroke-width=".8" stroke-miterlimit="10"/><path d="M42.87 18.9a.93.93 0 1 1-.93-.93c.51 0 .93.4.93.92" fill="#0000b3"/><path d="M42.87 18.9a.93.93 0 1 1-.93-.93c.51 0 .93.4.93.92Z" stroke="#0000b3" fill="none" stroke-width=".8" stroke-miterlimit="10"/><path d="M44.63 18.36a.93.93 0 1 1-.93-.93c.51 0 .92.42.92.93" fill="#0000b3"/><path d="M44.63 18.36a.93.93 0 1 1-.93-.93c.51 0 .92.42.92.93Z" stroke="#0000b3" fill="none" stroke-width=".8" stroke-miterlimit="10"/><path d="M46.38 17.84c0 .5-.41.93-.92.93a.93.93 0 0 1 0-1.86c.5 0 .92.41.92.93" fill="#0000b3"/><path d="M46.38 17.84c0 .5-.41.93-.92.93a.93.93 0 0 1 0-1.86c.5 0 .92.41.92.93Z" stroke="#0000b3" fill="none" stroke-width=".8" stroke-miterlimit="10"/><path d="M48.14 17.48a.93.93 0 1 1-.93-.93c.52 0 .93.42.93.93" fill="#0000b3"/><path d="M48.14 17.48a.93.93 0 1 1-.93-.93c.52 0 .93.42.93.93Z" stroke="#0000b3" fill="none" stroke-width=".8" stroke-miterlimit="10"/><path d="M49.9 17.13a.93.93 0 1 1-.93-.93c.51 0 .93.42.93.93" fill="#0000b3"/><path d="M49.9 17.13a.93.93 0 1 1-.93-.93c.51 0 .93.42.93.93Z" stroke="#0000b3" fill="none" stroke-width=".8" stroke-miterlimit="10"/><path d="M51.66 16.78a.93.93 0 1 1-.93-.93c.51 0 .93.42.93.93" fill="#0000b3"/><path d="M51.66 16.78a.93.93 0 1 1-.93-.93c.51 0 .93.42.93.93Z" stroke="#0000b3" fill="none" stroke-width=".8" stroke-miterlimit="10"/><path d="M53.41 16.6a.93.93 0 1 1-1.85 0 .93.93 0 0 1 1.85 0" fill="#0000b3"/><path d="M53.41 16.6a.93.93 0 1 1-1.85 0 .93.93 0 0 1 1.85 0Z" stroke="#0000b3" fill="none" stroke-width=".8" stroke-miterlimit="10"/><path d="M55.17 16.43a.93.93 0 1 1-1.85 0c0-.5.41-.93.93-.93s.92.42.92.93" fill="#0000b3"/><path d="M55.17 16.43a.93.93 0 1 1-1.85 0c0-.5.41-.93.93-.93s.92.42.92.93Z" stroke="#0000b3" fill="none" stroke-width=".8" stroke-miterlimit="10"/><path d="M56.93 16.26c0 .51-.41.92-.93.92s-.93-.41-.93-.92.42-.93.93-.93.93.42.93.93" fill="#0000b3"/><path d="M56.93 16.26c0 .51-.41.92-.93.92s-.93-.41-.93-.92.42-.93.93-.93.93.42.93.93Z" stroke="#0000b3" fill="none" stroke-width=".8" stroke-miterlimit="10"/><path d="M58.69 16.08a.93.93 0 1 1-.93-.93c.51 0 .93.42.93.93" fill="#0000b3"/><path d="M58.69 16.08a.93.93 0 1 1-.93-.93c.51 0 .93.42.93.93Z" stroke="#0000b3" fill="none" stroke-width=".8" stroke-miterlimit="10"/><path d="M60.45 15.9a.93.93 0 1 1-.93-.93c.51 0 .93.42.93.94" fill="#0000b3"/><path d="M60.45 15.9a.93.93 0 1 1-.93-.93c.51 0 .93.42.93.94Z" stroke="#0000b3" fill="none" stroke-width=".8" stroke-miterlimit="10"/><path d="M62.2 15.73a.93.93 0 1 1-1.85 0 .93.93 0 0 1 1.85 0" fill="#0000b3"/><path d="M62.2 15.73a.93.93 0 1 1-1.85 0 .93.93 0 0 1 1.85 0Z" stroke="#0000b3" fill="none" stroke-width=".8" stroke-miterlimit="10"/><path d="M63.96 15.55a.93.93 0 1 1-1.86 0 .93.93 0 0 1 1.86 0" fill="#0000b3"/><path d="M63.96 15.55a.93.93 0 1 1-1.86 0 .93.93 0 0 1 1.86 0Z" stroke="#0000b3" fill="none" stroke-width=".8" stroke-miterlimit="10"/><path d="M65.71 15.38a.93.93 0 1 1-1.85 0 .93.93 0 1 1 1.85 0" fill="#0000b3"/><path d="M65.71 15.38a.93.93 0 1 1-1.85 0 .93.93 0 1 1 1.85 0Z" stroke="#0000b3" fill="none" stroke-width=".8" stroke-miterlimit="10"/><path d="M67.47 15.2a.93.93 0 1 1-1.85 0c0-.5.42-.93.93-.93s.92.42.92.93" fill="#0000b3"/><path d="M67.47 15.2a.93.93 0 1 1-1.85 0c0-.5.42-.93.93-.93s.92.42.92.93Z" stroke="#0000b3" fill="none" stroke-width=".8" stroke-miterlimit="10"/><path d="M69.23 15.03a.93.93 0 1 1-1.85 0c0-.51.41-.93.92-.93s.93.42.93.93" fill="#0000b3"/><path d="M69.23 15.03a.93.93 0 1 1-1.85 0c0-.51.41-.93.92-.93s.93.42.93.93Z" stroke="#0000b3" fill="none" stroke-width=".8" stroke-miterlimit="10"/><path d="M70.99 14.85a.93.93 0 1 1-1.85 0c0-.51.41-.93.92-.93s.93.42.93.93" fill="#0000b3"/><path d="M70.99 14.85a.93.93 0 1 1-1.85 0c0-.51.41-.93.92-.93s.93.42.93.93Z" stroke="#0000b3" fill="none" stroke-width=".8" stroke-miterlimit="10"/><path d="M72.75 14.68a.93.93 0 1 1-1.86 0 .93.93 0 1 1 1.85 0" fill="#0000b3"/><path d="M72.75 14.68a.93.93 0 1 1-1.86 0 .93.93 0 1 1 1.85 0Z" stroke="#0000b3" fill="none" stroke-width=".8" stroke-miterlimit="10"/><path d="M74.5 14.5a.93.93 0 1 1-1.85 0 .93.93 0 1 1 1.85 0" fill="#0000b3"/><path d="M74.5 14.5a.93.93 0 1 1-1.85 0 .93.93 0 1 1 1.85 0Z" stroke="#0000b3" fill="none" stroke-width=".8" stroke-miterlimit="10"/><path d="M76.26 14.32a.93.93 0 1 1-1.85 0 .93.93 0 1 1 1.85 0" fill="#0000b3"/><path d="M76.26 14.32a.93.93 0 1 1-1.85 0 .93.93 0 1 1 1.85 0Z" stroke="#0000b3" fill="none" stroke-width=".8" stroke-miterlimit="10"/><path d="M78.02 14.15a.93.93 0 1 1-1.85 0 .93.93 0 1 1 1.85 0" fill="#0000b3"/><path d="M78.02 14.15a.93.93 0 1 1-1.85 0 .93.93 0 1 1 1.85 0Z" stroke="#0000b3" fill="none" stroke-width=".8" stroke-miterlimit="10"/><path d="M79.78 14.15" fill="#0000b3"/><path d="M79.78 14.15Z" stroke="#0000b3" fill="none" stroke-width=".8" stroke-miterlimit="10"/><path d="M81.54 14.15a.93.93 0 1 1-.93-.93c.51 0 .93.42.93.93" fill="#0000b3"/><path d="M81.54 14.15a.93.93 0 1 1-.93-.93c.51 0 .93.42.93.93Z" stroke="#0000b3" fill="none" stroke-width=".8" stroke-miterlimit="10"/><path d="M83.3 14.15a.93.93 0 1 1-1.86 0 .93.93 0 0 1 1.85 0" fill="#0000b3"/><path d="M83.3 14.15a.93.93 0 1 1-1.86 0 .93.93 0 0 1 1.85 0Z" stroke="#0000b3" fill="none" stroke-width=".8" stroke-miterlimit="10"/><path d="M85.05 14.15a.93.93 0 1 1-1.86 0 .93.93 0 0 1 1.86 0" fill="#0000b3"/><path d="M85.05 14.15a.93.93 0 1 1-1.86 0 .93.93 0 0 1 1.86 0Z" stroke="#0000b3" fill="none" stroke-width=".8" stroke-miterlimit="10"/><path d="m13.82 15.55 1.76.7 1.76 1.06 1.75 1.23 1.76 1.76 1.76 2.28 1.76 2.99 1.75 3.52 1.76 4.39 1.76 5.27 1.76 6.15 1.76 7.03 1.75 7.03 1.76 5.27L38.43 66l1.75-2.63 1.76-5.27 1.76-6.16 1.76-6.15 1.75-5.27 1.76-4.4 1.76-3.5 1.76-3 1.76-2.28L56 25.57l1.76-1.76 1.76-1.23 1.75-1.05 1.76-.88 1.76-.88 1.76-.7 1.75-.53 1.76-.53 1.76-.53 1.76-.35 1.76-.35 1.75-.35 1.76-.35 1.76-.17 1.75-.36 1.76-.17" stroke="#b30000" fill="none" stroke-width=".8" stroke-miterlimit="10"/><path d="M14.75 15.55a.93.93 0 1 1-.93-.93c.52 0 .93.42.93.93" fill="#b30000"/><path d="M14.75 15.55a.93.93 0 1 1-.93-.93c.52 0 .93.42.93.93Z" stroke="#b30000" fill="none" stroke-width=".8" stroke-miterlimit="10"/><path d="M16.5 16.26c0 .51-.4.92-.92.92s-.93-.41-.93-.92.42-.93.93-.93.93.42.93.93" fill="#b30000"/><path d="M16.5 16.26c0 .51-.4.92-.92.92s-.93-.41-.93-.92.42-.93.93-.93.93.42.93.93Z" stroke="#b30000" fill="none" stroke-width=".8" stroke-miterlimit="10"/><path d="M18.27 17.3a.93.93 0 1 1-1.86.01.93.93 0 0 1 1.86 0" fill="#b30000"/><path d="M18.27 17.3a.93.93 0 1 1-1.86.01.93.93 0 0 1 1.86 0Z" stroke="#b30000" fill="none" stroke-width=".8" stroke-miterlimit="10"/><path d="M20.02 18.54c0 .51-.41.93-.93.93s-.92-.42-.92-.93a.93.93 0 0 1 1.85 0" fill="#b30000"/><path d="M20.02 18.54c0 .51-.41.93-.93.93s-.92-.42-.92-.93a.93.93 0 0 1 1.85 0Z" stroke="#b30000" fill="none" stroke-width=".8" stroke-miterlimit="10"/><path d="M21.78 20.3c0 .5-.42.93-.93.93a.93.93 0 0 1 0-1.86c.51 0 .93.42.93.93" fill="#b30000"/><path d="M21.78 20.3c0 .5-.42.93-.93.93a.93.93 0 0 1 0-1.86c.51 0 .93.42.93.93Z" stroke="#b30000" fill="none" stroke-width=".8" stroke-miterlimit="10"/><path d="M23.54 22.58a.93.93 0 1 1-1.86 0 .93.93 0 0 1 1.86 0" fill="#b30000"/><path d="M23.54 22.58a.93.93 0 1 1-1.86 0 .93.93 0 0 1 1.86 0Z" stroke="#b30000" fill="none" stroke-width=".8" stroke-miterlimit="10"/><path d="M25.3 25.57a.93.93 0 1 1-1.86 0 .93.93 0 0 1 1.85 0" fill="#b30000"/><path d="M25.3 25.57a.93.93 0 1 1-1.86 0 .93.93 0 0 1 1.85 0Z" stroke="#b30000" fill="none" stroke-width=".8" stroke-miterlimit="10"/><path d="M27.05 29.09a.93.93 0 1 1-1.85 0 .93.93 0 0 1 1.85 0" fill="#b30000"/><path d="M27.05 29.09a.93.93 0 1 1-1.85 0 .93.93 0 0 1 1.85 0Z" stroke="#b30000" fill="none" stroke-width=".8" stroke-miterlimit="10"/><path d="M28.8 33.48a.93.93 0 1 1-1.84 0 .93.93 0 0 1 1.85 0" fill="#b30000"/><path d="M28.8 33.48a.93.93 0 1 1-1.84 0 .93.93 0 0 1 1.85 0Z" stroke="#b30000" fill="none" stroke-width=".8" stroke-miterlimit="10"/><path d="M30.57 38.75a.93.93 0 1 1-.93-.93c.51 0 .93.42.93.93" fill="#b30000"/><path d="M30.57 38.75a.93.93 0 1 1-.93-.93c.51 0 .93.42.93.93Z" stroke="#b30000" fill="none" stroke-width=".8" stroke-miterlimit="10"/><path d="M32.32 44.9a.93.93 0 1 1-1.85 0 .93.93 0 0 1 1.85 0" fill="#b30000"/><path d="M32.32 44.9a.93.93 0 1 1-1.85 0 .93.93 0 0 1 1.85 0Z" stroke="#b30000" fill="none" stroke-width=".8" stroke-miterlimit="10"/><path d="M34.08 51.93a.93.93 0 1 1-1.85 0 .93.93 0 0 1 1.85 0" fill="#b30000"/><path d="M34.08 51.93a.93.93 0 1 1-1.85 0 .93.93 0 0 1 1.85 0Z" stroke="#b30000" fill="none" stroke-width=".8" stroke-miterlimit="10"/><path d="M35.84 58.96c0 .52-.41.93-.93.93a.93.93 0 1 1 .93-.93" fill="#b30000"/><path d="M35.84 58.96c0 .52-.41.93-.93.93a.93.93 0 1 1 .93-.93Z" stroke="#b30000" fill="none" stroke-width=".8" stroke-miterlimit="10"/><path d="M37.6 64.23a.93.93 0 0 1-1.86 0 .93.93 0 0 1 1.86 0" fill="#b30000"/><path d="M37.6 64.23a.93.93 0 0 1-1.86 0 .93.93 0 0 1 1.86 0Z" stroke="#b30000" fill="none" stroke-width=".8" stroke-miterlimit="10"/><path d="M39.36 66a.93.93 0 0 1-1.86 0c0-.52.41-.93.93-.93s.93.41.93.92" fill="#b30000"/><path d="M39.36 66a.93.93 0 0 1-1.86 0c0-.52.41-.93.93-.93s.93.41.93.92Z" stroke="#b30000" fill="none" stroke-width=".8" stroke-miterlimit="10"/><path d="M41.11 63.36c0 .5-.41.93-.93.93s-.92-.42-.92-.93a.93.93 0 0 1 1.85 0" fill="#b30000"/><path d="M41.11 63.36c0 .5-.41.93-.93.93s-.92-.42-.92-.93a.93.93 0 0 1 1.85 0Z" stroke="#b30000" fill="none" stroke-width=".8" stroke-miterlimit="10"/><path d="M42.87 58.09a.93.93 0 1 1-1.86-.01.93.93 0 0 1 1.86 0" fill="#b30000"/><path d="M42.87 58.09a.93.93 0 1 1-1.86-.01.93.93 0 0 1 1.86 0Z" stroke="#b30000" fill="none" stroke-width=".8" stroke-miterlimit="10"/><path d="M44.63 51.93a.93.93 0 1 1-1.86 0 .93.93 0 0 1 1.85 0" fill="#b30000"/><path d="M44.63 51.93a.93.93 0 1 1-1.86 0 .93.93 0 0 1 1.85 0Z" stroke="#b30000" fill="none" stroke-width=".8" stroke-miterlimit="10"/><path d="M46.38 45.78a.93.93 0 1 1-1.85 0 .93.93 0 0 1 1.85 0" fill="#b30000"/><path d="M46.38 45.78a.93.93 0 1 1-1.85 0 .93.93 0 0 1 1.85 0Z" stroke="#b30000" fill="none" stroke-width=".8" stroke-miterlimit="10"/><path d="M48.14 40.5a.93.93 0 1 1-.93-.93c.52.01.93.43.93.94" fill="#b30000"/><path d="M48.14 40.5a.93.93 0 1 1-.93-.93c.52.01.93.43.93.94Z" stroke="#b30000" fill="none" stroke-width=".8" stroke-miterlimit="10"/><path d="M49.9 36.12a.93.93 0 1 1-1.85 0c0-.51.41-.93.92-.93s.93.42.93.93" fill="#b30000"/><path d="M49.9 36.12a.93.93 0 1 1-1.85 0c0-.51.41-.93.92-.93s.93.42.93.93Z" stroke="#b30000" fill="none" stroke-width=".8" stroke-miterlimit="10"/><path d="M51.66 32.6a.93.93 0 1 1-1.85 0 .93.93 0 0 1 1.85 0" fill="#b30000"/><path d="M51.66 32.6a.93.93 0 1 1-1.85 0 .93.93 0 0 1 1.85 0Z" stroke="#b30000" fill="none" stroke-width=".8" stroke-miterlimit="10"/><path d="M53.41 29.61a.93.93 0 1 1-1.85 0 .93.93 0 0 1 1.85 0" fill="#b30000"/><path d="M53.41 29.61a.93.93 0 1 1-1.85 0 .93.93 0 0 1 1.85 0Z" stroke="#b30000" fill="none" stroke-width=".8" stroke-miterlimit="10"/><path d="M55.17 27.33a.93.93 0 1 1-1.85 0 .93.93 0 0 1 1.85 0" fill="#b30000"/><path d="M55.17 27.33a.93.93 0 1 1-1.85 0 .93.93 0 0 1 1.85 0Z" stroke="#b30000" fill="none" stroke-width=".8" stroke-miterlimit="10"/><path d="M56.93 25.57a.93.93 0 1 1-1.86 0 .93.93 0 0 1 1.86 0" fill="#b30000"/><path d="M56.93 25.57a.93.93 0 1 1-1.86 0 .93.93 0 0 1 1.86 0Z" stroke="#b30000" fill="none" stroke-width=".8" stroke-miterlimit="10"/><path d="M58.69 23.81a.93.93 0 0 1-1.86 0 .93.93 0 0 1 1.86 0" fill="#b30000"/><path d="M58.69 23.81a.93.93 0 0 1-1.86 0 .93.93 0 0 1 1.86 0Z" stroke="#b30000" fill="none" stroke-width=".8" stroke-miterlimit="10"/><path d="M60.45 22.58a.93.93 0 0 1-1.86 0 .93.93 0 0 1 1.86 0" fill="#b30000"/><path d="M60.45 22.58a.93.93 0 0 1-1.86 0 .93.93 0 0 1 1.86 0Z" stroke="#b30000" fill="none" stroke-width=".8" stroke-miterlimit="10"/><path d="M62.2 21.53a.93.93 0 0 1-1.85 0 .93.93 0 1 1 1.85 0" fill="#b30000"/><path d="M62.2 21.53a.93.93 0 0 1-1.85 0 .93.93 0 1 1 1.85 0Z" stroke="#b30000" fill="none" stroke-width=".8" stroke-miterlimit="10"/><path d="M63.96 20.65a.93.93 0 0 1-1.85 0c0-.51.41-.93.92-.93s.93.42.93.93" fill="#b30000"/><path d="M63.96 20.65a.93.93 0 0 1-1.85 0c0-.51.41-.93.92-.93s.93.42.93.93Z" stroke="#b30000" fill="none" stroke-width=".8" stroke-miterlimit="10"/><path d="M65.71 19.77c0 .51-.4.93-.92.93a.93.93 0 0 1 0-1.86c.51 0 .92.42.92.93" fill="#b30000"/><path d="M65.71 19.77c0 .51-.4.93-.92.93a.93.93 0 0 1 0-1.86c.51 0 .92.42.92.93Z" stroke="#b30000" fill="none" stroke-width=".8" stroke-miterlimit="10"/><path d="M67.47 19.07c0 .5-.41.93-.92.93a.93.93 0 0 1 0-1.86c.5 0 .92.41.92.93" fill="#b30000"/><path d="M67.47 19.07c0 .5-.41.93-.92.93a.93.93 0 0 1 0-1.86c.5 0 .92.41.92.93Z" stroke="#b30000" fill="none" stroke-width=".8" stroke-miterlimit="10"/><path d="M69.23 18.54c0 .51-.41.93-.93.93s-.92-.42-.92-.93a.93.93 0 0 1 1.85 0" fill="#b30000"/><path d="M69.23 18.54c0 .51-.41.93-.93.93s-.92-.42-.92-.93a.93.93 0 0 1 1.85 0Z" stroke="#b30000" fill="none" stroke-width=".8" stroke-miterlimit="10"/><path d="M70.99 18.01a.93.93 0 1 1-.93-.93c.51 0 .93.42.93.93" fill="#b30000"/><path d="M70.99 18.01a.93.93 0 1 1-.93-.93c.51 0 .93.42.93.93Z" stroke="#b30000" fill="none" stroke-width=".8" stroke-miterlimit="10"/><path d="M72.75 17.48a.93.93 0 1 1-.93-.93c.51 0 .93.42.93.93" fill="#b30000"/><path d="M72.75 17.48a.93.93 0 1 1-.93-.93c.51 0 .93.42.93.93Z" stroke="#b30000" fill="none" stroke-width=".8" stroke-miterlimit="10"/><path d="M74.5 17.13c0 .51-.41.93-.92.93a.93.93 0 0 1 0-1.85c.51 0 .92.41.92.92" fill="#b30000"/><path d="M74.5 17.13c0 .51-.41.93-.92.93a.93.93 0 0 1 0-1.85c.51 0 .92.41.92.92Z" stroke="#b30000" fill="none" stroke-width=".8" stroke-miterlimit="10"/><path d="M76.26 16.78c0 .51-.41.93-.92.93a.93.93 0 0 1 0-1.85c.5 0 .92.41.92.92" fill="#b30000"/><path d="M76.26 16.78c0 .51-.41.93-.92.93a.93.93 0 0 1 0-1.85c.5 0 .92.41.92.92Z" stroke="#b30000" fill="none" stroke-width=".8" stroke-miterlimit="10"/><path d="M78.02 16.43a.93.93 0 1 1-1.85 0c0-.5.41-.93.92-.93.52 0 .93.42.93.93" fill="#b30000"/><path d="M78.02 16.43a.93.93 0 1 1-1.85 0c0-.5.41-.93.92-.93.52 0 .93.42.93.93Z" stroke="#b30000" fill="none" stroke-width=".8" stroke-miterlimit="10"/><path d="M79.78 16.08a.93.93 0 1 1-.93-.93c.51 0 .93.42.93.93" fill="#b30000"/><path d="M79.78 16.08a.93.93 0 1 1-.93-.93c.51 0 .93.42.93.93Z" stroke="#b30000" fill="none" stroke-width=".8" stroke-miterlimit="10"/><path d="M81.54 15.9a.93.93 0 1 1-.93-.93c.51 0 .93.42.93.94" fill="#b30000"/><path d="M81.54 15.9a.93.93 0 1 1-.93-.93c.51 0 .93.42.93.94Z" stroke="#b30000" fill="none" stroke-width=".8" stroke-miterlimit="10"/><path d="M83.3 15.55a.93.93 0 1 1-1.86 0 .93.93 0 0 1 1.85 0" fill="#b30000"/><path d="M83.3 15.55a.93.93 0 1 1-1.86 0 .93.93 0 0 1 1.85 0Z" stroke="#b30000" fill="none" stroke-width=".8" stroke-miterlimit="10"/><path d="M85.05 15.38a.93.93 0 1 1-1.86 0 .93.93 0 0 1 1.86 0" fill="#b30000"/><path d="M85.05 15.38a.93.93 0 1 1-1.86 0 .93.93 0 0 1 1.86 0Z" stroke="#b30000" fill="none" stroke-width=".8" stroke-miterlimit="10"/><path d="M19.1 14.15v50.08" stroke="#0000b3" fill="none" stroke-width=".4" stroke-miterlimit="10"/><path d="M20.33 64.23a1.24 1.24 0 1 1-2.48 0 1.24 1.24 0 0 1 2.48 0" fill="#0000b3"/><path d="M38.43 14.15v51.84" stroke="#b30000" fill="none" stroke-width=".4" stroke-miterlimit="10"/><path d="M39.66 66a1.24 1.24 0 1 1-2.47-.01 1.24 1.24 0 0 1 2.47 0" fill="#b30000"/><path d="M17.34 14.15V52.8" stroke="#8080ff" fill="none" stroke-width=".8" stroke-miterlimit="10" stroke-dasharray="2.98883 2.98883"/><path d="M24.37 14.15V52.8" stroke="#8080ff" fill="none" stroke-width=".8" stroke-miterlimit="10" stroke-dasharray="2.98883 2.98883"/><path d="M34.91 14.15V52.8" stroke="#ff8080" fill="none" stroke-width=".8" stroke-miterlimit="10" stroke-dasharray="2.98883 2.98883"/><path d="M45.46 14.15V52.8" stroke="#ff8080" fill="none" stroke-width=".8" stroke-miterlimit="10" stroke-dasharray="2.98883 2.98883"/><path d="M54.53 68.38c-.72.18-.95.75-.95 1.14 0 .6.48 1.18 1.23 1.18 1.16 0 1.63-.86 1.75-1.77.03-.17.04-.21.15-.21.12 0 .12.06.12.25v1.73c0 .18 0 .25-.1.25-.07 0-.08-.01-.14-.12-.12-.16-.03-.04-.32-.5-.16.17-.62.62-1.47.62-1.04 0-1.8-.82-1.8-1.73 0-.7.42-1.13.47-1.18.4-.39.56-.43 1.63-.69.73-.17.8-.18 1.1-.49.01 0 .32-.34.32-.87 0-.6-.44-1.28-1.26-1.28-.69 0-1.93.29-2 1.77-.01.13-.01.18-.13.18s-.13-.07-.13-.25v-1.73c0-.18 0-.25.11-.25.06 0 .07.01.14.12l.32.5a2.4 2.4 0 0 1 1.7-.62c1.1 0 1.82.9 1.82 1.86 0 .5-.19.9-.4 1.17-.39.5-.8.6-1.37.73zm6.63-2.25c0-.8-.45-1.38-1.1-1.38-.74 0-.78.39-.78.87v2.97l-1.35-.1v-.28c.69 0 .69-.02.69-.82v-1.34c0-.59 0-.96.4-1.28.27-.18.64-.24 1-.24.46 0 .9.2 1.16.74v-.74l1.34.1v.28c-.61 0-.7.06-.7.5v3.18l-1.35-.1v-.28c.61 0 .7-.06.7-.5zm3.2 1.51c.3.52.8.7 1.17.7.7 0 1.24-.8 1.24-1.77 0-1.03-.61-1.82-1.34-1.82-.4 0-.74.24-.96.55-.12.18-.12.2-.12.37zm0-2.58c.23-.23.53-.53 1.12-.53 1.07 0 2.06.86 2.06 2.04 0 1.12-.88 2.02-1.94 2.02-.48 0-.93-.2-1.27-.56v.56L63 68.5v-.28c.64 0 .7-.05.7-.43v-4.2c0-.41-.1-.41-.7-.41v-.28c.42.02.6.03 1.02.03s.55-.01 1.02-.03v.28c-.59 0-.69 0-.69.41z" fill="#4d4dff"/><path d="M71.68 66.68c.2 0 .24 0 .24.19 0 .92-.5 1.78-1.65 1.78-1.07 0-1.92-.94-1.92-2.05 0-1.17.95-2.07 2.04-2.07 1.1 0 1.53.96 1.53 1.17q0 .1-.12.11c-.1 0-.12-.06-.13-.1-.3-.91-1.1-.93-1.24-.93-.43 0-.8.24-1 .55-.3.44-.3.98-.3 1.35zm-2.55.22c.09 1.38.9 1.52 1.14 1.52.5 0 1.03-.38 1.04-1.52zm4.66-.22c0 .37.1 1.69 1.12 1.69v-.01a.4.4 0 0 1-.16-.33c0-.25.19-.4.4-.4a.4.4 0 0 1 .39.4c0 .3-.27.56-.67.56-.54 0-.92-.38-1.12-.93h-.01v.93l-1.28-.1v-.28c.61 0 .7-.06.7-.5v-2.4c0-.4-.1-.4-.7-.4v-.28c.48.02.6.03 1.05.03l1.14-.03v.28h-.18c-.65 0-.68.1-.68.43zm6.35-.14c0 1.17-.93 2.1-2.04 2.1a2.1 2.1 0 0 1-2.04-2.1c0-1.12.93-2.01 2.03-2.01 1.14 0 2.05.9 2.05 2m-2.04-1.76c-.45 0-.82.23-1.03.58a2.4 2.4 0 0 0-.24 1.26c0 .33 0 .84.22 1.2.27.47.72.6 1.04.6.51 0 .88-.29 1.06-.6.2-.37.22-.82.22-1.2 0-.33 0-.85-.23-1.25a1.2 1.2 0 0 0-1.04-.59m3.9 1.9c0 .37.1 1.69 1.12 1.69v-.01a.4.4 0 0 1-.16-.33c0-.25.19-.4.4-.4a.4.4 0 0 1 .39.4c0 .3-.27.56-.67.56-.54 0-.92-.38-1.12-.93h-.01v.93l-1.27-.1v-.28c.6 0 .69-.06.69-.5v-2.4c0-.4-.1-.4-.7-.4v-.28c.48.02.6.03 1.05.03l1.14-.03v.28h-.18c-.65 0-.68.1-.68.43zm5.5-.98c0-.16 0-.18-.14-.37-.27-.4-.69-.58-1.05-.58-.38 0-.74.22-.97.6-.24.38-.25.91-.25 1.2 0 .42.05.9.28 1.25.2.29.57.57 1.04.57.38 0 .74-.2.98-.53.1-.15.1-.15.1-.32zm.02 2.36c-.04.06-.44.53-1.14.53-1.1 0-2.06-.88-2.06-2.03a2 2 0 0 1 1.96-2.03c.65 0 1.06.39 1.22.57v-.57l1.35.1v.28c-.6 0-.69.06-.69.5v5.44l-1.33-.1v-.28c.61 0 .7-.06.7-.5zm3.26.53-1.3-.1v-.28c.58 0 .66-.05.66-.49v-2.4c0-.41-.1-.41-.69-.41v-.28c.4.02.6.03.99.03.14 0 .52 0 .96-.03v.28c-.58 0-.62.04-.62.4zm.03 1.56a.5.5 0 0 1-.49.49c-.28 0-.48-.23-.48-.49s.2-.48.48-.48.49.21.49.48m2.55-3.2c0 .95.67 1.42 1.24 1.42.52 0 .64-.44.64-.98v-2.07c0-.41-.1-.41-.69-.41v-.28c.42.02.6.03 1.02.03s.55-.01 1.02-.03v.28c-.45 0-.68 0-.69.27v1.73c0 .74 0 1-.25 1.31q-.3.37-1 .37a1.5 1.5 0 0 1-1.34-.87v.87l-1.3-.1v-.28c.6 0 .68-.06.68-.5v-2.4c0-.4-.1-.4-.69-.4v-.28c.43.02.6.03 1.03.03s.54-.01 1.02-.03v.28c-.6 0-.7 0-.7.4zm6.52-1.68c.04-.37.3-.7.69-.7a.8.8 0 0 1 .79.86v.5h-.26v-.5c0-.1 0-.54-.32-.54s-.32.43-.32.57v1.57c0 .51 0 .82-.4 1.18q-.53.44-1.21.44c-.76 0-1.39-.38-1.39-.96 0-.27.2-.43.43-.43a.4.4 0 0 1 .4.42c0 .38-.39.43-.4.43.25.23.68.31.94.31.45 0 .97-.34.97-1.13V67a5 5 0 0 1-1.76-.34c-.65-.32-.84-.78-.84-1.14 0-.74.87-.98 1.47-.98.74 0 1.08.5 1.2.74m-.08.62c0-.87-.68-1.14-1.07-1.14-.42 0-.82.3-.82.76 0 .59.51 1.22 1.89 1.27zm4.53 2.32v.28h-1.3v1.65h-.25c0-.75-.32-1.67-1.2-1.7v-.23h.79v-2.47c0-1 .72-1.21 1.2-1.21.6 0 .91.57.91 1.21v.51h-.25v-.48c0-.67-.27-.99-.6-.99-.6 0-.6.79-.6.95v2.48zm4.26-1.53c.2 0 .24 0 .24.19 0 .92-.5 1.78-1.65 1.78-1.08 0-1.92-.94-1.92-2.05 0-1.17.94-2.07 2.04-2.07s1.53.96 1.53 1.17q0 .1-.13.11c-.09 0-.11-.06-.12-.1-.3-.91-1.1-.93-1.24-.93-.43 0-.8.24-1 .55-.3.44-.3.98-.3 1.35zm-2.55.22c.08 1.38.89 1.52 1.14 1.52.5 0 1.03-.38 1.04-1.52z" fill="#4d4dff"/><path d="M54.53 60.45c0 .3.01.36.44.36h1.16c.88 0 1.25-.7 1.25-1.23 0-.7-.6-1.31-1.45-1.31h-1.4zm2.2-2.28c.88.18 1.5.74 1.5 1.4 0 .8-.85 1.52-2.04 1.52h-3.33v-.28h.2c.7 0 .71-.1.71-.43v-4.7c0-.33-.01-.43-.7-.43h-.21v-.28h3.59c1.2 0 2.05.8 2.05 1.63 0 .8-.78 1.46-1.78 1.57m-1.76-2.92c-.43 0-.44.06-.44.37v2.42h1.7c1.03 0 1.38-.87 1.38-1.42 0-.7-.54-1.37-1.46-1.37zm7.11.37c.05-.38.3-.7.7-.7.22 0 .78.13.78.85v.5h-.25v-.5c0-.1 0-.54-.32-.54s-.32.43-.32.57v1.57c0 .51 0 .82-.4 1.19q-.53.44-1.22.43c-.75 0-1.38-.38-1.38-.95 0-.28.2-.43.42-.43a.4.4 0 0 1 .42.4c0 .4-.4.44-.4.44.24.23.67.31.93.31.45 0 .96-.34.96-1.13v-.3a5 5 0 0 1-1.75-.34c-.65-.32-.85-.78-.85-1.14 0-.74.87-.98 1.47-.98.75 0 1.09.5 1.21.75m-.08.61c0-.87-.67-1.13-1.06-1.13-.42 0-.82.3-.82.75 0 .59.51 1.22 1.88 1.27zm4.71 2.52c0 .16 0 .24-.1.24-.05 0-.07 0-.19-.11l-.15-.14c-.28.2-.55.25-.86.25-1.18 0-1.48-.66-1.48-1.12q.01-.42.33-.71c.3-.28.65-.34 1.1-.42.46-.1.62-.12.81-.27a.7.7 0 0 0 .32-.59c0-.78-.9-.78-1.03-.78-.92 0-1.15.76-1.26 1.24-.03.1-.04.14-.14.14-.13 0-.13-.07-.13-.23V55.1c0-.15 0-.23.1-.23.06 0 .07.01.23.18l.18.22c.38-.37.8-.4 1.02-.4 1.1 0 1.48.65 1.48 1.25 0 .4-.18.64-.37.85-.3.3-.63.36-1.3.48-.23.05-.88.16-.88.68 0 .28.2.66 1.02.66.97 0 1.03-.75 1.05-.97 0-.1 0-.16.12-.16.13 0 .13.06.13.23zm2.2.18-1.29-.1v-.27c.57 0 .65-.06.65-.5v-2.4c0-.41-.1-.41-.69-.41v-.28c.4.02.6.03.99.03.14 0 .52 0 .96-.03v.28c-.58 0-.62.04-.62.4zm.03 1.56c0 .27-.22.49-.49.49s-.48-.23-.48-.49.2-.48.48-.48.49.21.49.48m4.14-2c-.18-.03-.36-.16-.36-.42a.4.4 0 0 1 .4-.41c.24 0 .43.15.43.43 0 .56-.63.9-1.42.9-1.14 0-2-.96-2-2.08 0-1.16.93-2.04 1.99-2.04a1.5 1.5 0 0 1 1.53 1.17c0 .1-.1.1-.13.1-.1 0-.1-.01-.15-.17-.2-.61-.7-.85-1.16-.85-.58 0-1.31.47-1.31 1.8 0 1.4.71 1.82 1.25 1.82.12 0 .6-.02.93-.25m3.4-1.86v.55h-2.46v-.55zm2.16 4.56-1.33-.1v-.28c.61 0 .7-.06.7-.5v-4.65c0-.41-.1-.41-.7-.41v-.28c.42.02.6.03 1 .03.43 0 .58-.01 1.02-.03v.28c-.6 0-.7 0-.7.41zm4.5-4.17c.2 0 .24 0 .24.2 0 .91-.5 1.77-1.65 1.77-1.08 0-1.92-.94-1.92-2.05 0-1.17.94-2.07 2.03-2.07 1.1 0 1.54.96 1.54 1.17q0 .1-.13.11-.13-.02-.12-.1c-.3-.91-1.1-.93-1.24-.93-.43 0-.8.24-1 .55-.3.44-.31.98-.31 1.35zm-2.55.22c.08 1.38.89 1.52 1.14 1.52.49 0 1.03-.37 1.04-1.52zm4.67.91-.04.17c0 .24.32.24.49.24v.27l-.99-.02c-.31 0-.57 0-.9.02v-.27c.43 0 .6 0 .73-.34l1.31-3.18q.1-.19.2-.17c.09 0 .16.02.22.17l1.22 2.94c.2.46.5.57.82.58v.27c-.27-.02-.67-.02-.7-.02l-.77.02v-.27q.4-.04.41-.39c0-.09 0-.1-.04-.2l-.94-2.27z" fill="#ff4d4d"/><path d="M91.82 57.02c.2 0 .24 0 .24.2 0 .91-.5 1.77-1.65 1.77-1.07 0-1.91-.94-1.91-2.05 0-1.17.94-2.07 2.03-2.07 1.1 0 1.53.96 1.53 1.17q0 .1-.12.11-.13-.02-.13-.1c-.3-.91-1.1-.93-1.23-.93-.43 0-.8.24-1 .55-.3.44-.31.98-.31 1.35zm-2.54.22c.08 1.38.88 1.52 1.13 1.52.5 0 1.04-.37 1.04-1.52zm4.7 3.95-1.32-.1v-.28c.6 0 .69-.06.69-.5v-4.65c0-.41-.1-.41-.7-.41v-.28c.43.02.6.03 1.01.03s.58-.01 1.02-.03v.28c-.6 0-.7 0-.7.41z" fill="#ff4d4d"/><path d="M18.72 7.77h-.25c-.06-.24-.12-.53-.16-.65-.06-.15-.08-.22-.6-.22h-.72c.11.45.31.79.73 1.4.47.68.9 1.3.9 2.08 0 1.24-1.24 2.25-2.8 2.25-1.61 0-2.82-1.03-2.82-2.25 0-.78.45-1.43.88-2.05.46-.69.64-1 .75-1.43h-.72c-.52 0-.54.07-.59.19-.05.13-.12.45-.17.68h-.25l.3-1.46h1.48c.2 0 .24 0 .24.19 0 .63-.29 1.38-.56 2.06-.23.6-.45 1.2-.45 1.83 0 1.36.99 2.01 1.9 2.01.95 0 1.9-.69 1.9-2.01 0-.67-.25-1.28-.46-1.83-.26-.7-.55-1.43-.55-2.06 0-.2.05-.2.24-.2h1.47z" fill="#4d4dff"/><path d="M22.43 7.22c0 .44 0 2.07-1.46 2.07-1.47 0-1.47-1.63-1.47-2.07s0-2.03 1.47-2.03c1.46 0 1.46 1.6 1.46 2.03m-1.46-1.84a.8.8 0 0 0-.8.61c-.1.35-.1.94-.1 1.3 0 .4 0 .87.08 1.2.15.53.6.6.82.6a.8.8 0 0 0 .8-.58q.12-.5.1-1.21c0-.38 0-.99-.1-1.32a.8.8 0 0 0-.8-.6" fill="#4d4dff"/><path d="M24.3 5.67a.36.36 0 1 1-.73 0 .36.36 0 0 1 .72 0" fill="#4d4dff"/><path d="M26.82 7.3c.5 0 .85-.34.85-.95 0-.66-.4-.95-.83-.95-.16 0-.78.04-1.05.39.23.02.33.17.33.34q-.02.32-.34.34c-.16 0-.34-.1-.34-.36 0-.59.66-.92 1.42-.92.88 0 1.47.57 1.47 1.16 0 .43-.33.9-1.04 1.07.47.16.85.54.85 1.03 0 .48-.56.84-1.28.84-.7 0-1.23-.32-1.23-.81 0-.26.2-.33.32-.33.15 0 .31.1.31.31 0 .19-.13.3-.29.32.28.31.83.31.88.31.3 0 .69-.14.69-.64 0-.33-.19-.9-.79-.94l-.32-.01q-.1 0-.12-.1c0-.1.06-.1.16-.1z" fill="#4d4dff"/><path d="M38.05 7.77h-.25l-.16-.65c-.06-.15-.08-.22-.6-.22h-.72c.12.45.31.79.74 1.4.46.68.9 1.3.9 2.08 0 1.24-1.25 2.25-2.81 2.25-1.6 0-2.82-1.03-2.82-2.25 0-.78.45-1.43.88-2.05.47-.69.65-1 .75-1.43h-.71c-.52 0-.55.07-.6.19-.05.13-.12.45-.17.68h-.25l.3-1.46h1.48c.2 0 .24 0 .24.19 0 .63-.29 1.38-.56 2.06-.23.6-.44 1.2-.44 1.83 0 1.36.98 2.01 1.89 2.01.95 0 1.9-.69 1.9-2.01 0-.67-.24-1.28-.46-1.83-.26-.7-.55-1.43-.55-2.06 0-.2.05-.2.25-.2h1.47z" fill="#ff4d4d"/><path d="M40.62 9.1c0 .19-.02.19-.2.19-.4-.38-1-.38-1.22-.38v-.24c.15 0 .55 0 .9.17V5.82c0-.2 0-.27-.6-.27h-.26V5.3c.32.03.79.03 1.13.03s.8 0 1.13-.03v.24h-.26c-.62 0-.62.07-.62.27z" fill="#ff4d4d"/><path d="M43.62 5.67a.36.36 0 1 1-.72 0 .36.36 0 0 1 .72 0" fill="#ff4d4d"/><path d="M47.77 6.3v.23h-.7v2.64c0 .14 0 .18-.15.18-.11 0-.12-.02-.18-.1l-2.07-2.72v-.24h1.86v-.47c0-.2 0-.27-.5-.27h-.18V5.3a31 31 0 0 0 1.9 0v.24h-.18c-.5 0-.5.07-.5.27v.47zm-1.2 2.4V6.53h-1.64z" fill="#ff4d4d"/></g></svg>