<?xml version='1.0' encoding='UTF-8'?><svg fill="currentColor" version="1.1" xmlns="http://www.w3.org/2000/svg" xmlns:xlink="http://www.w3.org/1999/xlink" width="299.04" height="164.28" viewBox="0 -123.21 224.28 123.21"><g transform="scale(1 -1)" id="page1"><path d="M60.15 107.56c0 .2-.1.5-.38.5-.17 0-.36-.22-.36-.4 0-.22.38-.27.38-.74 0-.45-.45-1.45-1.23-1.45a.8.8 0 0 0-.71.53c.1.16.26.64.26.82 0 .1-.06.2-.18.2-.36 0-.39-.75-.39-.99-.2-.25-.54-.56-1-.56-.37 0-.65.34-.65.8 0 .81.72 1.49.72 1.6q-.02.14-.15.16-.1 0-.16-.1-.14-.17-.26-.4a3 3 0 0 1-.42-1.51c0-.56.22-1.11.86-1.11.47 0 .88.3 1.13.68.13-.42.44-.68.88-.68 1.23 0 1.66 2.07 1.66 2.65"/><path d="M62.38 107.15c0 .15-.01.15-.18.15-.35-.32-.9-.32-1-.32h-.09v-.22h.09c.11 0 .44.02.72.14v-2.5c0-.15 0-.2-.52-.2h-.25v-.22c.27.02.71.02 1 .02s.74 0 1.01-.02v.22h-.25c-.53 0-.53.05-.53.2z"/><path d="M83.39 107.56c0 .2-.1.5-.38.5-.17 0-.35-.22-.35-.4 0-.22.37-.27.37-.74 0-.45-.44-1.45-1.22-1.45a.8.8 0 0 0-.72.53c.1.16.26.64.26.82 0 .1-.06.2-.18.2-.36 0-.38-.75-.38-.99-.2-.25-.55-.56-1-.56-.38 0-.66.34-.66.8 0 .81.72 1.49.72 1.6q-.02.14-.14.16-.1 0-.16-.1-.15-.17-.27-.4a3 3 0 0 1-.42-1.51c0-.56.23-1.11.87-1.11.46 0 .87.3 1.12.68.13-.42.44-.68.89-.68 1.22 0 1.65 2.07 1.65 2.65"/><path d="M86.58 104.94h-.21c-.02-.1-.07-.4-.15-.45-.04-.03-.45-.03-.53-.03h-.97c.32.24.7.52 1 .72.44.31.86.6.86 1.13 0 .63-.6.99-1.32.99-.67 0-1.16-.4-1.16-.88 0-.26.22-.3.29-.3.13 0 .29.09.29.3 0 .17-.13.27-.28.29.14.22.42.37.76.37.48 0 .89-.29.89-.78 0-.42-.3-.74-.68-1.06l-1.21-1.03q-.07-.06-.06-.08v-.15h2.31z"/><path d="M106.63 107.56c0 .2-.09.5-.37.5-.17 0-.36-.22-.36-.4 0-.22.38-.27.38-.74 0-.45-.45-1.45-1.23-1.45a.8.8 0 0 0-.71.53c.09.16.26.64.26.82 0 .1-.07.2-.19.2-.35 0-.38-.75-.38-.99-.2-.25-.54-.56-1-.56-.37 0-.65.34-.65.8 0 .81.72 1.49.72 1.6q-.01.14-.15.16-.1 0-.16-.1-.14-.17-.27-.4a3 3 0 0 1-.41-1.51c0-.56.22-1.11.86-1.11.47 0 .87.3 1.12.68.14-.42.44-.68.89-.68 1.23 0 1.65 2.07 1.65 2.65"/><path d="M108.53 105.63c.46 0 .76-.28.76-.78s-.31-.78-.75-.78c-.06 0-.65 0-.9.26.2.03.26.19.26.3a.3.3 0 0 1-.3.31c-.16 0-.31-.1-.31-.31 0-.52.58-.76 1.26-.76.82 0 1.33.5 1.33.98 0 .4-.37.75-.93.88.6.2.75.58.75.86 0 .4-.5.7-1.13.7s-1.1-.25-1.1-.7c0-.23.18-.3.27-.3.15 0 .29.11.29.3 0 .1-.06.24-.24.27.21.23.66.25.76.25.37 0 .62-.19.62-.52 0-.3-.18-.75-.7-.78l-.3-.01q-.09.01-.1-.09 0-.1.13-.08z"/><path d="M129.88 107.56c0 .2-.1.5-.38.5-.17 0-.36-.22-.36-.4 0-.22.38-.27.38-.74 0-.45-.45-1.45-1.23-1.45a.8.8 0 0 0-.7.53c.08.16.25.64.25.82 0 .1-.06.2-.18.2-.36 0-.38-.75-.38-.99-.2-.25-.55-.56-1-.56-.38 0-.66.34-.66.8 0 .81.72 1.49.72 1.6q-.01.14-.15.16-.09 0-.16-.1-.14-.17-.26-.4a3 3 0 0 1-.42-1.51c0-.56.22-1.11.87-1.11.46 0 .87.3 1.12.68.13-.42.44-.68.88-.68 1.23 0 1.66 2.07 1.66 2.65"/><path d="M133.2 104.8v.21h-.62v2.2c0 .11 0 .14-.13.14-.1 0-.1 0-.16-.07l-1.84-2.27v-.22h1.65v-.39c0-.15 0-.2-.43-.2h-.17v-.22a21 21 0 0 0 1.7 0v.22h-.18c-.44 0-.44.05-.44.2v.4zm-1.06 2.01v-1.8h-1.46z"/><path d="M153.12 107.56c0 .2-.09.5-.37.5-.17 0-.36-.22-.36-.4 0-.22.38-.27.38-.74 0-.45-.45-1.45-1.23-1.45a.8.8 0 0 0-.71.53c.09.16.26.64.26.82 0 .1-.07.2-.19.2-.35 0-.38-.75-.38-.99-.2-.25-.54-.56-1-.56-.37 0-.65.34-.65.8 0 .81.72 1.49.72 1.6q-.01.14-.15.16-.1 0-.16-.1-.14-.17-.27-.4a3 3 0 0 1-.41-1.51c0-.56.22-1.11.86-1.11.47 0 .87.3 1.12.68.14-.42.44-.68.89-.68 1.23 0 1.65 2.07 1.65 2.65"/><path d="M154.35 106.73c.27-.07.5-.07.55-.07.34 0 .58.1.71.17.12.06.46.27.46.38q-.02.1-.07.09l-.07-.03a2.5 2.5 0 0 0-1.65 0l-.08.03q-.09-.01-.07-.14v-1.5c0-.08 0-.15.1-.15q.06-.01.1.07a1 1 0 0 0 .8.33.6.6 0 0 0 .51-.28c.12-.17.14-.39.14-.63 0-.2-.02-.49-.21-.68a1 1 0 0 0-.62-.25c-.32 0-.69.14-.84.44.2.01.28.16.28.28 0 .16-.12.28-.28.28-.11 0-.28-.07-.28-.3 0-.49.48-.9 1.13-.9.74 0 1.35.5 1.35 1.12 0 .56-.48 1.08-1.17 1.08q-.47 0-.79-.24z"/><path d="M176.37 107.56c0 .2-.1.5-.38.5-.17 0-.36-.22-.36-.4 0-.22.38-.27.38-.74 0-.45-.45-1.45-1.23-1.45a.8.8 0 0 0-.7.53c.08.16.25.64.25.82 0 .1-.06.2-.18.2-.36 0-.39-.75-.39-.99-.2-.25-.54-.56-1-.56-.37 0-.65.34-.65.8 0 .81.72 1.49.72 1.6q-.01.14-.15.16-.09 0-.16-.1-.14-.17-.26-.4a3 3 0 0 1-.42-1.51c0-.56.22-1.11.86-1.11.47 0 .88.3 1.13.68.13-.42.44-.68.88-.68 1.23 0 1.66 2.07 1.66 2.65"/><path d="M177.55 105.61c0 .23 0 .63.19.95.14.27.47.55.93.55.1 0 .32-.01.47-.13a.3.3 0 0 1-.21-.26c0-.16.12-.27.26-.27.09 0 .27.05.27.28 0 .27-.2.57-.8.57-.85 0-1.64-.7-1.64-1.74 0-1.19.58-1.69 1.31-1.69.5 0 .73.18.9.32.32.27.38.56.38.81q.02.44-.36.78c-.22.2-.45.33-.88.33a1 1 0 0 1-.82-.5m.78-1.54c-.77 0-.77.83-.77 1.04 0 .38.28.83.8.83.25 0 .41-.06.57-.26.15-.19.15-.4.15-.67 0-.3 0-.48-.16-.68q-.19-.26-.59-.26"/><path d="M53.88 109.53h124.49" stroke="currentColor" fill="none" stroke-width=".45" stroke-miterlimit="10" stroke-linecap="round" stroke-linejoin="round"/><path d="m181.37 109.53-4.3 1.63 1.41-1.63-1.41-1.62Z" fill="currentColor"/><path d="m181.37 109.53-4.3 1.63 1.41-1.63-1.41-1.62Z" stroke="currentColor" fill="none" stroke-width=".45" stroke-miterlimit="10" stroke-linecap="round"/><path d="M50.2 115.83a.3.3 0 0 1-.2-.3c0-.2.14-.33.33-.33s.34.12.34.34c0 .62-.97.62-1.17.62-1.05 0-1.7-.8-1.7-1.6 0-.88.75-1.58 1.67-1.58 1.04 0 1.28.82 1.28.9 0 .1-.1.1-.12.1-.09 0-.1-.03-.13-.13a1 1 0 0 0-.95-.65c-.48 0-1.1.36-1.1 1.36 0 .89.42 1.38 1.07 1.38.1 0 .43 0 .68-.1m4.52-1.3c0 .88-.75 1.63-1.71 1.63s-1.71-.75-1.71-1.62.77-1.56 1.7-1.56 1.72.7 1.72 1.56M53 113.2c-.26 0-.64.09-.87.43-.19.29-.2.65-.2.97 0 .3 0 .71.24 1.01.18.2.47.36.83.36.4 0 .7-.2.86-.41.2-.28.21-.63.21-.96 0-.34-.02-.7-.22-1-.19-.26-.51-.4-.85-.4m5.1 1.72c0 .37 0 .64-.32.9q-.42.34-1.03.34c-.67 0-1.13-.25-1.13-.67 0-.23.15-.35.33-.35s.33.14.33.33c0 .12-.06.27-.25.32.26.18.66.18.7.18a.8.8 0 0 0 .82-.85v-.21a4 4 0 0 1-1.35-.23c-.63-.23-.83-.61-.83-.92 0-.6.73-.78 1.22-.78.56 0 .89.32 1.04.59.02-.29.21-.55.53-.55.02 0 .7 0 .7.66v.38h-.24v-.37c0-.07 0-.4-.26-.4s-.26.32-.26.41zm-.55-.89c0-.67-.59-.85-.9-.85-.36 0-.7.23-.7.58 0 .38.34.92 1.6.97zm2.8.61c0 .59.27 1.3.93 1.3a.3.3 0 0 1-.12-.26.3.3 0 0 1 .32-.32c.17 0 .32.11.32.32 0 .24-.22.45-.55.45-.35 0-.73-.22-.94-.75h-.01v.75l-1-.08v-.25c.47 0 .53-.05.53-.4v-1.8c0-.3-.07-.3-.53-.3v-.25c.04 0 .51.03.8.03l.9-.03v.25h-.14c-.51 0-.51.08-.51.32zm4.37 1.34c0 .12 0 .18-.1.18-.04 0-.05 0-.14-.08l-.13-.1q-.32.2-.73.18c-1 0-1.23-.52-1.23-.87q.01-.33.26-.54c.27-.23.53-.28.96-.35.35-.07.92-.16.92-.63 0-.27-.19-.6-.86-.6s-.91.45-1.04.92c-.02.1-.03.12-.12.12-.12 0-.12-.05-.12-.19v-.86c0-.12 0-.18.1-.18.06 0 .19.15.33.3.3-.28.68-.3.85-.3.9 0 1.24.49 1.24.98q-.02.4-.3.65c-.26.24-.58.3-.83.34-.56.1-1 .18-1 .55 0 .22.18.5.84.5.81 0 .85-.57.86-.77 0-.08.09-.08.12-.08.12 0 .12.05.12.18zm3.58-1.34c.15 0 .2 0 .2.15 0 .62-.35 1.37-1.39 1.37a1.6 1.6 0 0 1-1.6-1.58c0-.89.77-1.6 1.7-1.6.94 0 1.28.75 1.28.9 0 .04-.01.1-.11.1s-.1-.04-.13-.1a1.05 1.05 0 0 0-1-.68c-.33 0-.64.15-.85.42-.26.32-.26.75-.26 1.02zm-2.16.18c.08.99.7 1.15.97 1.15.86 0 .89-.97.9-1.15z" fill="currentColor"/><path d="M174.25 116.08q-.11 0-.13-.02h-1.23v.76c0 .69.72.95 1.2.95q.37.01.66-.2c-.26-.05-.28-.25-.28-.33a.34.34 0 1 1 .69.01c0 .38-.4.71-1.04.71-.73 0-1.72-.33-1.72-1.14v-.76h-.6v-.25h.6v-2.2c0-.3-.07-.3-.53-.3v-.26c.02 0 .5.03.78.03q.4 0 .8-.03v.25c-.46 0-.53 0-.53.3v2.2h1.39c.28 0 .34-.06.34-.37v-1.83c0-.3-.07-.3-.53-.3v-.25c.02 0 .5.03.79.03q.39 0 .78-.03v.25c-.45 0-.52 0-.52.3v2.54zm5.38-.92c0 .61-.3.97-1.04.97-.58 0-.94-.32-1.14-.68v.68l-1.03-.08v-.25c.46 0 .52-.05.52-.4v-1.8c0-.3-.07-.3-.52-.3v-.25c.01 0 .5.03.8.03l.8-.03v.25c-.46 0-.53 0-.53.3v1.26c0 .73.58 1.07 1.04 1.07.49 0 .55-.38.55-.74v-1.59c0-.3-.07-.3-.52-.3v-.25c.01 0 .5.03.8.03l.8-.03v.25c-.46 0-.53 0-.53.3zm3.88-.52c.15 0 .2 0 .2.15 0 .62-.35 1.37-1.39 1.37a1.6 1.6 0 0 1-1.6-1.58c0-.89.77-1.6 1.7-1.6.94 0 1.29.75 1.29.9q.01.08-.12.1c-.1 0-.1-.04-.13-.1a1.05 1.05 0 0 0-1-.68c-.32 0-.64.15-.85.42-.26.32-.26.75-.26 1.02zm-2.16.18c.08.99.7 1.15.97 1.15.86 0 .89-.97.9-1.15z" fill="currentColor"/><path d="M18.23 87.64c.09.21.26.45.79.46v.25c-.2-.02-.48-.03-.68-.03l-.84.03v-.25c.26 0 .48-.12.48-.33l-.03-.15-1.45-3.37L15 87.8q-.05.1-.04.12c0 .19.36.19.55.19v.25l-1.04-.03c-.35 0-.87.03-.9.03v-.25h.12c.38 0 .5-.04.59-.26l1.81-4.24c.05-.1.07-.16.2-.16.08 0 .14 0 .2.15z"/><path d="M21.67 85.17c.14 0 .2 0 .2.16 0 .61-.35 1.36-1.4 1.36a1.6 1.6 0 0 1-1.6-1.58c0-.89.77-1.6 1.7-1.6.94 0 1.3.76 1.3.91 0 .03-.02.1-.13.1-.09 0-.1-.04-.12-.11a1.05 1.05 0 0 0-1-.67q-.52 0-.85.4c-.26.34-.27.76-.27 1.03zm-2.16.18c.08.99.7 1.15.97 1.15.86 0 .89-.97.9-1.15zm6.22.35c0 .6-.3.96-1.05.96-.62 0-.96-.37-1.11-.64v2.4l-1.06-.07v-.25c.47 0 .53-.05.53-.4v-3.57c0-.3-.07-.3-.53-.3v-.25c.02 0 .5.03.8.03l.8-.03v.25c-.45 0-.52 0-.52.3v1.26c0 .73.58 1.07 1.04 1.07.49 0 .55-.38.55-.74v-1.59c0-.3-.07-.3-.52-.3v-.25c.01 0 .5.03.8.03l.8-.03v.25c-.46 0-.53 0-.53.3zm2.28 2.19c0 .2-.17.4-.4.4a.4.4 0 0 1-.4-.4c0-.25.2-.4.4-.4.22 0 .4.17.4.4m-1.06-1.3v-.26c.44 0 .5-.04.5-.38v-1.82c0-.3-.07-.3-.52-.3v-.25c.01 0 .5.03.78.03q.37 0 .74-.03v.25c-.4 0-.47 0-.47.3v2.53zm4.56-.22a.3.3 0 0 1-.2-.31c0-.19.13-.33.33-.33.19 0 .33.12.33.34 0 .62-.97.62-1.16.62-1.05 0-1.7-.8-1.7-1.6 0-.88.75-1.58 1.66-1.58 1.04 0 1.29.83 1.29.91s-.1.08-.12.08c-.1 0-.1-.02-.13-.11a1 1 0 0 0-.95-.65c-.48 0-1.11.35-1.11 1.36 0 .88.43 1.37 1.08 1.37.1 0 .43 0 .68-.1m2.26 2.05-1.04-.07v-.25c.46 0 .52-.05.52-.4v-3.57c0-.3-.07-.3-.52-.3v-.25c.01 0 .5.03.78.03q.39 0 .79-.03v.25c-.46 0-.53 0-.53.3zm3.89-3.25c.15 0 .2 0 .2.16 0 .61-.35 1.36-1.39 1.36a1.6 1.6 0 0 1-1.6-1.58c0-.89.77-1.6 1.7-1.6.94 0 1.29.76 1.29.91 0 .03-.02.1-.12.1s-.1-.04-.13-.11a1.05 1.05 0 0 0-1-.67c-.32 0-.64.14-.85.4a1.7 1.7 0 0 0-.26 1.03zm-2.15.18c.07.99.7 1.15.96 1.15.86 0 .89-.97.9-1.15zm5.27 1.16c0 .12 0 .18-.1.18-.04 0-.05 0-.14-.08l-.13-.1q-.32.2-.73.18c-1 0-1.23-.52-1.23-.87q.01-.33.26-.54c.27-.23.53-.28.96-.35.35-.06.92-.16.92-.63 0-.27-.19-.6-.86-.6s-.91.45-1.04.92c-.02.1-.03.12-.12.12-.12 0-.12-.05-.12-.19v-.86c0-.11 0-.18.1-.18.06 0 .19.15.33.3.3-.28.68-.3.85-.3.9 0 1.24.5 1.24.99q-.02.39-.3.64c-.26.24-.58.3-.83.34-.56.1-1 .18-1 .55 0 .22.18.5.84.5.81 0 .85-.57.86-.77 0-.08.09-.08.12-.08.12 0 .12.05.12.18z"/><path d="M15.96 70.82c-.04.11-.06.16-.2.16-.13 0-.15-.05-.2-.16l-1.6-4.08c-.07-.17-.2-.48-.82-.48V66l.72.03.84-.03v.25c-.31 0-.5.14-.5.33 0 .06 0 .07.03.14l.33.86h1.98l.4-1.02q.03-.05.04-.12c0-.2-.37-.2-.56-.2V66a32 32 0 0 0 1.97 0v.25h-.14c-.47 0-.52.07-.6.26zm-.4-.71.89-2.27h-1.79zm6.74-1.99c0 .6-.3.96-1.05.96-.57 0-.94-.31-1.13-.67h-.01v.67l-1.03-.07v-.25c.47 0 .53-.05.53-.4v-1.8c0-.3-.07-.3-.53-.3V66c.02 0 .5.03.8.03l.8-.03v.25c-.45 0-.52 0-.52.3v1.25c0 .74.58 1.08 1.04 1.08.49 0 .55-.38.55-.74v-1.6c0-.3-.07-.3-.52-.3V66c.01 0 .5.03.8.03l.8-.03v.25c-.46 0-.53 0-.53.3zm2.28 2.2a.4.4 0 0 1-.4.39.4.4 0 0 1-.4-.4c0-.25.2-.4.4-.4.22 0 .4.17.4.4M23.52 69v-.25c.44 0 .5-.05.5-.39v-1.81c0-.3-.07-.3-.52-.3V66c.01 0 .5.03.78.03q.37 0 .74-.03v.25c-.4 0-.47 0-.47.3v2.52zm7.58-.89c0 .6-.3.96-1.05.96-.55 0-.93-.3-1.12-.64-.13.49-.51.64-1.02.64-.57 0-.94-.31-1.14-.67v.67L25.74 69v-.25c.47 0 .52-.05.52-.4v-1.8c0-.3-.07-.3-.52-.3V66c.01 0 .5.03.8.03l.8-.03v.25c-.46 0-.53 0-.53.3v1.25c0 .74.58 1.08 1.04 1.08.5 0 .55-.38.55-.74v-1.6c0-.3-.07-.3-.52-.3V66c.02 0 .5.03.8.03l.8-.03v.25c-.45 0-.52 0-.52.3v1.25c0 .74.57 1.08 1.03 1.08.5 0 .56-.38.56-.74v-1.6c0-.3-.07-.3-.53-.3V66c.02 0 .5.03.8.03l.8-.03v.25c-.45 0-.52 0-.52.3zm3.92-.24c0 .37 0 .63-.32.89q-.42.35-1.03.35c-.67 0-1.13-.25-1.13-.68 0-.22.15-.34.33-.34s.33.14.33.33c0 .12-.06.26-.25.32.26.17.66.17.7.17a.8.8 0 0 0 .82-.84v-.22a4 4 0 0 1-1.35-.22c-.63-.23-.83-.61-.83-.93 0-.6.73-.77 1.22-.77.56 0 .89.31 1.04.58.02-.28.21-.55.53-.55.02 0 .7 0 .7.67v.38h-.24v-.38c0-.07 0-.4-.26-.4s-.26.33-.26.42zm-.55-.89c0-.67-.59-.86-.9-.86-.36 0-.7.24-.7.58 0 .39.34.92 1.6.97zm2.85 3.86-1.05-.08v-.25c.47 0 .52-.05.52-.39v-3.57c0-.3-.07-.3-.52-.3V66c.01 0 .5.03.78.03q.4 0 .79-.03v.25c-.45 0-.52 0-.52.3zm3.46-1.91c0 .12 0 .18-.1.18q-.02.02-.14-.08l-.12-.11q-.33.2-.74.19c-1 0-1.23-.52-1.23-.87q.01-.34.26-.55c.27-.23.53-.28.97-.35.35-.06.91-.16.91-.62 0-.28-.19-.6-.86-.6s-.91.44-1.04.92c-.02.09-.02.12-.12.12-.12 0-.12-.05-.12-.2v-.85c0-.12 0-.18.1-.18.06 0 .2.14.33.3.3-.29.69-.3.85-.3.9 0 1.24.49 1.24.98q0 .4-.3.64c-.26.25-.58.3-.83.35-.55.1-1 .18-1 .55 0 .22.18.5.84.5.81 0 .85-.57.86-.78 0-.07.1-.07.12-.07.12 0 .12.05.12.18z"/><path d="M10.08 52.63c0 .24.01.32.55.32h.17v.25a32 32 0 0 0-2.1 0v-.25h.16c.54 0 .55-.07.55-.32v-1.6H7.08v1.6c0 .24.02.32.56.32h.16v.25a32 32 0 0 0-2.1 0v-.25h.17c.54 0 .55-.07.55-.32V49c0-.24-.01-.32-.55-.32H5.7v-.25a32 32 0 0 0 2.1 0v.25h-.16c-.54 0-.56.07-.56.32v1.78h2.33V49c0-.24-.01-.32-.55-.32H8.7v-.25a32 32 0 0 0 2.1 0v.25h-.17c-.54 0-.55.07-.55.32zm4.8-2.71c0 .87-.74 1.62-1.7 1.62-.97 0-1.71-.75-1.71-1.62s.76-1.56 1.7-1.56c.95 0 1.71.7 1.71 1.56m-1.7-1.33c-.26 0-.64.08-.87.42-.19.29-.2.65-.2.97 0 .3 0 .71.24 1.01.18.2.47.36.82.36.42 0 .7-.2.86-.41.2-.28.22-.62.22-.96s-.02-.7-.22-.99q-.32-.4-.86-.4m4.5 2.84v-.25c.47 0 .53-.05.53-.39v-1.2c0-.6-.4-1.03-.93-1.03-.64 0-.66.3-.66.65v2.3l-1.08-.08v-.25c.53 0 .53-.02.53-.64v-1.05c0-.48 0-1.13 1.16-1.13.15 0 .66 0 1 .59v-.59l1.05.07v.25c-.47 0-.52.05-.52.4v2.43zm4.53-.07c0 .12 0 .18-.1.18q-.03.02-.14-.08l-.12-.1q-.33.2-.74.18c-1 0-1.23-.52-1.23-.87q.01-.33.26-.54c.27-.23.53-.28.97-.35.35-.06.91-.16.91-.63 0-.27-.19-.6-.86-.6s-.91.45-1.04.92c-.02.1-.02.12-.12.12-.12 0-.12-.05-.12-.19v-.86c0-.11 0-.18.1-.18.06 0 .2.15.33.3.3-.28.69-.3.85-.3.91 0 1.24.5 1.24.99q0 .39-.3.64c-.26.24-.58.3-.83.34-.55.1-1 .18-1 .55 0 .22.18.5.84.5.81 0 .85-.57.86-.77 0-.08.1-.08.12-.08.12 0 .12.05.12.18zm3.58-1.34c.15 0 .2 0 .2.16 0 .61-.35 1.36-1.38 1.36a1.6 1.6 0 0 1-1.62-1.58c0-.89.78-1.6 1.7-1.6.95 0 1.3.76 1.3.91 0 .03-.02.1-.12.1s-.1-.04-.13-.11a1.05 1.05 0 0 0-1-.67c-.32 0-.64.14-.85.4a1.7 1.7 0 0 0-.26 1.03zm-2.15.18c.07.99.7 1.15.97 1.15.85 0 .88-.97.89-1.15zm6.22.35c0 .6-.3.96-1.05.96-.62 0-.96-.37-1.12-.64v2.4l-1.05-.07v-.25c.47 0 .52-.05.52-.4v-3.57c0-.3-.07-.3-.52-.3v-.25c.01 0 .5.03.8.03l.8-.03v.25c-.46 0-.52 0-.52.3v1.26c0 .73.57 1.07 1.03 1.07.5 0 .56-.38.56-.74v-1.59c0-.3-.07-.3-.53-.3v-.25c.02 0 .5.03.8.03l.8-.03v.25c-.45 0-.52 0-.52.3zm4.5-.63c0 .87-.75 1.62-1.71 1.62s-1.71-.75-1.71-1.62.76-1.56 1.7-1.56 1.71.7 1.71 1.56m-1.71-1.33c-.26 0-.64.08-.87.42-.19.29-.2.65-.2.97 0 .3 0 .71.24 1.01.18.2.47.36.83.36.4 0 .7-.2.85-.41.2-.28.22-.62.22-.96s-.02-.7-.22-.99q-.32-.4-.85-.4m3.42 4.68-1.04-.07v-.25c.46 0 .52-.05.52-.4v-3.57c0-.3-.07-.3-.52-.3v-.25c.01 0 .5.03.78.03q.39 0 .79-.03v.25c-.46 0-.53 0-.53.3zm3.3-.07v-.25c.47 0 .53-.05.53-.4v-1.44q-.4.39-.98.4c-.93 0-1.7-.7-1.7-1.58 0-.87.73-1.57 1.62-1.57.57 0 .91.31 1.03.44v-.44l1.07.07v.25c-.46 0-.52.05-.52.4v4.2zm.5-4.03a1.2 1.2 0 0 0-1-.61 1 1 0 0 0-.8.43c-.14.21-.22.49-.22.94 0 .16 0 .68.28 1s.62.38.83.38q.51-.01.83-.4c.08-.11.08-.12.08-.25z"/><path d="M19.1 35.56c-.09.1-.1.1-.23.1h-1.2v-.25h.2c.3 0 .47-.04.5-.04v-3.72c0-.19 0-.5-.7-.5v-.25a12 12 0 0 0 1.7 0v.25c-.73 0-.73.31-.73.5v3.52l3.1-4.17c.07-.1.08-.1.16-.1.13 0 .13.06.13.2v3.8c0 .2 0 .51.72.51v.25a12 12 0 0 0-1.7 0v-.25c.72 0 .72-.31.72-.5v-2.96zm7.16-2.8c0 .38 0 .64-.32.9q-.43.36-1.03.35c-.66 0-1.13-.25-1.13-.68 0-.22.15-.34.33-.34.2 0 .33.14.33.33 0 .12-.05.26-.24.32.25.17.65.17.7.17a.8.8 0 0 0 .81-.84v-.22a4 4 0 0 1-1.35-.22c-.63-.23-.83-.61-.83-.93 0-.6.73-.77 1.23-.77.55 0 .88.31 1.03.58.03-.28.21-.55.53-.55.02 0 .7 0 .7.66v.39h-.24v-.38c0-.07 0-.4-.26-.4s-.26.33-.26.42zm-.55-.88c0-.67-.59-.86-.9-.86-.35 0-.69.24-.69.58 0 .39.34.92 1.6.97zm2.81 1.77h1.1v.25h-1.1v1.29h-.23c-.01-.63-.3-1.32-.97-1.34v-.2h.65v-1.88c0-.78.59-.94.98-.94.47 0 .79.4.79.95v.38h-.24v-.38c0-.47-.22-.73-.5-.73-.48 0-.48.59-.48.71zm4.23.25v-.25c.47 0 .53-.05.53-.4v-1.19c0-.61-.4-1.04-.93-1.04-.64 0-.66.3-.66.66v2.3l-1.08-.08v-.25c.53 0 .53-.03.53-.65v-1.04c0-.48 0-1.13 1.16-1.13.15 0 .66 0 1 .58v-.58l1.05.07v.25c-.47 0-.52.05-.52.39v2.43zm3.27-1.41c0 .58.28 1.29.94 1.29a.3.3 0 0 1-.12-.25.3.3 0 0 1 .31-.32c.17 0 .32.1.32.32 0 .23-.22.44-.55.44s-.73-.21-.94-.74v.74l-1-.07v-.25c.47 0 .52-.05.52-.4v-1.8c0-.3-.07-.3-.52-.3v-.25l.8.02.9-.02v.25h-.14c-.52 0-.52.07-.52.31zm4.8 0c.14 0 .2 0 .2.15 0 .61-.35 1.37-1.39 1.37a1.6 1.6 0 0 1-1.6-1.59c0-.88.77-1.6 1.7-1.6s1.28.76 1.28.91c0 .03-.01.1-.12.1-.09 0-.1-.04-.12-.11a1.05 1.05 0 0 0-1-.67q-.52.01-.85.41c-.26.33-.26.76-.26 1.03zm-2.16.18c.08.98.7 1.14.97 1.14.86 0 .89-.97.9-1.14z"/><path d="M20.22 16.12h1.27c1.02 0 1.81.59 1.81 1.3 0 .69-.78 1.3-1.8 1.3h-2.66v-.25h.17c.54 0 .55-.06.55-.3v-3.64c0-.24-.01-.32-.55-.32h-.17v-.25a32 32 0 0 0 2.1 0v.25h-.16c-.54 0-.56.07-.56.32zm1.1 2.35c1.16 0 1.23-.65 1.23-1.06 0-.3 0-1.06-1.23-1.06H20.2v1.85c0 .22 0 .27.33.27z"/><path d="M26.64 15.55c.15 0 .2 0 .2.16 0 .6-.34 1.36-1.38 1.36a1.6 1.6 0 0 1-1.61-1.58c0-.89.77-1.6 1.7-1.6.94 0 1.29.76 1.29.9q.02.08-.12.1c-.1 0-.1-.04-.13-.1a1.05 1.05 0 0 0-1-.67c-.32 0-.63.14-.84.4-.26.33-.27.76-.27 1.03zm-2.15.18c.07.99.7 1.15.97 1.15.86 0 .88-.97.89-1.15zm6.32-.28c0 .87-.75 1.62-1.71 1.62-.97 0-1.71-.75-1.71-1.62s.77-1.56 1.7-1.56c.95 0 1.72.7 1.72 1.56m-1.71-1.33c-.26 0-.64.08-.87.42-.19.29-.2.65-.2.97 0 .3 0 .71.24 1.01.18.2.47.36.83.36.4 0 .7-.2.86-.41.19-.28.21-.62.21-.96s-.02-.7-.22-.99c-.19-.27-.51-.4-.85-.4m3.93-1.26c-.46 0-.53 0-.53.3v1.14c.04-.04.37-.4.95-.4.92 0 1.71.68 1.71 1.57 0 .86-.71 1.57-1.6 1.57-.4 0-.8-.15-1.08-.43v.43l-1.05-.08v-.25c.49 0 .52-.03.52-.33v-3.22c0-.3-.07-.3-.52-.3v-.25c.01 0 .5.03.8.03l.8-.03zm-.53 3.42c.21.35.62.53.99.53.58 0 1.04-.6 1.04-1.34 0-.8-.53-1.38-1.12-1.38-.61 0-.89.53-.9.58zm4.43 2.52-1.05-.07v-.26c.47 0 .52-.04.52-.39v-3.57c0-.3-.07-.3-.52-.3v-.25c.01 0 .5.03.78.03q.4 0 .79-.03v.25c-.46 0-.52 0-.52.3zm3.88-3.25c.15 0 .2 0 .2.16 0 .6-.34 1.36-1.38 1.36a1.6 1.6 0 0 1-1.61-1.58c0-.89.77-1.6 1.7-1.6.94 0 1.29.76 1.29.9q.01.08-.12.1c-.1 0-.1-.04-.13-.1a1.05 1.05 0 0 0-1-.67c-.32 0-.64.14-.84.4-.26.33-.27.76-.27 1.03zm-2.15.18c.07.99.7 1.15.97 1.15.85 0 .88-.97.89-1.15z"/><path d="M48.21 77.22v17.57h23.25V77.22Z" fill="#d95f0e"/><path d="M48.21 77.22v17.57h23.25V77.22Z" stroke="#fff" fill="none" stroke-width=".6" stroke-miterlimit="10" stroke-linecap="round" stroke-linejoin="round"/><path d="M56.6 86c0 .35 0 1.72-1.3 1.72S54 86.35 54 85.99s0-1.7 1.3-1.7 1.3 1.34 1.3 1.7m-1.3-1.55c-.18 0-.6.07-.73.57q-.09.41-.07 1.03-.02.57.08 1c.12.42.5.5.72.5q.57 0 .73-.54c.07-.25.07-.66.07-.96 0-.34 0-.74-.07-1.04a.7.7 0 0 0-.73-.56" fill="#333"/><path d="M58.44 84.7a.3.3 0 0 1-.3.3.3.3 0 0 1-.3-.3c0-.16.13-.3.3-.3s.3.14.3.3" fill="#333"/><path d="M60.92 86.05c.46 0 .76-.29.76-.78s-.31-.78-.76-.78c-.05 0-.64 0-.9.26.2.03.27.19.27.3a.3.3 0 0 1-.3.31c-.17 0-.32-.1-.32-.31 0-.52.6-.76 1.27-.76.82 0 1.32.5 1.32.98 0 .4-.36.75-.93.88.6.2.76.58.76.85 0 .41-.5.72-1.14.72-.6 0-1.1-.26-1.1-.71 0-.23.19-.3.28-.3.15 0 .29.11.29.29 0 .11-.06.25-.24.28.21.23.65.25.76.25.36 0 .62-.19.62-.53 0-.28-.19-.74-.71-.77l-.29-.01q-.09.02-.1-.09 0-.1.13-.08zm4.74-.06c0 .36 0 1.73-1.3 1.73s-1.3-1.37-1.3-1.73 0-1.7 1.3-1.7 1.3 1.34 1.3 1.7m-1.3-1.54c-.19 0-.6.07-.73.57q-.09.41-.07 1.03-.02.57.08 1c.12.42.5.5.72.5q.57 0 .73-.54c.07-.25.07-.66.07-.96 0-.34 0-.74-.07-1.04a.7.7 0 0 0-.73-.56" fill="#333"/><path d="M71.46 77.22v17.57H94.7V77.22Z" fill="#eb922e"/><path d="M71.46 77.22v17.57H94.7V77.22Z" stroke="#fff" fill="none" stroke-width=".6" stroke-miterlimit="10" stroke-linecap="round" stroke-linejoin="round"/><path d="M79.85 86c0 .35 0 1.72-1.3 1.72s-1.3-1.37-1.3-1.73 0-1.7 1.3-1.7 1.3 1.34 1.3 1.7m-1.3-1.55c-.19 0-.6.07-.73.57q-.1.41-.08 1.03-.02.57.08 1c.13.42.51.5.73.5q.56 0 .73-.54c.07-.25.07-.66.07-.96 0-.34 0-.74-.08-1.04a.7.7 0 0 0-.72-.56" fill="#fff"/><path d="M81.68 84.7a.3.3 0 0 1-.3.3.3.3 0 0 1-.3-.3c0-.16.14-.3.3-.3s.3.14.3.3" fill="#fff"/><path d="M85.45 85.36h-.2c-.02-.1-.07-.4-.15-.45-.04-.03-.46-.03-.53-.03h-.98c.33.24.7.52 1 .72.45.3.86.6.86 1.13 0 .63-.6.99-1.31.99-.67 0-1.17-.4-1.17-.88 0-.26.22-.3.3-.3.13 0 .29.09.29.29 0 .18-.13.28-.29.3a.9.9 0 0 0 .76.37c.49 0 .9-.3.9-.78 0-.42-.3-.74-.68-1.06l-1.22-1.03-.06-.08v-.15h2.32zm3.53-.15v.22h-.62v2.2c0 .11 0 .14-.13.14-.1 0-.1 0-.16-.07l-1.85-2.27v-.22h1.66v-.39c0-.15 0-.2-.43-.2h-.17v-.22a21 21 0 0 0 1.69 0v.22h-.18c-.43 0-.43.05-.43.2v.4zm-1.06 2.02v-1.8h-1.46z" fill="#fff"/><path d="M94.7 77.22v17.57h23.25V77.22Z" fill="#fec44f"/><path d="M94.7 77.22v17.57h23.25V77.22Z" stroke="#fff" fill="none" stroke-width=".6" stroke-miterlimit="10" stroke-linecap="round" stroke-linejoin="round"/><path d="M103.09 86c0 .35 0 1.72-1.3 1.72s-1.3-1.37-1.3-1.73 0-1.7 1.3-1.7 1.3 1.34 1.3 1.7m-1.3-1.55c-.18 0-.6.07-.73.57q-.09.41-.07 1.03-.02.57.08 1c.12.42.5.5.72.5q.57 0 .73-.54c.07-.25.07-.66.07-.96 0-.34 0-.74-.07-1.04a.7.7 0 0 0-.73-.56" fill="#fff"/><path d="M104.93 84.7a.3.3 0 0 1-.3.3.3.3 0 0 1-.31-.3c0-.16.14-.3.3-.3.17 0 .3.14.3.3" fill="#fff"/><path d="M107.75 87.57c0 .15-.02.15-.18.15-.36-.32-.9-.32-1-.32h-.1v-.22h.1c.1 0 .43.01.72.14v-2.5c0-.15 0-.2-.53-.2h-.25v-.22c.28.02.72.02 1 .02.3 0 .74 0 1.01-.02v.22h-.25c-.52 0-.52.05-.52.2zm3.54-1.37c.51.21.68.48.68.76 0 .52-.57.76-1.12.76-.61 0-1.12-.35-1.12-.85 0-.46.4-.66.65-.8q-.81-.3-.83-.9c0-.6.67-.88 1.3-.88.7 0 1.3.37 1.3.96 0 .54-.52.8-.86.95m-.97.5c-.22.12-.28.24-.28.36 0 .32.4.47.8.47s.82-.2.82-.58c0-.43-.57-.64-.57-.64l-.06.03zm.27-.74.78-.39c.18-.1.43-.23.43-.5 0-.4-.5-.58-.95-.58s-.95.23-.95.68c0 .5.53.72.7.8" fill="#fff"/><path d="M117.95 77.22v17.57h23.24V77.22Z" fill="#fed97c"/><path d="M117.95 77.22v17.57h23.24V77.22Z" stroke="#fff" fill="none" stroke-width=".6" stroke-miterlimit="10" stroke-linecap="round" stroke-linejoin="round"/><path d="M126.33 86c0 .35 0 1.72-1.3 1.72s-1.3-1.37-1.3-1.73 0-1.7 1.3-1.7 1.3 1.34 1.3 1.7m-1.3-1.55c-.18 0-.6.07-.72.57q-.1.41-.08 1.03-.02.57.08 1c.13.42.51.5.72.5q.57 0 .74-.54c.07-.25.07-.66.07-.96 0-.34 0-.74-.08-1.04a.7.7 0 0 0-.73-.56" fill="#fff"/><path d="M128.17 84.7a.3.3 0 0 1-.3.3.3.3 0 0 1-.3-.3c0-.16.13-.3.3-.3s.3.14.3.3" fill="#fff"/><path d="M131 87.57c0 .15-.02.15-.19.15-.35-.32-.9-.32-1-.32h-.09v-.22h.09c.11 0 .43.01.72.14v-2.5c0-.15 0-.2-.53-.2h-.24v-.22c.27.02.71.02 1 .02s.73 0 1-.02v.22h-.24c-.53 0-.53.05-.53.2zm3.04-1.52c.46 0 .76-.29.76-.78s-.3-.78-.75-.78c-.06 0-.65 0-.9.26.2.03.26.19.26.3a.3.3 0 0 1-.3.31c-.16 0-.31-.1-.31-.31 0-.52.58-.76 1.26-.76.82 0 1.33.5 1.33.98 0 .4-.37.75-.93.88.6.2.75.58.75.85 0 .41-.5.72-1.13.72s-1.1-.26-1.1-.71c0-.23.18-.3.28-.3.14 0 .28.11.28.29 0 .11-.06.25-.24.28.21.23.66.25.76.25.37 0 .63-.19.63-.53 0-.28-.2-.74-.72-.77l-.29-.01q-.09.02-.1-.09 0-.1.13-.08z" fill="#fff"/><path d="M141.2 77.22v17.57h23.23V77.22Z" fill="#ffeaa1"/><path d="M141.2 77.22v17.57h23.23V77.22Z" stroke="#fff" fill="none" stroke-width=".6" stroke-miterlimit="10" stroke-linecap="round" stroke-linejoin="round"/><path d="M149.58 86c0 .35 0 1.72-1.3 1.72s-1.3-1.37-1.3-1.73 0-1.7 1.3-1.7 1.3 1.34 1.3 1.7m-1.3-1.55c-.19 0-.6.07-.73.57q-.09.41-.07 1.03-.02.57.08 1c.12.42.5.5.72.5q.57 0 .73-.54c.07-.25.07-.66.07-.96 0-.34 0-.74-.07-1.04a.7.7 0 0 0-.73-.56" fill="#fff"/><path d="M151.42 84.7a.3.3 0 0 1-.3.3.3.3 0 0 1-.31-.3c0-.16.14-.3.3-.3.17 0 .3.14.3.3" fill="#fff"/><path d="M155.25 86c0 .35 0 1.72-1.3 1.72s-1.3-1.37-1.3-1.73 0-1.7 1.3-1.7 1.3 1.34 1.3 1.7m-1.3-1.55c-.19 0-.6.07-.73.57q-.1.41-.08 1.03-.02.57.08 1c.13.42.51.5.73.5q.57 0 .73-.54c.07-.25.07-.66.07-.96 0-.34 0-.74-.08-1.04a.7.7 0 0 0-.72-.56m4.15 1.53a2 2 0 0 0-.18-.98 1 1 0 0 0-.87-.5c-.05 0-.36 0-.52.11q.19.06.2.26c0 .16-.13.27-.27.27a.26.26 0 0 1-.26-.28c0-.57.73-.57.86-.57.84 0 1.57.71 1.57 1.74 0 1.2-.59 1.69-1.27 1.69-.5 0-.75-.18-.94-.35a1 1 0 0 1-.38-.78c0-.28.09-.54.36-.77.23-.21.46-.34.88-.34.2 0 .57.07.82.5m-.8-.33c-.2 0-.4.03-.58.26-.15.18-.15.39-.15.68 0 .36.01.5.2.7.08.1.23.24.59.24.73 0 .73-.82.73-1.04 0-.41-.3-.84-.8-.84" fill="#fff"/><path d="M164.43 77.22v17.57h23.25V77.22Z" fill="#fff7bc"/><path d="M164.43 77.22v17.57h23.25V77.22Z" stroke="#fff" fill="none" stroke-width=".6" stroke-miterlimit="10" stroke-linecap="round" stroke-linejoin="round"/><path d="M172.82 86c0 .35 0 1.72-1.3 1.72s-1.3-1.37-1.3-1.73 0-1.7 1.3-1.7 1.3 1.34 1.3 1.7m-1.3-1.55c-.18 0-.6.07-.72.57q-.1.41-.08 1.03-.02.57.08 1c.12.42.5.5.72.5q.57 0 .74-.54c.06-.25.06-.66.06-.96 0-.34 0-.74-.07-1.04a.7.7 0 0 0-.73-.56" fill="#fff"/><path d="M174.66 84.7a.3.3 0 0 1-.3.3.3.3 0 0 1-.3-.3c0-.16.13-.3.3-.3s.3.14.3.3" fill="#fff"/><path d="M178.5 86c0 .35 0 1.72-1.3 1.72-1.31 0-1.31-1.37-1.31-1.73s0-1.7 1.3-1.7 1.3 1.34 1.3 1.7m-1.3-1.55c-.2 0-.61.07-.74.57q-.09.41-.07 1.03-.02.57.08 1c.12.42.5.5.72.5q.57 0 .73-.54c.07-.25.07-.66.07-.96 0-.34 0-.74-.07-1.04a.7.7 0 0 0-.73-.56m2.61 1.58c0 .23.01.63.2.95.14.27.46.55.93.55.09 0 .31-.01.46-.13a.3.3 0 0 1-.2-.27q.02-.25.26-.26c.08 0 .26.04.26.28 0 .27-.19.57-.79.57-.86 0-1.64-.7-1.64-1.74 0-1.19.58-1.7 1.3-1.7.5 0 .73.2.9.33a1 1 0 0 1 .39.81q.02.44-.36.78c-.22.2-.45.33-.88.33a1 1 0 0 1-.83-.5m.79-1.54c-.77 0-.77.83-.77 1.04 0 .38.27.83.8.83.25 0 .4-.06.56-.26.15-.19.16-.4.16-.67 0-.3 0-.48-.16-.68-.14-.17-.31-.26-.6-.26" fill="#fff"/><path d="M48.21 59.64v17.58h23.25V59.64Z" fill="#ffe698"/><path d="M48.21 59.64v17.58h23.25V59.64Z" stroke="#fff" fill="none" stroke-width=".6" stroke-miterlimit="10" stroke-linecap="round" stroke-linejoin="round"/><path d="M56.6 68.42c0 .36 0 1.72-1.3 1.72S54 68.78 54 68.42c0-.37 0-1.7 1.3-1.7s1.3 1.33 1.3 1.7m-1.3-1.54c-.18 0-.6.06-.73.57q-.09.41-.07 1.03-.02.56.08 1c.12.41.5.5.72.5q.57-.02.73-.54c.07-.25.07-.67.07-.96 0-.34 0-.74-.07-1.04a.7.7 0 0 0-.73-.56" fill="#fff"/><path d="M58.44 67.13a.3.3 0 0 1-.3.3.3.3 0 0 1-.3-.3c0-.17.13-.3.3-.3s.3.13.3.3" fill="#fff"/><path d="M61.26 70c0 .14-.02.14-.18.14-.36-.32-.9-.32-1-.32h-.1v-.22h.1c.1 0 .43.02.72.14v-2.49c0-.15 0-.2-.53-.2h-.25v-.23c.28.02.72.02 1 .02s.74 0 1.01-.02v.22h-.24c-.53 0-.53.06-.53.21zm4.4-1.58c0 .36 0 1.72-1.3 1.72s-1.3-1.36-1.3-1.72c0-.37 0-1.7 1.3-1.7s1.3 1.33 1.3 1.7m-1.3-1.54c-.19 0-.6.06-.73.57q-.09.41-.07 1.03-.02.56.08 1c.12.41.5.5.72.5q.57-.02.73-.54c.07-.25.07-.67.07-.96 0-.34 0-.74-.07-1.04a.7.7 0 0 0-.73-.56" fill="#fff"/><path d="M71.46 59.64v17.58H94.7V59.64Z" fill="#fed16a"/><path d="M71.46 59.64v17.58H94.7V59.64Z" stroke="#fff" fill="none" stroke-width=".6" stroke-miterlimit="10" stroke-linecap="round" stroke-linejoin="round"/><path d="M79.85 68.42c0 .36 0 1.72-1.3 1.72s-1.3-1.36-1.3-1.72c0-.37 0-1.7 1.3-1.7s1.3 1.33 1.3 1.7m-1.3-1.54c-.19 0-.6.06-.73.57q-.1.41-.08 1.03-.02.56.08 1c.13.41.51.5.73.5q.56-.02.73-.54c.07-.25.07-.67.07-.96 0-.34 0-.74-.08-1.04a.7.7 0 0 0-.72-.56" fill="#fff"/><path d="M81.68 67.13a.3.3 0 0 1-.3.3.3.3 0 0 1-.3-.3c0-.17.14-.3.3-.3s.3.13.3.3" fill="#fff"/><path d="M84.5 70c0 .14-.01.14-.18.14-.35-.32-.9-.32-1-.32h-.09v-.22h.09c.11 0 .44.02.72.14v-2.49c0-.15 0-.2-.52-.2h-.25v-.23c.27.02.71.02 1 .02s.74 0 1.01-.02v.22h-.25c-.53 0-.53.06-.53.21zm2.39-.43c.26-.07.48-.07.54-.07.34 0 .59.1.72.17.12.06.46.28.46.39 0 .07-.06.08-.07.08l-.08-.02a2.5 2.5 0 0 0-1.65 0l-.07.02q-.09-.01-.07-.14v-1.5c0-.08 0-.14.1-.14.05 0 .05 0 .1.06a1 1 0 0 0 .79.33.6.6 0 0 0 .52-.27q.15-.27.14-.63c0-.21-.02-.5-.22-.69a1 1 0 0 0-.62-.24c-.32 0-.68.14-.84.43.21.02.28.17.28.28 0 .16-.12.28-.28.28-.1 0-.28-.06-.28-.3 0-.48.48-.9 1.13-.9.75 0 1.35.5 1.35 1.12 0 .56-.48 1.09-1.17 1.09q-.47 0-.78-.25z" fill="#fff"/><path d="M94.7 59.64v17.58h23.25V59.64Z" fill="#f8b344"/><path d="M94.7 59.64v17.58h23.25V59.64Z" stroke="#fff" fill="none" stroke-width=".6" stroke-miterlimit="10" stroke-linecap="round" stroke-linejoin="round"/><path d="M103.09 68.42c0 .36 0 1.72-1.3 1.72s-1.3-1.36-1.3-1.72c0-.37 0-1.7 1.3-1.7s1.3 1.33 1.3 1.7m-1.3-1.54c-.18 0-.6.06-.73.57q-.09.41-.07 1.03-.02.56.08 1c.12.41.5.5.72.5q.57-.02.73-.54c.07-.25.07-.67.07-.96 0-.34 0-.74-.07-1.04a.7.7 0 0 0-.73-.56" fill="#fff"/><path d="M104.93 67.13a.3.3 0 0 1-.3.3.3.3 0 0 1-.31-.3c0-.17.14-.3.3-.3.17 0 .3.13.3.3" fill="#fff"/><path d="M108.7 67.79h-.21c-.02-.1-.07-.4-.15-.46-.04-.03-.45-.03-.53-.03h-.97c.32.25.7.53 1 .72.44.31.86.6.86 1.13 0 .64-.6 1-1.32 1-.67 0-1.16-.4-1.16-.88 0-.26.22-.3.29-.3.13 0 .29.08.29.29 0 .17-.13.27-.28.29.14.22.42.37.76.37.48 0 .89-.29.89-.77 0-.42-.3-.74-.68-1.07l-1.21-1.03q-.07-.04-.06-.08v-.15h2.31zm3.45.63c0 .36 0 1.72-1.3 1.72s-1.3-1.36-1.3-1.72c0-.37 0-1.7 1.3-1.7s1.3 1.33 1.3 1.7m-1.3-1.54c-.19 0-.6.06-.73.57q-.09.41-.07 1.03-.02.56.08 1c.12.41.5.5.72.5q.57-.02.73-.54c.07-.25.07-.67.07-.96 0-.34 0-.74-.07-1.04a.7.7 0 0 0-.73-.56" fill="#fff"/><path d="M117.95 59.64v17.58h23.24V59.64Z" fill="#f8b344"/><path d="M117.95 59.64v17.58h23.24V59.64Z" stroke="#fff" fill="none" stroke-width=".6" stroke-miterlimit="10" stroke-linecap="round" stroke-linejoin="round"/><path d="M126.33 68.42c0 .36 0 1.72-1.3 1.72s-1.3-1.36-1.3-1.72c0-.37 0-1.7 1.3-1.7s1.3 1.33 1.3 1.7m-1.3-1.54c-.18 0-.6.06-.72.57q-.1.41-.08 1.03-.02.56.08 1c.13.41.51.5.72.5q.57-.02.74-.54c.07-.25.07-.67.07-.96 0-.34 0-.74-.08-1.04a.7.7 0 0 0-.73-.56" fill="#fff"/><path d="M128.17 67.13a.3.3 0 0 1-.3.3.3.3 0 0 1-.3-.3c0-.17.13-.3.3-.3s.3.13.3.3" fill="#fff"/><path d="M131.94 67.79h-.2c-.02-.1-.07-.4-.15-.46-.04-.03-.46-.03-.53-.03h-.98c.33.25.7.53 1 .72.44.31.86.6.86 1.13 0 .64-.6 1-1.31 1-.68 0-1.17-.4-1.17-.88 0-.26.22-.3.29-.3.13 0 .3.08.3.29 0 .17-.14.27-.29.29a.9.9 0 0 0 .76.37c.49 0 .89-.29.89-.77 0-.42-.29-.74-.67-1.07l-1.22-1.03q-.06-.04-.06-.08v-.15h2.32zm3.45.63c0 .36 0 1.72-1.3 1.72s-1.3-1.36-1.3-1.72c0-.37 0-1.7 1.3-1.7s1.3 1.33 1.3 1.7m-1.3-1.54c-.18 0-.6.06-.73.57q-.08.41-.07 1.03-.02.56.08 1c.12.41.5.5.72.5q.57-.02.73-.54c.07-.25.07-.67.07-.96 0-.34 0-.74-.07-1.04a.7.7 0 0 0-.73-.56" fill="#fff"/><path d="M141.2 59.64v17.58h23.23V59.64Z" fill="#fec44f"/><path d="M141.2 59.64v17.58h23.23V59.64Z" stroke="#fff" fill="none" stroke-width=".6" stroke-miterlimit="10" stroke-linecap="round" stroke-linejoin="round"/><path d="M149.58 68.42c0 .36 0 1.72-1.3 1.72s-1.3-1.36-1.3-1.72c0-.37 0-1.7 1.3-1.7s1.3 1.33 1.3 1.7m-1.3-1.54c-.19 0-.6.06-.73.57q-.09.41-.07 1.03-.02.56.08 1c.12.41.5.5.72.5q.57-.02.73-.54c.07-.25.07-.67.07-.96 0-.34 0-.74-.07-1.04a.7.7 0 0 0-.73-.56" fill="#fff"/><path d="M151.42 67.13a.3.3 0 0 1-.3.3.3.3 0 0 1-.31-.3c0-.17.14-.3.3-.3.17 0 .3.13.3.3" fill="#fff"/><path d="M154.24 70c0 .14-.02.14-.18.14-.36-.32-.91-.32-1.01-.32h-.08v-.22h.08c.11 0 .44.02.73.14v-2.49c0-.15 0-.2-.53-.2H153v-.23c.27.02.72.02 1 .02s.74 0 1.01-.02v.22h-.25c-.52 0-.52.06-.52.21zm3.54-1.38c.51.22.68.48.68.76 0 .52-.57.76-1.12.76-.62 0-1.12-.35-1.12-.84 0-.46.39-.67.65-.8q-.81-.3-.83-.9c0-.6.66-.89 1.3-.89.69 0 1.3.38 1.3.97 0 .54-.53.8-.86.94m-.98.51c-.21.11-.27.24-.27.36 0 .32.4.46.8.46s.82-.2.82-.57c0-.44-.57-.64-.57-.64l-.06.02zm.28-.74.78-.4c.17-.09.43-.22.43-.5 0-.4-.5-.57-.95-.57s-.95.22-.95.68c0 .49.53.72.7.79" fill="#fff"/><path d="M164.43 59.64v17.58h23.25V59.64Z" fill="#fec858"/><path d="M164.43 59.64v17.58h23.25V59.64Z" stroke="#fff" fill="none" stroke-width=".6" stroke-miterlimit="10" stroke-linecap="round" stroke-linejoin="round"/><path d="M172.82 68.42c0 .36 0 1.72-1.3 1.72s-1.3-1.36-1.3-1.72c0-.37 0-1.7 1.3-1.7s1.3 1.33 1.3 1.7m-1.3-1.54c-.18 0-.6.06-.72.57q-.1.41-.08 1.03-.02.56.08 1c.12.41.5.5.72.5q.57-.02.74-.54c.06-.25.06-.67.06-.96 0-.34 0-.74-.07-1.04a.7.7 0 0 0-.73-.56" fill="#fff"/><path d="M174.66 67.13a.3.3 0 0 1-.3.3.3.3 0 0 1-.3-.3c0-.17.13-.3.3-.3s.3.13.3.3" fill="#fff"/><path d="M177.48 70c0 .14-.02.14-.18.14-.35-.32-.9-.32-1-.32h-.1v-.22h.1c.1 0 .43.02.72.14v-2.49c0-.15 0-.2-.53-.2h-.25v-.23c.28.02.72.02 1.01.02s.73 0 1-.02v.22h-.24c-.53 0-.53.06-.53.21zm4.52-.19q.06.06.05.08v.14h-1.2c-.13 0-.86.02-.95.04-.12.02-.12.07-.13.12h-.21l-.19-1.12h.21c.01.08.06.4.15.45.03.03.5.03.57.03h1.19c-.21-.24-.48-.5-.67-.75a3 3 0 0 1-.67-1.78c0-.28.17-.3.26-.3.27 0 .27.25.27.3v.1c0 .9.19 1.44.48 1.77z" fill="#fff"/><path d="M48.21 42.07v17.57h23.25V42.07Z" fill="#ffeaa1"/><path d="M48.21 42.07v17.57h23.25V42.07Z" stroke="#fff" fill="none" stroke-width=".6" stroke-miterlimit="10" stroke-linecap="round" stroke-linejoin="round"/><path d="M56.6 50.84c0 .36 0 1.73-1.3 1.73S54 51.2 54 50.84s0-1.7 1.3-1.7 1.3 1.34 1.3 1.7m-1.3-1.54c-.18 0-.6.07-.73.57q-.09.42-.07 1.03-.02.57.08 1c.12.42.5.5.72.5q.57-.01.73-.53c.07-.26.07-.67.07-.97 0-.33 0-.74-.07-1.04a.7.7 0 0 0-.73-.56" fill="#fff"/><path d="M58.44 49.55a.3.3 0 0 1-.3.3.3.3 0 0 1-.3-.3c0-.16.13-.3.3-.3s.3.14.3.3" fill="#fff"/><path d="M62.27 50.84c0 .36 0 1.73-1.3 1.73s-1.3-1.37-1.3-1.73 0-1.7 1.3-1.7 1.3 1.34 1.3 1.7m-1.3-1.54c-.19 0-.6.07-.73.57q-.09.42-.07 1.03-.02.57.08 1c.12.42.5.5.72.5q.57-.01.73-.53c.07-.26.07-.67.07-.97 0-.33 0-.74-.07-1.04a.7.7 0 0 0-.73-.56m4.16 1.53a2 2 0 0 0-.2-.98 1 1 0 0 0-.85-.5c-.06 0-.36 0-.53.11q.19.06.2.26c0 .16-.12.27-.27.27a.26.26 0 0 1-.26-.28c0-.57.73-.57.87-.57.83 0 1.56.71 1.56 1.74 0 1.21-.58 1.69-1.27 1.69-.5 0-.74-.18-.94-.35a1 1 0 0 1-.38-.78c0-.28.09-.54.36-.77.23-.2.46-.34.88-.34.2 0 .57.07.83.5m-.82-.33c-.2 0-.38.04-.56.26-.15.18-.16.39-.16.68 0 .36.02.51.2.71.08.08.23.23.59.23.73 0 .73-.82.73-1.04 0-.41-.3-.84-.8-.84" fill="#fff"/><path d="M71.46 42.07v17.57H94.7V42.07Z" fill="#fed573"/><path d="M71.46 42.07v17.57H94.7V42.07Z" stroke="#fff" fill="none" stroke-width=".6" stroke-miterlimit="10" stroke-linecap="round" stroke-linejoin="round"/><path d="M79.85 50.84c0 .36 0 1.73-1.3 1.73s-1.3-1.37-1.3-1.73 0-1.7 1.3-1.7 1.3 1.34 1.3 1.7m-1.3-1.54c-.19 0-.6.07-.73.57q-.1.42-.08 1.03-.02.57.08 1c.13.42.51.5.73.5q.56-.01.73-.53c.07-.26.07-.67.07-.97 0-.33 0-.74-.08-1.04a.7.7 0 0 0-.72-.56" fill="#fff"/><path d="M81.68 49.55a.3.3 0 0 1-.3.3.3.3 0 0 1-.3-.3c0-.16.14-.3.3-.3s.3.14.3.3" fill="#fff"/><path d="M84.5 52.42c0 .15-.01.15-.18.15-.35-.32-.9-.32-1-.32h-.09v-.22h.09c.11 0 .44.02.72.14v-2.5c0-.15 0-.2-.52-.2h-.25v-.22c.27.02.71.02 1 .02s.74 0 1.01-.02v.22h-.25c-.53 0-.53.05-.53.2zm4.48-2.36v.22h-.62v2.2c0 .11 0 .14-.13.14-.1 0-.1 0-.16-.07l-1.85-2.27v-.22h1.66v-.39c0-.15 0-.2-.43-.2h-.17v-.22a21 21 0 0 0 1.69 0v.22h-.18c-.43 0-.43.05-.43.2v.4zm-1.06 2.02v-1.8h-1.46z" fill="#fff"/><path d="M94.7 42.07v17.57h23.25V42.07Z" fill="#f2a239"/><path d="M94.7 42.07v17.57h23.25V42.07Z" stroke="#fff" fill="none" stroke-width=".6" stroke-miterlimit="10" stroke-linecap="round" stroke-linejoin="round"/><path d="M103.09 50.84c0 .36 0 1.73-1.3 1.73s-1.3-1.37-1.3-1.73 0-1.7 1.3-1.7 1.3 1.34 1.3 1.7m-1.3-1.54c-.18 0-.6.07-.73.57q-.09.42-.07 1.03-.02.57.08 1c.12.42.5.5.72.5q.57-.01.73-.53c.07-.26.07-.67.07-.97 0-.33 0-.74-.07-1.04a.7.7 0 0 0-.73-.56" fill="#fff"/><path d="M104.93 49.55a.3.3 0 0 1-.3.3.3.3 0 0 1-.31-.3c0-.16.14-.3.3-.3.17 0 .3.14.3.3" fill="#fff"/><path d="M108.7 50.21h-.21c-.02-.1-.07-.4-.15-.45-.04-.03-.45-.03-.53-.03h-.97c.32.24.7.52 1 .72.44.31.86.6.86 1.13 0 .63-.6.99-1.32.99-.67 0-1.16-.4-1.16-.88 0-.26.22-.3.29-.3.13 0 .29.09.29.3 0 .17-.13.27-.28.29q.23.35.76.37c.48 0 .89-.29.89-.78 0-.42-.3-.74-.68-1.06l-1.21-1.03q-.07-.05-.06-.08v-.15h2.31zm3.39 0h-.21c-.02-.1-.07-.4-.15-.45-.03-.03-.45-.03-.53-.03h-.97c.32.24.7.52 1 .72.44.31.86.6.86 1.13 0 .63-.6.99-1.32.99-.67 0-1.16-.4-1.16-.88 0-.26.22-.3.29-.3.13 0 .3.09.3.3 0 .17-.14.27-.3.29q.24.35.77.37c.48 0 .89-.29.89-.78 0-.42-.3-.74-.68-1.06l-1.21-1.03q-.07-.05-.06-.08v-.15h2.31z" fill="#fff"/><path d="M117.95 42.07v17.57h23.24V42.07Z" fill="#f2a239"/><path d="M117.95 42.07v17.57h23.24V42.07Z" stroke="#fff" fill="none" stroke-width=".6" stroke-miterlimit="10" stroke-linecap="round" stroke-linejoin="round"/><path d="M126.33 50.84c0 .36 0 1.73-1.3 1.73s-1.3-1.37-1.3-1.73 0-1.7 1.3-1.7 1.3 1.34 1.3 1.7m-1.3-1.54c-.18 0-.6.07-.72.57q-.1.42-.08 1.03-.02.57.08 1c.13.42.51.5.72.5q.57-.01.74-.53c.07-.26.07-.67.07-.97 0-.33 0-.74-.08-1.04a.7.7 0 0 0-.73-.56" fill="#fff"/><path d="M128.17 49.55a.3.3 0 0 1-.3.3.3.3 0 0 1-.3-.3c0-.16.13-.3.3-.3s.3.14.3.3" fill="#fff"/><path d="M131.94 50.21h-.2c-.02-.1-.07-.4-.15-.45-.04-.03-.46-.03-.53-.03h-.98c.33.24.7.52 1 .72.44.31.86.6.86 1.13 0 .63-.6.99-1.31.99-.68 0-1.17-.4-1.17-.88 0-.26.22-.3.29-.3.13 0 .3.09.3.3 0 .17-.14.27-.29.29a.9.9 0 0 0 .76.37c.49 0 .89-.29.89-.78 0-.42-.29-.74-.67-1.06l-1.22-1.03-.06-.08v-.15h2.32zm3.4 0h-.22c-.01-.1-.06-.4-.14-.45-.04-.03-.46-.03-.53-.03h-.98c.33.24.7.52 1 .72.44.31.86.6.86 1.13 0 .63-.6.99-1.31.99-.68 0-1.17-.4-1.17-.88 0-.26.22-.3.29-.3.14 0 .3.09.3.3 0 .17-.13.27-.29.29a.9.9 0 0 0 .76.37c.49 0 .89-.29.89-.78 0-.42-.29-.74-.67-1.06l-1.22-1.03-.06-.08v-.15h2.32z" fill="#fff"/><path d="M141.2 42.07v17.57h23.23V42.07Z" fill="#fec44f"/><path d="M141.2 42.07v17.57h23.23V42.07Z" stroke="#fff" fill="none" stroke-width=".6" stroke-miterlimit="10" stroke-linecap="round" stroke-linejoin="round"/><path d="M149.58 50.84c0 .36 0 1.73-1.3 1.73s-1.3-1.37-1.3-1.73 0-1.7 1.3-1.7 1.3 1.34 1.3 1.7m-1.3-1.54c-.19 0-.6.07-.73.57q-.09.42-.07 1.03-.02.57.08 1c.12.42.5.5.72.5q.57-.01.73-.53c.07-.26.07-.67.07-.97 0-.33 0-.74-.07-1.04a.7.7 0 0 0-.73-.56" fill="#fff"/><path d="M151.42 49.55a.3.3 0 0 1-.3.3.3.3 0 0 1-.31-.3c0-.16.14-.3.3-.3.17 0 .3.14.3.3" fill="#fff"/><path d="M154.24 52.42c0 .15-.02.15-.18.15-.36-.32-.91-.32-1.01-.32h-.08v-.22h.08c.11 0 .44.02.73.14v-2.5c0-.15 0-.2-.53-.2H153v-.22c.27.02.72.02 1 .02s.74 0 1.01-.02v.22h-.25c-.52 0-.52.05-.52.2zm3.54-1.37c.51.21.68.48.68.76 0 .52-.57.76-1.12.76-.62 0-1.12-.35-1.12-.85 0-.46.39-.66.65-.8q-.81-.3-.83-.9c0-.6.66-.88 1.3-.88.69 0 1.3.37 1.3.96 0 .55-.53.8-.86.95m-.98.5c-.21.12-.27.25-.27.37 0 .31.4.46.8.46s.82-.2.82-.57c0-.44-.57-.65-.57-.65l-.06.03zm.28-.74.78-.39c.17-.1.43-.23.43-.5 0-.4-.5-.58-.95-.58s-.95.23-.95.68c0 .5.53.72.7.8" fill="#fff"/><path d="M164.43 42.07v17.57h23.25V42.07Z" fill="#fed16a"/><path d="M164.43 42.07v17.57h23.25V42.07Z" stroke="#fff" fill="none" stroke-width=".6" stroke-miterlimit="10" stroke-linecap="round" stroke-linejoin="round"/><path d="M172.82 50.84c0 .36 0 1.73-1.3 1.73s-1.3-1.37-1.3-1.73 0-1.7 1.3-1.7 1.3 1.34 1.3 1.7m-1.3-1.54c-.18 0-.6.07-.72.57q-.1.42-.08 1.03-.02.57.08 1c.12.42.5.5.72.5q.57-.01.74-.53c.06-.26.06-.67.06-.97 0-.33 0-.74-.07-1.04a.7.7 0 0 0-.73-.56" fill="#fff"/><path d="M174.66 49.55a.3.3 0 0 1-.3.3.3.3 0 0 1-.3-.3c0-.16.13-.3.3-.3s.3.14.3.3" fill="#fff"/><path d="M177.48 52.42c0 .15-.02.15-.18.15-.35-.32-.9-.32-1-.32h-.1v-.22h.1c.1 0 .43.02.72.14v-2.5c0-.15 0-.2-.53-.2h-.25v-.22c.28.02.72.02 1.01.02s.73 0 1-.02v.22h-.24c-.53 0-.53.05-.53.2zm2.38-.42c.27-.07.5-.07.55-.07.34 0 .58.1.71.17.12.06.46.27.46.38q-.02.1-.07.09l-.07-.03a2.5 2.5 0 0 0-1.65 0l-.08.03q-.09-.01-.07-.14v-1.5c0-.08 0-.15.1-.15q.06-.01.1.07a1 1 0 0 0 .8.33.6.6 0 0 0 .51-.28c.12-.17.14-.39.14-.63 0-.2-.02-.49-.21-.68a1 1 0 0 0-.62-.25c-.32 0-.69.14-.84.44.2.01.28.16.28.28 0 .16-.12.28-.28.28-.11 0-.28-.07-.28-.3 0-.49.48-.9 1.13-.9.74 0 1.35.5 1.35 1.12 0 .56-.48 1.08-1.17 1.08q-.47 0-.79-.24z" fill="#fff"/><path d="M48.21 24.5v17.57h23.25V24.49Z" fill="#fea"/><path d="M48.21 24.5v17.57h23.25V24.49Z" stroke="#fff" fill="none" stroke-width=".6" stroke-miterlimit="10" stroke-linecap="round" stroke-linejoin="round"/><path d="M56.6 33.27c0 .36 0 1.72-1.3 1.72S54 33.63 54 33.27s0-1.7 1.3-1.7 1.3 1.34 1.3 1.7m-1.3-1.54c-.18 0-.6.06-.73.57q-.09.41-.07 1.03-.02.56.08 1c.12.41.5.5.72.5q.57-.02.73-.54c.07-.25.07-.67.07-.96 0-.34 0-.74-.07-1.04a.7.7 0 0 0-.73-.56" fill="#fff"/><path d="M58.44 31.98a.3.3 0 0 1-.3.3.3.3 0 0 1-.3-.3c0-.17.13-.3.3-.3s.3.13.3.3" fill="#fff"/><path d="M62.27 33.27c0 .36 0 1.72-1.3 1.72s-1.3-1.36-1.3-1.72 0-1.7 1.3-1.7 1.3 1.34 1.3 1.7m-1.3-1.54c-.19 0-.6.06-.73.57q-.09.41-.07 1.03-.02.56.08 1c.12.41.5.5.72.5q.57-.02.73-.54c.07-.25.07-.67.07-.96 0-.34 0-.74-.07-1.04a.7.7 0 0 0-.73-.56m3.83 1.74c.52.22.68.48.68.77 0 .51-.57.75-1.12.75-.61 0-1.12-.35-1.12-.84 0-.46.4-.67.65-.8q-.81-.3-.83-.9c0-.6.67-.88 1.3-.88.7 0 1.3.37 1.3.96 0 .54-.52.8-.86.94m-.97.51c-.22.11-.28.24-.28.36 0 .32.4.46.8.46s.82-.2.82-.57c0-.44-.57-.64-.57-.64l-.06.02zm.27-.74.78-.4c.18-.09.43-.22.43-.5 0-.4-.5-.57-.95-.57s-.95.22-.95.68c0 .49.54.72.7.79" fill="#fff"/><path d="M71.46 24.5v17.57H94.7V24.49Z" fill="#ffe698"/><path d="M71.46 24.5v17.57H94.7V24.49Z" stroke="#fff" fill="none" stroke-width=".6" stroke-miterlimit="10" stroke-linecap="round" stroke-linejoin="round"/><path d="M79.85 33.27c0 .36 0 1.72-1.3 1.72s-1.3-1.36-1.3-1.72 0-1.7 1.3-1.7 1.3 1.34 1.3 1.7m-1.3-1.54c-.19 0-.6.06-.73.57q-.1.41-.08 1.03-.02.56.08 1c.13.41.51.5.73.5q.56-.02.73-.54c.07-.25.07-.67.07-.96 0-.34 0-.74-.08-1.04a.7.7 0 0 0-.72-.56" fill="#fff"/><path d="M81.68 31.98a.3.3 0 0 1-.3.3.3.3 0 0 1-.3-.3c0-.17.14-.3.3-.3s.3.13.3.3" fill="#fff"/><path d="M84.5 34.84c0 .15-.01.15-.18.15-.35-.32-.9-.32-1-.32h-.09v-.21h.09c.11 0 .44.01.72.13V32.1c0-.15 0-.2-.52-.2h-.25v-.22c.27.02.71.02 1 .02s.74 0 1.01-.02v.21h-.25c-.53 0-.53.06-.53.21zm4.4-1.57c0 .36 0 1.72-1.3 1.72s-1.3-1.36-1.3-1.72 0-1.7 1.3-1.7 1.3 1.34 1.3 1.7m-1.3-1.54c-.18 0-.6.06-.72.57q-.1.41-.08 1.03-.02.56.08 1c.13.41.51.5.72.5q.57-.02.74-.54c.07-.25.07-.67.07-.96 0-.34 0-.74-.08-1.04a.7.7 0 0 0-.73-.56" fill="#fff"/><path d="M94.7 24.5v17.57h23.25V24.49Z" fill="#fed573"/><path d="M94.7 24.5v17.57h23.25V24.49Z" stroke="#fff" fill="none" stroke-width=".6" stroke-miterlimit="10" stroke-linecap="round" stroke-linejoin="round"/><path d="M103.09 33.27c0 .36 0 1.72-1.3 1.72s-1.3-1.36-1.3-1.72 0-1.7 1.3-1.7 1.3 1.34 1.3 1.7m-1.3-1.54c-.18 0-.6.06-.73.57q-.09.41-.07 1.03-.02.56.08 1c.12.41.5.5.72.5q.57-.02.73-.54c.07-.25.07-.67.07-.96 0-.34 0-.74-.07-1.04a.7.7 0 0 0-.73-.56" fill="#fff"/><path d="M104.93 31.98a.3.3 0 0 1-.3.3.3.3 0 0 1-.31-.3c0-.17.14-.3.3-.3.17 0 .3.13.3.3" fill="#fff"/><path d="M107.75 34.84c0 .15-.02.15-.18.15-.36-.32-.9-.32-1-.32h-.1v-.21h.1c.1 0 .43.01.72.13V32.1c0-.15 0-.2-.53-.2h-.25v-.22c.28.02.72.02 1 .02.3 0 .74 0 1.01-.02v.21h-.25c-.52 0-.52.06-.52.21zm4.48-2.35v.22h-.62v2.19c0 .12 0 .15-.14.15-.1 0-.1 0-.16-.08l-1.84-2.26v-.22h1.66v-.4c0-.15 0-.2-.44-.2h-.17v-.21a21 21 0 0 0 1.7 0v.21h-.18c-.43 0-.43.05-.43.2v.4zm-1.06 2.02v-1.8h-1.47z" fill="#fff"/><path d="M117.95 24.5v17.57h23.24V24.49Z" fill="#fec44f"/><path d="M117.95 24.5v17.57h23.24V24.49Z" stroke="#fff" fill="none" stroke-width=".6" stroke-miterlimit="10" stroke-linecap="round" stroke-linejoin="round"/><path d="M126.33 33.27c0 .36 0 1.72-1.3 1.72s-1.3-1.36-1.3-1.72 0-1.7 1.3-1.7 1.3 1.34 1.3 1.7m-1.3-1.54c-.18 0-.6.06-.72.57q-.1.41-.08 1.03-.02.56.08 1c.13.41.51.5.72.5q.57-.02.74-.54c.07-.25.07-.67.07-.96 0-.34 0-.74-.08-1.04a.7.7 0 0 0-.73-.56" fill="#fff"/><path d="M128.17 31.98a.3.3 0 0 1-.3.3.3.3 0 0 1-.3-.3c0-.17.13-.3.3-.3s.3.13.3.3" fill="#fff"/><path d="M131 34.84c0 .15-.02.15-.19.15-.35-.32-.9-.32-1-.32h-.09v-.21h.09a2 2 0 0 1 .72.13V32.1c0-.15 0-.2-.53-.2h-.24v-.22c.27.02.71.02 1 .02s.73 0 1-.02v.21h-.24c-.53 0-.53.06-.53.21zm3.54-1.37c.5.22.67.48.67.77 0 .51-.57.75-1.11.75-.62 0-1.13-.35-1.13-.84 0-.46.4-.67.65-.8q-.8-.3-.82-.9c0-.6.66-.88 1.29-.88.7 0 1.3.37 1.3.96 0 .54-.52.8-.85.94m-.98.51c-.22.11-.28.24-.28.36 0 .32.4.46.8.46s.82-.2.82-.57c0-.44-.56-.64-.57-.64l-.05.02zm.28-.74.77-.4c.18-.09.43-.22.43-.5 0-.4-.5-.57-.94-.57-.46 0-.96.22-.96.68 0 .49.54.72.7.79" fill="#fff"/><path d="M141.2 24.5v17.57h23.23V24.49Z" fill="#e58124"/><path d="M141.2 24.5v17.57h23.23V24.49Z" stroke="#fff" fill="none" stroke-width=".6" stroke-miterlimit="10" stroke-linecap="round" stroke-linejoin="round"/><path d="M149.58 33.27c0 .36 0 1.72-1.3 1.72s-1.3-1.36-1.3-1.72 0-1.7 1.3-1.7 1.3 1.34 1.3 1.7m-1.3-1.54c-.19 0-.6.06-.73.57q-.09.41-.07 1.03-.02.56.08 1c.12.41.5.5.72.5q.57-.02.73-.54c.07-.25.07-.67.07-.96 0-.34 0-.74-.07-1.04a.7.7 0 0 0-.73-.56" fill="#333"/><path d="M151.42 31.98a.3.3 0 0 1-.3.3.3.3 0 0 1-.31-.3c0-.17.14-.3.3-.3.17 0 .3.13.3.3" fill="#333"/><path d="M155.19 32.64h-.21c-.02-.1-.07-.4-.15-.46-.04-.03-.45-.03-.53-.03h-.98c.33.25.7.53 1 .73.45.3.87.6.87 1.12 0 .64-.6 1-1.32 1-.67 0-1.16-.4-1.16-.88 0-.26.22-.3.29-.3.13 0 .29.08.29.29 0 .18-.13.28-.28.29.13.22.42.37.76.37.48 0 .88-.28.88-.77 0-.42-.28-.74-.67-1.06l-1.21-1.04q-.07-.04-.06-.08v-.14h2.31zm1.38.67a2 2 0 0 0 .19.95c.14.26.47.54.93.54.1 0 .32 0 .47-.13a.3.3 0 0 1-.21-.26c0-.16.12-.26.26-.26.09 0 .27.04.27.28 0 .26-.2.56-.8.56-.85 0-1.64-.7-1.64-1.73 0-1.2.58-1.7 1.31-1.7.5 0 .73.19.9.33.32.26.38.56.38.8q.01.45-.36.78c-.22.2-.44.34-.88.34a1 1 0 0 1-.82-.5m.78-1.54c-.77 0-.77.83-.77 1.04 0 .38.28.83.8.83.26 0 .42-.07.57-.27.15-.18.15-.39.15-.67s0-.48-.15-.68q-.2-.24-.6-.25" fill="#333"/><path d="M164.43 24.5v17.57h23.25V24.49Z" fill="#eb922e"/><path d="M164.43 24.5v17.57h23.25V24.49Z" stroke="#fff" fill="none" stroke-width=".6" stroke-miterlimit="10" stroke-linecap="round" stroke-linejoin="round"/><path d="M172.82 33.27c0 .36 0 1.72-1.3 1.72s-1.3-1.36-1.3-1.72 0-1.7 1.3-1.7 1.3 1.34 1.3 1.7m-1.3-1.54c-.18 0-.6.06-.72.57q-.1.41-.08 1.03-.02.56.08 1c.12.41.5.5.72.5q.57-.02.74-.54c.06-.25.06-.67.06-.96 0-.34 0-.74-.07-1.04a.7.7 0 0 0-.73-.56" fill="#fff"/><path d="M174.66 31.98a.3.3 0 0 1-.3.3.3.3 0 0 1-.3-.3c0-.17.13-.3.3-.3s.3.13.3.3" fill="#fff"/><path d="M178.43 32.64h-.2c-.02-.1-.07-.4-.15-.46-.04-.03-.46-.03-.54-.03h-.97c.33.25.7.53 1 .73.44.3.86.6.86 1.12 0 .64-.6 1-1.31 1-.68 0-1.17-.4-1.17-.88 0-.26.22-.3.29-.3.13 0 .3.08.3.29 0 .18-.14.28-.3.29.15.22.44.37.77.37.48 0 .89-.28.89-.77 0-.42-.3-.74-.67-1.06L176 31.9q-.06-.04-.06-.08v-.14h2.32zm3.53-.15v.22h-.62v2.19c0 .12 0 .15-.14.15-.1 0-.1 0-.16-.08l-1.84-2.26v-.22h1.66v-.4c0-.15 0-.2-.43-.2h-.18v-.21a21 21 0 0 0 1.7 0v.21h-.18c-.43 0-.43.05-.43.2v.4zm-1.06 2.02v-1.8h-1.46z" fill="#fff"/><path d="M48.21 6.92v17.57h23.25V6.92Z" fill="#fff3b3"/><path d="M48.21 6.92v17.57h23.25V6.92Z" stroke="#fff" fill="none" stroke-width=".6" stroke-miterlimit="10" stroke-linecap="round" stroke-linejoin="round"/><path d="M56.6 15.7c0 .35 0 1.72-1.3 1.72S54 16.05 54 15.69s0-1.7 1.3-1.7 1.3 1.34 1.3 1.7m-1.3-1.55c-.18 0-.6.07-.73.57q-.09.42-.07 1.03-.02.57.08 1c.12.42.5.5.72.5q.57-.01.73-.53c.07-.26.07-.67.07-.97 0-.33 0-.74-.07-1.04a.7.7 0 0 0-.73-.56" fill="#fff"/><path d="M58.44 14.4a.3.3 0 0 1-.3.3.3.3 0 0 1-.3-.3c0-.16.13-.3.3-.3s.3.14.3.3" fill="#fff"/><path d="M62.27 15.7c0 .35 0 1.72-1.3 1.72s-1.3-1.37-1.3-1.73 0-1.7 1.3-1.7 1.3 1.34 1.3 1.7m-1.3-1.55c-.19 0-.6.07-.73.57q-.09.42-.07 1.03-.02.57.08 1c.12.42.5.5.72.5q.57-.01.73-.53c.07-.26.07-.67.07-.97 0-.33 0-.74-.07-1.04a.7.7 0 0 0-.73-.56m4.8 2.94q.06.05.06.08v.14h-1.2l-.95.03c-.12.03-.12.08-.13.13h-.21l-.2-1.12h.22c0 .07.06.4.15.45.03.03.5.03.57.03h1.19c-.21-.24-.48-.51-.68-.76a3 3 0 0 1-.66-1.78c0-.27.17-.3.26-.3.26 0 .26.25.26.31v.1c0 .9.2 1.44.5 1.77z" fill="#fff"/><path d="M71.46 6.92v17.57H94.7V6.92Z" fill="#ffeaa1"/><path d="M71.46 6.92v17.57H94.7V6.92Z" stroke="#fff" fill="none" stroke-width=".6" stroke-miterlimit="10" stroke-linecap="round" stroke-linejoin="round"/><path d="M79.85 15.7c0 .35 0 1.72-1.3 1.72s-1.3-1.37-1.3-1.73 0-1.7 1.3-1.7 1.3 1.34 1.3 1.7m-1.3-1.55c-.19 0-.6.07-.73.57q-.1.42-.08 1.03-.02.57.08 1c.13.42.51.5.73.5q.56-.01.73-.53c.07-.26.07-.67.07-.97 0-.33 0-.74-.08-1.04a.7.7 0 0 0-.72-.56" fill="#fff"/><path d="M81.68 14.4a.3.3 0 0 1-.3.3.3.3 0 0 1-.3-.3c0-.16.14-.3.3-.3s.3.14.3.3" fill="#fff"/><path d="M85.51 15.7c0 .35 0 1.72-1.3 1.72s-1.3-1.37-1.3-1.73 0-1.7 1.3-1.7 1.3 1.34 1.3 1.7m-1.3-1.55c-.18 0-.6.07-.72.57q-.1.42-.08 1.03-.02.57.08 1c.13.42.51.5.72.5q.57-.01.74-.53c.07-.26.07-.67.07-.97 0-.33 0-.74-.08-1.04a.7.7 0 0 0-.73-.56m4.16 1.53a2 2 0 0 0-.19-.98 1 1 0 0 0-.86-.5c-.05 0-.36 0-.53.11q.2.06.2.26c0 .16-.12.27-.26.27-.09 0-.27-.05-.27-.28 0-.57.74-.57.87-.57.84 0 1.57.71 1.57 1.74 0 1.21-.59 1.69-1.28 1.69-.5 0-.74-.18-.94-.35a1 1 0 0 1-.37-.78c0-.28.08-.54.35-.77.24-.2.47-.34.89-.34.2 0 .56.07.82.5m-.81-.33c-.2 0-.39.04-.57.26-.15.18-.15.39-.15.68 0 .36.01.51.2.71.08.08.23.23.58.23.74 0 .74-.82.74-1.04 0-.41-.3-.84-.8-.84" fill="#fff"/><path d="M94.7 6.92v17.57h23.25V6.92Z" fill="#ffde86"/><path d="M94.7 6.92v17.57h23.25V6.92Z" stroke="#fff" fill="none" stroke-width=".6" stroke-miterlimit="10" stroke-linecap="round" stroke-linejoin="round"/><path d="M103.09 15.7c0 .35 0 1.72-1.3 1.72s-1.3-1.37-1.3-1.73 0-1.7 1.3-1.7 1.3 1.34 1.3 1.7m-1.3-1.55c-.18 0-.6.07-.73.57q-.09.42-.07 1.03-.02.57.08 1c.12.42.5.5.72.5q.57-.01.73-.53c.07-.26.07-.67.07-.97 0-.33 0-.74-.07-1.04a.7.7 0 0 0-.73-.56" fill="#fff"/><path d="M104.93 14.4a.3.3 0 0 1-.3.3.3.3 0 0 1-.31-.3c0-.16.14-.3.3-.3.17 0 .3.14.3.3" fill="#fff"/><path d="M107.75 17.27c0 .15-.02.15-.18.15-.36-.32-.9-.32-1-.32h-.1v-.22h.1c.1 0 .43.02.72.14v-2.5c0-.15 0-.2-.53-.2h-.25v-.22c.28.02.72.02 1 .02.3 0 .74 0 1.01-.02v.22h-.25c-.52 0-.52.05-.52.2zm4.34-2.2h-.21c-.02-.1-.07-.41-.15-.46-.03-.03-.45-.03-.53-.03h-.97c.32.24.7.52 1 .72.44.31.86.6.86 1.13 0 .63-.6.99-1.32.99-.67 0-1.16-.4-1.16-.88 0-.26.22-.3.29-.3.13 0 .3.09.3.3 0 .17-.14.27-.3.29q.24.35.77.37c.48 0 .89-.29.89-.78 0-.42-.3-.74-.68-1.06l-1.21-1.03q-.07-.06-.06-.08v-.15h2.31z" fill="#fff"/><path d="M117.95 6.92v17.57h23.24V6.92Z" fill="#fec858"/><path d="M117.95 6.92v17.57h23.24V6.92Z" stroke="#fff" fill="none" stroke-width=".6" stroke-miterlimit="10" stroke-linecap="round" stroke-linejoin="round"/><path d="M126.33 15.7c0 .35 0 1.72-1.3 1.72s-1.3-1.37-1.3-1.73 0-1.7 1.3-1.7 1.3 1.34 1.3 1.7m-1.3-1.55c-.18 0-.6.07-.72.57q-.1.42-.08 1.03-.02.57.08 1c.13.42.51.5.72.5q.57-.01.74-.53c.07-.26.07-.67.07-.97 0-.33 0-.74-.08-1.04a.7.7 0 0 0-.73-.56" fill="#fff"/><path d="M128.17 14.4a.3.3 0 0 1-.3.3.3.3 0 0 1-.3-.3c0-.16.13-.3.3-.3s.3.14.3.3" fill="#fff"/><path d="M131 17.27c0 .15-.02.15-.19.15-.35-.32-.9-.32-1-.32h-.09v-.22h.09c.11 0 .43.02.72.14v-2.5c0-.15 0-.2-.53-.2h-.24v-.22c.27.02.71.02 1 .02s.73 0 1-.02v.22h-.24c-.53 0-.53.05-.53.2zm4.51-.18q.06.05.05.08v.14h-1.2l-.95.03c-.11.03-.12.08-.13.13h-.2l-.2-1.12h.21c.01.07.07.4.15.45.03.03.5.03.57.03H135c-.21-.24-.48-.51-.67-.76a3 3 0 0 1-.67-1.78c0-.27.17-.3.26-.3.27 0 .27.25.27.31v.1c0 .9.19 1.44.49 1.77z" fill="#fff"/><path d="M141.2 6.92v17.57h23.23V6.92Z" fill="#df7019"/><path d="M141.2 6.92v17.57h23.23V6.92Z" stroke="#fff" fill="none" stroke-width=".6" stroke-miterlimit="10" stroke-linecap="round" stroke-linejoin="round"/><path d="M149.58 15.7c0 .35 0 1.72-1.3 1.72s-1.3-1.37-1.3-1.73 0-1.7 1.3-1.7 1.3 1.34 1.3 1.7m-1.3-1.55c-.19 0-.6.07-.73.57q-.09.42-.07 1.03-.02.57.08 1c.12.42.5.5.72.5q.57-.01.73-.53c.07-.26.07-.67.07-.97 0-.33 0-.74-.07-1.04a.7.7 0 0 0-.73-.56" fill="#333"/><path d="M151.42 14.4a.3.3 0 0 1-.3.3.3.3 0 0 1-.31-.3c0-.16.14-.3.3-.3.17 0 .3.14.3.3" fill="#333"/><path d="M155.19 15.06h-.21c-.02-.1-.07-.4-.15-.45-.04-.03-.45-.03-.53-.03h-.98c.33.24.7.52 1 .72.45.31.87.6.87 1.13 0 .63-.6.99-1.32.99-.67 0-1.16-.4-1.16-.88 0-.26.22-.3.29-.3.13 0 .29.09.29.3 0 .17-.13.27-.28.29.13.22.42.37.76.37.48 0 .88-.29.88-.78 0-.42-.28-.74-.67-1.06l-1.21-1.03q-.07-.06-.06-.08v-.15h2.31zm2.59.84c.51.21.68.48.68.76 0 .52-.57.76-1.12.76-.62 0-1.12-.35-1.12-.85 0-.46.39-.66.65-.8q-.81-.3-.83-.9c0-.6.66-.88 1.3-.88.69 0 1.3.37 1.3.96 0 .55-.53.8-.86.95m-.98.5c-.21.12-.27.25-.27.37 0 .31.4.46.8.46s.82-.2.82-.57c0-.44-.57-.65-.57-.65l-.06.03zm.28-.74.78-.39c.17-.1.43-.23.43-.5 0-.4-.5-.58-.95-.58s-.95.23-.95.68c0 .5.53.72.7.8" fill="#333"/><path d="M164.43 6.92v17.57h23.25V6.92Z" fill="#e2781e"/><path d="M164.43 6.92v17.57h23.25V6.92Z" stroke="#fff" fill="none" stroke-width=".6" stroke-miterlimit="10" stroke-linecap="round" stroke-linejoin="round"/><path d="M172.82 15.7c0 .35 0 1.72-1.3 1.72s-1.3-1.37-1.3-1.73 0-1.7 1.3-1.7 1.3 1.34 1.3 1.7m-1.3-1.55c-.18 0-.6.07-.72.57q-.1.42-.08 1.03-.02.57.08 1c.12.42.5.5.72.5q.57-.01.74-.53c.06-.26.06-.67.06-.97 0-.33 0-.74-.07-1.04a.7.7 0 0 0-.73-.56" fill="#333"/><path d="M174.66 14.4a.3.3 0 0 1-.3.3.3.3 0 0 1-.3-.3c0-.16.13-.3.3-.3s.3.14.3.3" fill="#333"/><path d="M178.43 15.06h-.2c-.02-.1-.07-.4-.15-.45-.04-.03-.46-.03-.54-.03h-.97c.33.24.7.52 1 .72.44.31.86.6.86 1.13 0 .63-.6.99-1.31.99-.68 0-1.17-.4-1.17-.88 0-.26.22-.3.29-.3.13 0 .3.09.3.3 0 .17-.14.27-.3.29.15.22.44.37.77.37.48 0 .89-.29.89-.78 0-.42-.3-.74-.67-1.06L176 14.33l-.06-.08v-.15h2.32zM182 17.1q.06.05.05.08v.14h-1.2l-.95.03c-.12.03-.12.08-.13.13h-.21l-.19-1.12h.21c.01.07.06.4.15.45.03.03.5.03.57.03h1.19c-.21-.24-.48-.51-.67-.76a3 3 0 0 1-.67-1.78c0-.27.17-.3.26-.3.27 0 .27.25.27.31v.1c0 .9.19 1.44.48 1.77z" fill="#333"/><path d="M48.21 8.11V93.6c0 .66.54 1.2 1.2 1.2h137.07c.67 0 1.2-.54 1.2-1.2V8.1c0-.66-.53-1.2-1.2-1.2H49.41c-.66 0-1.2.54-1.2 1.2" stroke="currentColor" fill="none" stroke-width=".55" stroke-miterlimit="10" stroke-linecap="round" stroke-linejoin="round"/><path d="M194.77 6.92v7.32H201V6.92Z" fill="#fff7bc"/><path d="M194.77 14.24v7.32H201v-7.32Z" fill="#ffeea8"/><path d="M194.77 21.56v7.33H201v-7.33Z" fill="#ffe494"/><path d="M194.77 28.89v7.32H201V28.9Z" fill="#fedb81"/><path d="M194.77 36.21v7.32H201v-7.32Z" fill="#fed26d"/><path d="M194.77 43.53v7.33H201v-7.33Z" fill="#fec959"/><path d="M194.77 50.86v7.32H201v-7.32Z" fill="#fbbb49"/><path d="M194.77 58.18v7.32H201v-7.32Z" fill="#f4a83d"/><path d="M194.77 65.5v7.32H201V65.5Z" fill="#ed9631"/><path d="M194.77 72.82v7.33H201v-7.33Z" fill="#e68426"/><path d="M194.77 80.15v7.32H201v-7.32Z" fill="#e0711a"/><path d="M194.77 87.47v7.32H201v-7.32Z" fill="#d95f0e"/><path d="M194.77 7.91V93.8a1 1 0 0 0 1 1H200a1 1 0 0 0 1-1V7.9a1 1 0 0 0-1-1h-4.25a1 1 0 0 0-1 1" stroke="currentColor" fill="none" stroke-width=".45" stroke-miterlimit="10" stroke-linecap="round" stroke-linejoin="round"/><path d="M201 6.92h1.7" stroke="currentColor" fill="none" stroke-width=".35" stroke-miterlimit="10" stroke-linecap="round" stroke-linejoin="round"/><path d="M201 50.86h1.7" stroke="currentColor" fill="none" stroke-width=".35" stroke-miterlimit="10" stroke-linecap="round" stroke-linejoin="round"/><path d="M201 94.8h1.7" stroke="currentColor" fill="none" stroke-width=".35" stroke-miterlimit="10" stroke-linecap="round" stroke-linejoin="round"/><path d="M209.78 6.9c0 .37 0 1.73-1.3 1.73s-1.3-1.36-1.3-1.72c0-.37 0-1.7 1.3-1.7s1.3 1.33 1.3 1.7m-1.3-1.53c-.18 0-.6.06-.73.57q-.09.4-.07 1.03-.02.56.08 1c.12.41.5.5.72.5q.57-.01.73-.54c.07-.26.07-.67.07-.96 0-.34 0-.75-.07-1.04a.7.7 0 0 0-.73-.56m3 .25a.3.3 0 0 1-.3.3.3.3 0 0 1-.3-.3c0-.17.13-.3.3-.3s.3.13.3.3m3.7 1.29c0 .36 0 1.72-1.3 1.72s-1.3-1.36-1.3-1.72c0-.37 0-1.7 1.3-1.7s1.3 1.33 1.3 1.7m-1.3-1.54c-.19 0-.6.06-.73.57q-.09.4-.07 1.03-.02.56.08 1c.12.41.5.5.72.5q.57-.01.73-.54c.07-.26.07-.67.07-.96 0-.34 0-.75-.07-1.04a.7.7 0 0 0-.73-.56m2.62 1.58c0 .23.01.62.2.94.14.27.46.55.92.55.1 0 .32 0 .47-.13a.3.3 0 0 1-.2-.26q.02-.26.26-.27c.08 0 .26.05.26.28 0 .27-.19.57-.8.57-.85 0-1.64-.7-1.64-1.73 0-1.2.59-1.7 1.31-1.7.5 0 .73.19.9.33.32.26.38.56.38.8q.01.44-.35.78c-.22.2-.45.34-.89.34a1 1 0 0 1-.82-.5m.78-1.54c-.76 0-.76.82-.76 1.03 0 .39.27.84.8.84.25 0 .4-.07.56-.27.15-.18.16-.4.16-.67 0-.29 0-.48-.16-.68q-.2-.25-.6-.25" fill="currentColor"/><path d="M209.78 50.84c0 .36 0 1.73-1.3 1.73s-1.3-1.37-1.3-1.73 0-1.7 1.3-1.7 1.3 1.34 1.3 1.7m-1.3-1.54c-.18 0-.6.07-.73.57q-.09.42-.07 1.03-.02.57.08 1c.12.42.5.5.72.5q.57-.01.73-.53c.07-.26.07-.67.07-.97 0-.33 0-.74-.07-1.04a.7.7 0 0 0-.73-.56m3 .25a.3.3 0 0 1-.3.3.3.3 0 0 1-.3-.3c0-.17.13-.3.3-.3s.3.13.3.3m2.69 2.87c0 .15-.02.15-.18.15-.36-.32-.9-.32-1-.32h-.1v-.22h.1c.1 0 .43.02.72.14v-2.5c0-.15 0-.2-.53-.2h-.25v-.22c.28.02.72.02 1 .02s.74 0 1.01-.02v.22h-.24c-.53 0-.53.05-.53.2zm3.54-1.37c.52.21.68.48.68.76 0 .52-.57.76-1.12.76-.61 0-1.12-.35-1.12-.85 0-.46.4-.66.65-.8q-.81-.3-.83-.9c0-.6.67-.88 1.3-.88.7 0 1.3.37 1.3.96 0 .55-.52.8-.86.95m-.97.5c-.22.12-.28.25-.28.37 0 .31.4.46.8.46s.82-.2.82-.57c0-.44-.57-.65-.57-.65l-.06.03zm.27-.74.78-.39c.18-.1.43-.23.43-.5 0-.4-.5-.58-.95-.58s-.95.23-.95.68c0 .5.54.72.7.8" fill="currentColor"/><path d="M209.78 94.78c0 .36 0 1.73-1.3 1.73s-1.3-1.37-1.3-1.73 0-1.7 1.3-1.7 1.3 1.34 1.3 1.7m-1.3-1.54c-.18 0-.6.07-.73.57q-.09.41-.07 1.03-.02.56.08 1c.12.42.5.5.72.5q.57 0 .73-.54c.07-.25.07-.66.07-.96 0-.34 0-.74-.07-1.04a.7.7 0 0 0-.73-.56m3 .25a.3.3 0 0 1-.3.3.3.3 0 0 1-.3-.3c0-.17.13-.3.3-.3s.3.13.3.3m2.35 1.35c.46 0 .76-.29.76-.78s-.31-.78-.76-.78c-.05 0-.64 0-.9.26.2.03.27.19.27.3a.3.3 0 0 1-.3.3c-.17 0-.32-.1-.32-.3 0-.52.6-.76 1.27-.76.82 0 1.32.5 1.32.97 0 .41-.36.76-.93.9.6.19.76.56.76.84 0 .41-.5.72-1.14.72-.6 0-1.1-.26-1.1-.71 0-.24.19-.3.28-.3.15 0 .29.1.29.29 0 .11-.06.25-.24.28.21.23.65.25.76.25.36 0 .62-.19.62-.53 0-.29-.19-.74-.71-.77l-.29-.01c-.05-.01-.1-.01-.1-.09s.04-.08.13-.08zm4.74-.06c0 .36 0 1.73-1.3 1.73s-1.3-1.37-1.3-1.73 0-1.7 1.3-1.7 1.3 1.34 1.3 1.7m-1.3-1.54c-.19 0-.6.07-.73.57q-.09.41-.07 1.03c0 .37 0 .71.08 1 .12.42.5.5.72.5q.57 0 .73-.54c.07-.25.07-.66.07-.96 0-.34 0-.74-.07-1.04a.7.7 0 0 0-.73-.56" fill="currentColor"/><path d="M204.98 29.47c-.11.04-.31.12-.31.56h-.22c.02-.24.02-.52.02-.54l-.02-.67h.22c0 .25.09.44.23.44q.08-.01.1-.03l2.27-.9-2.4-.97q-.06-.04-.08-.03c-.12 0-.12.3-.12.44h-.22l.02-.8-.02-.68h.22v.1c0 .28.03.32.07.35.02.03.19.1.28.13l.07-.02 2.18-.88-2.41-.97-.07-.02c-.12 0-.12.3-.12.44h-.22l.02-.8-.02-.68h.22v.1c0 .34.05.36.18.41l2.98 1.2c.08.03.13.05.13.16s-.04.13-.12.16l-2.53 1.01 2.53 1.02c.08.03.12.05.12.16s-.05.13-.13.16z" fill="currentColor"/><path d="M206.73 32.35c0 .1 0 .15-.12.15-.33 0-1-.18-1-1.11 0-.76.55-1.3 1.15-1.3.63 0 1.15.62 1.15 1.37 0 .8-.56 1.04-.65 1.04s-.09-.08-.09-.1c0-.08.02-.09.1-.12.34-.14.46-.5.46-.79 0-.4-.23-.62-.31-.7-.24-.2-.56-.2-.69-.2zm-.15-1.74c-.66.06-.8.54-.8.77 0 .7.65.73.8.74zm-1.8 3.47a.3.3 0 0 1-.3-.3c0-.16.12-.3.3-.3s.3.14.3.3a.3.3 0 0 1-.3.3m.92-.83h.22c0 .36.04.4.28.4h1.23c.16 0 .2 0 .2-.33v-.09h.22a9 9 0 0 0 0 1.21h-.22c0-.33 0-.37-.2-.37h-1.78zm.21 3.87c-.14.24-.15.46-.15.54q.02-.04.12-.04.17 0 .18.18-.02.18-.18.19c-.13 0-.29-.1-.29-.35 0-.12.03-.38.23-.64a1.3 1.3 0 0 1-.17-.65c0-.59.35-1 .73-1 .26 0 .44.19.5.26a.6.6 0 0 1 .87.07c.06-.25.22-.54.48-.54.4 0 .65.66.65 1.38 0 .67-.22 1.38-.66 1.38a.7.7 0 0 1-.58-.37c-.16-.34-.16-.66-.16-1.2v-.36a.33.33 0 0 0-.33-.3c-.1 0-.18.06-.18.07v.04q.15.3.14.56c0 .6-.35 1-.73 1a.7.7 0 0 1-.47-.22m1.04-.77c0-.44-.29-.56-.57-.56s-.57.12-.57.55.3.56.57.56c.28 0 .57-.12.57-.55m.91 0c0 .5 0 1.2.37 1.2.25 0 .48-.44.48-1.03 0-.57-.22-1.04-.48-1.04-.15 0-.37.18-.37.55zm-1.51 4.85c-.55 0-.7-.37-.7-.83 0-.58.34-.83.45-.9h-1.7l.05-.85h.22c0 .37.03.42.28.42h2.48c.16 0 .2 0 .2-.33v-.09h.22a9 9 0 0 0 0 1.27h-.22v-.09c0-.32-.04-.32-.2-.32h-.86c-.57 0-.76.52-.76.83 0 .37.21.45.53.45h1.1c.15 0 .2 0 .2-.32v-.1h.21a9 9 0 0 0 0 1.28h-.22v-.1c0-.32-.04-.32-.2-.32z" fill="currentColor"/><path d="M205.92 43v.88h-.22v-.89h-.91v-.2c.47-.01.95-.26.97-.77h.16v.53h1.3c.57 0 .69.47.69.78 0 .37-.28.65-.69.65h-.27v-.2h.26c.37 0 .52-.23.52-.4 0-.39-.4-.39-.5-.39z" fill="currentColor"/><path d="M206.35 51.54c-.62 0-.7-.47-.7-.84 0-.5.24-.78.46-.92-.46-.12-.46-.63-.46-.81 0-.52.27-.8.49-.93h-.5l.06-.82h.22c0 .37.04.42.28.42h1.23c.16 0 .2 0 .2-.33v-.09h.22a9 9 0 0 0 0 1.27h-.22v-.09c0-.32-.04-.32-.2-.32h-.86c-.56 0-.76.5-.76.83 0 .37.2.46.53.46h1.1c.15 0 .2 0 .2-.33v-.09h.21a9 9 0 0 0 0 1.27h-.22v-.09c0-.32-.04-.32-.2-.32h-.86c-.56 0-.76.5-.76.83 0 .36.2.45.53.45h1.1c.15 0 .2 0 .2-.32v-.09h.21a9 9 0 0 0 0 1.27h-.22v-.09c0-.32-.04-.32-.2-.32zm.02 3.35c-.48 0-.75-.5-.75-1.13 0-.3.01-.88.44-.88.18 0 .27.14.27.27s-.1.26-.27.26a.3.3 0 0 1-.22-.11c-.06.16-.06.4-.06.45 0 .43.24.7.6.7h.13c.02-.5.04-.76.17-1.14.11-.33.32-.62.65-.62.47 0 .58.58.58.97q-.02.6-.41.84c.17.02.38.14.38.39 0 .04 0 .6-.48.6h-.27v-.2h.26c.05 0 .27 0 .27-.2s-.22-.2-.27-.2zm.77-.45c.55 0 .6-.6.6-.72 0-.3-.15-.57-.41-.57-.17 0-.62.1-.67 1.3zm-1.23 3.52c-.14.24-.15.46-.15.54q.02-.02.12-.03.17 0 .18.18-.02.18-.18.18c-.13 0-.29-.1-.29-.34 0-.12.03-.38.23-.65a1.3 1.3 0 0 1-.17-.65c0-.58.35-1 .73-1 .26 0 .44.2.5.27q.23-.16.4-.15c.27 0 .43.17.47.21.06-.25.22-.54.48-.54.4 0 .65.66.65 1.38 0 .67-.22 1.38-.66 1.38a.7.7 0 0 1-.58-.37c-.16-.33-.16-.65-.16-1.19v-.36a.33.33 0 0 0-.33-.3q-.16.02-.18.07v.03q.15.3.14.57c0 .59-.35 1-.73 1a.7.7 0 0 1-.47-.23m1.04-.77c0-.43-.29-.55-.57-.55s-.57.12-.57.55.3.56.57.56c.28 0 .57-.12.57-.56m.91 0c0 .5 0 1.21.37 1.21.25 0 .48-.44.48-1.04 0-.57-.22-1.03-.48-1.03-.15 0-.37.17-.37.55zm-1.51 4.86c-.55 0-.7-.37-.7-.84 0-.53.3-.8.49-.92h-.5l.06-.82h.22c0 .37.04.41.28.41h1.23c.16 0 .2 0 .2-.32v-.1h.22a9 9 0 0 0 0 1.28h-.22v-.09c0-.32-.04-.32-.2-.32h-.86c-.57 0-.76.51-.76.82 0 .37.21.46.53.46h1.1c.15 0 .2 0 .2-.33v-.09h.21a9 9 0 0 0 0 1.27h-.22v-.09c0-.32-.04-.32-.2-.32zm-1.57 2a.3.3 0 0 1-.3-.3c0-.15.12-.3.3-.3s.3.15.3.3a.3.3 0 0 1-.3.3m.92-.82h.22c0 .35.04.4.28.4h1.23c.16 0 .2 0 .2-.33v-.09h.22a9 9 0 0 0 0 1.21h-.22c0-.33 0-.37-.2-.37h-1.78zm.22 2.8v.88h-.22v-.88h-.91v-.21c.47 0 .95-.26.97-.76h.16v.52h1.3c.57 0 .69.47.69.78 0 .38-.28.65-.69.65h-.27v-.2h.26c.37 0 .52-.22.52-.4 0-.38-.4-.38-.5-.38zm-.22 3.6h.22c0 .37.04.42.28.42h.81c.46 0 .73-.35.73-.76 0-.5-.2-.52-.46-.52h-1.63l.05-.86h.22c0 .38.04.41.3.41h1.08c.56.05.6.61.6.93a.9.9 0 0 1-.42.82h.43l-.06.83h-.22c0-.37-.03-.41-.28-.41h-1.7zm-1.25 3.7h.22c0 .38.03.42.28.42h.97c-.1-.1-.27-.38-.27-.79 0-.75.5-1.36 1.13-1.36.6 0 1.13.56 1.13 1.3 0 .4-.18.7-.3.83h.3l-.06.86h-.22c0-.37-.03-.41-.28-.41h-2.96zm2.86.4c.37-.24.43-.6.43-.8a.8.8 0 0 0-.32-.66c-.2-.16-.49-.18-.64-.18-.13 0-.46.01-.7.23a1 1 0 0 0-.27.68c0 .14.03.5.37.73zm-.58 3.82c0 .1 0 .15-.12.15-.33 0-1-.18-1-1.11 0-.76.55-1.3 1.15-1.3.63 0 1.15.61 1.15 1.37 0 .8-.56 1.04-.65 1.04s-.09-.08-.09-.1q-.01-.1.1-.12c.34-.14.46-.5.46-.79 0-.4-.23-.63-.31-.7-.24-.2-.56-.2-.69-.2zm-.15-1.75c-.66.06-.8.55-.8.78 0 .7.65.73.8.73z" fill="currentColor"/></g></svg>