<?xml version='1.0' encoding='UTF-8'?><svg fill="currentColor" version="1.1" xmlns="http://www.w3.org/2000/svg" xmlns:xlink="http://www.w3.org/1999/xlink" width="229.96" height="212.94" viewBox="0 -159.71 172.47 159.71"><defs><clipPath id="clip1"><path d="M30.86 25.86h139.42v111.07H30.86Z"/></clipPath></defs><g transform="scale(1 -1)" id="page1"><path d="M30.86 25.86h139.42M30.86 75.22h139.42M30.86 124.6h139.42" stroke="#d9d9d9" fill="none" stroke-width=".4" stroke-miterlimit="10"/><path d="M39.57 25.86v4.25M57 25.86v4.25m17.43-4.25v4.25m17.43-4.25v4.25m17.42-4.25v4.25m17.43-4.25v4.25m17.43-4.25v4.25m17.43-4.25v4.25m-122 106.82v-4.25M57 136.93v-4.25m17.43 4.25v-4.25m17.43 4.25v-4.25m17.42 4.25v-4.25m17.43 4.25v-4.25m17.43 4.25v-4.25m17.43 4.25v-4.25" stroke="currentColor" fill="none" stroke-width=".2" stroke-miterlimit="10"/><path d="M30.86 25.86h4.25m-4.25 49.36h4.25m-4.25 49.37h4.25m135.17-98.73h-4.25m4.25 49.36h-4.25m4.25 49.37h-4.25" stroke="currentColor" fill="none" stroke-width=".2" stroke-miterlimit="10"/><path d="M30.86 25.86v111.07h139.42V25.86z" stroke="currentColor" fill="none" stroke-width=".4" stroke-miterlimit="10"/><path d="M39.86 22.3c0 .15-.02.15-.18.15-.35-.32-.9-.32-1-.32h-.09v-.22h.08c.12 0 .44.01.73.14v-2.5c0-.15 0-.2-.53-.2h-.25v-.22c.28.02.72.02 1.01.02s.73 0 1-.02v.22h-.24c-.53 0-.53.05-.53.2z"/><path d="M58.24 20.09h-.21c-.02-.1-.07-.4-.15-.45-.04-.03-.45-.03-.53-.03h-.97c.32.24.7.52 1 .72.44.3.86.6.86 1.12 0 .64-.6 1-1.32 1-.67 0-1.16-.4-1.16-.88 0-.26.22-.3.29-.3.13 0 .29.08.29.29 0 .18-.13.28-.28.3q.23.35.76.37c.48 0 .89-.3.89-.78 0-.42-.3-.74-.68-1.06l-1.21-1.03q-.07-.05-.06-.08v-.15h2.31z"/><path d="M74.38 20.78c.45 0 .76-.29.76-.78s-.32-.78-.76-.78c-.05 0-.65 0-.9.26.2.03.26.19.26.3a.3.3 0 0 1-.3.3c-.16 0-.31-.1-.31-.3 0-.52.59-.76 1.27-.76.81 0 1.32.5 1.32.97 0 .41-.36.76-.93.9.6.19.76.56.76.84 0 .41-.51.72-1.14.72-.61 0-1.1-.26-1.1-.71 0-.24.18-.3.28-.3.14 0 .28.1.28.29 0 .11-.06.25-.24.28.22.23.66.25.77.25.36 0 .62-.19.62-.53 0-.29-.2-.74-.71-.77l-.3-.01c-.05-.01-.1-.01-.1-.09q0-.1.14-.08z"/><path d="M93.23 19.94v.22h-.62v2.19c0 .12 0 .15-.13.15-.1 0-.1 0-.16-.07l-1.85-2.27v-.22h1.66v-.39c0-.15 0-.2-.43-.2h-.18v-.22a21 21 0 0 0 1.7 0v.22h-.18c-.43 0-.43.05-.43.2v.39zm-1.06 2.02v-1.8h-1.46z"/><path d="M108.56 21.87c.27-.06.5-.06.55-.06.33 0 .58.1.71.17.12.06.46.27.46.38q-.02.1-.07.09l-.07-.03a2.5 2.5 0 0 0-1.65 0l-.08.03q-.09-.01-.07-.14v-1.5c0-.08 0-.15.1-.15q.06-.01.1.07a1 1 0 0 0 .8.33.6.6 0 0 0 .51-.28q.16-.27.14-.63c0-.21-.02-.49-.21-.68a1 1 0 0 0-.62-.25c-.32 0-.69.14-.84.44.2.01.28.16.28.27 0 .16-.12.28-.28.28-.11 0-.28-.06-.28-.3 0-.48.48-.9 1.13-.9.74 0 1.35.5 1.35 1.12 0 .57-.48 1.09-1.18 1.09q-.45 0-.78-.24z"/><path d="M125.94 20.76a2 2 0 0 0 .19.95c.14.27.47.55.93.55.1 0 .32-.01.47-.13a.3.3 0 0 1-.21-.27c0-.16.12-.26.26-.26.09 0 .27.04.27.28 0 .27-.2.57-.8.57-.85 0-1.64-.7-1.64-1.74 0-1.19.58-1.7 1.31-1.7.5 0 .73.2.9.33.32.27.38.56.38.8q.02.45-.36.79c-.22.2-.44.33-.88.33a1 1 0 0 1-.82-.5m.78-1.54c-.77 0-.77.83-.77 1.04 0 .38.28.83.8.83.26 0 .42-.06.57-.26.15-.19.15-.4.15-.68s0-.47-.16-.67q-.17-.26-.59-.26"/><path d="M145.55 22.12q.06.05.05.08v.14h-1.2l-.95.03c-.11.03-.12.08-.13.12h-.2l-.2-1.12h.21c.01.08.07.4.15.46.03.02.5.03.58.03h1.18c-.2-.25-.48-.52-.67-.76a3 3 0 0 1-.67-1.78c0-.27.18-.3.27-.3.26 0 .26.25.26.31v.1c0 .89.19 1.44.49 1.76z"/><path d="M162 20.93c.52.21.68.47.68.76 0 .52-.57.76-1.11.76-.62 0-1.13-.35-1.13-.85 0-.46.4-.66.65-.8q-.8-.3-.82-.9c0-.6.66-.88 1.29-.88.7 0 1.3.37 1.3.96 0 .54-.52.8-.85.95m-.97.5c-.22.11-.28.24-.28.36 0 .32.4.47.8.47s.82-.2.82-.58c0-.44-.56-.64-.57-.64l-.05.03zm.28-.74.77-.4c.18-.09.43-.22.43-.49 0-.4-.5-.58-.94-.58-.46 0-.96.23-.96.68 0 .5.54.72.7.8"/><path d="M26.94 25.85c0 .36 0 1.72-1.3 1.72s-1.3-1.36-1.3-1.72c0-.37 0-1.7 1.3-1.7s1.3 1.33 1.3 1.7m-1.3-1.54c-.18 0-.6.06-.73.56q-.09.41-.07 1.04-.02.55.08 1c.12.41.5.5.72.5q.57-.02.73-.54c.07-.26.07-.67.07-.96 0-.34 0-.75-.07-1.05a.7.7 0 0 0-.73-.55"/><path d="M21.27 75.2c0 .37 0 1.73-1.3 1.73s-1.3-1.36-1.3-1.72 0-1.7 1.3-1.7 1.3 1.34 1.3 1.7m-1.3-1.53c-.19 0-.6.06-.73.57q-.09.41-.07 1.03-.02.56.08 1c.12.41.5.5.72.5q.57-.02.73-.54c.07-.25.07-.67.07-.96 0-.34 0-.74-.07-1.04a.7.7 0 0 0-.73-.56"/><path d="M23.1 73.92a.3.3 0 0 1-.3.3.3.3 0 0 1-.3-.3c0-.17.14-.3.3-.3.17 0 .3.13.3.3"/><path d="M26.88 74.58h-.21c-.02-.1-.07-.4-.15-.46-.04-.03-.45-.03-.53-.03h-.98c.33.25.7.53 1 .73.45.3.87.6.87 1.12 0 .64-.6 1-1.32 1-.67 0-1.16-.4-1.16-.88 0-.26.22-.3.29-.3.13 0 .29.08.29.29 0 .18-.13.28-.28.29.13.22.42.37.76.37.48 0 .88-.29.88-.77 0-.42-.28-.74-.67-1.06l-1.21-1.04q-.07-.04-.06-.08v-.15h2.31z"/><path d="M21.27 124.57c0 .36 0 1.73-1.3 1.73s-1.3-1.37-1.3-1.73 0-1.7 1.3-1.7 1.3 1.34 1.3 1.7m-1.3-1.54c-.19 0-.6.07-.73.57q-.09.41-.07 1.03-.02.56.08 1c.12.42.5.5.72.5q.57 0 .73-.54c.07-.25.07-.66.07-.96 0-.34 0-.74-.07-1.04a.7.7 0 0 0-.73-.56"/><path d="M23.1 123.28a.3.3 0 0 1-.3.3.3.3 0 0 1-.3-.3c0-.16.14-.3.3-.3.17 0 .3.14.3.3"/><path d="M27.02 123.79v.22h-.63v2.2c0 .11 0 .14-.13.14-.1 0-.1 0-.16-.07L24.26 124v-.22h1.66v-.39c0-.15 0-.2-.44-.2h-.17v-.22a21 21 0 0 0 1.7 0v.22h-.18c-.44 0-.44.05-.44.2v.39zm-1.06 2.02v-1.8h-1.47z"/><path d="M39.57 38.2 57 45.6l17.43 14.81 17.43 9.88 17.42 4.93 17.43-9.87L144.14 53l17.43-7.4" stroke="#0000b3" fill="none" stroke-width=".8" stroke-miterlimit="10" clip-path="url(#clip1)"/><path d="M39.57 94.96 57 70.3l17.43-7.41 17.43-4.93 17.42-7.41 17.43-4.94 17.43-7.4 17.43-4.94" stroke="#ff4d4d" fill="none" stroke-width=".8" stroke-miterlimit="10" stroke-dasharray="2.98883 2.98883" clip-path="url(#clip1)"/><path d="M39.57 43.13 57 50.53l17.43 12.35 17.43 9.87h17.42l17.43-12.34 17.43-9.87 17.43-9.87" stroke="#096" fill="none" stroke-width=".8" stroke-miterlimit="10" stroke-dasharray="2.98883 1.99255 .79701 1.99255" clip-path="url(#clip1)"/><path d="M41.56 38.2a2 2 0 1 1-3.98 0 2 2 0 0 1 3.98 0" fill="#66f"/><path d="M41.56 38.2a2 2 0 1 1-3.98 0 2 2 0 0 1 3.98 0Z" stroke="#33f" fill="none" stroke-width=".8" stroke-miterlimit="10"/><path d="M59 45.6a2 2 0 1 1-2-2 2 2 0 0 1 2 2" fill="#66f"/><path d="M59 45.6a2 2 0 1 1-2-2 2 2 0 0 1 2 2Z" stroke="#33f" fill="none" stroke-width=".8" stroke-miterlimit="10"/><path d="M76.42 60.41a2 2 0 1 1-3.98 0 2 2 0 0 1 3.98 0" fill="#66f"/><path d="M76.42 60.41a2 2 0 1 1-3.98 0 2 2 0 0 1 3.98 0Z" stroke="#33f" fill="none" stroke-width=".8" stroke-miterlimit="10"/><path d="M93.85 70.29a2 2 0 1 1-3.99 0 2 2 0 0 1 3.99 0" fill="#66f"/><path d="M93.85 70.29a2 2 0 1 1-3.99 0 2 2 0 0 1 3.99 0Z" stroke="#33f" fill="none" stroke-width=".8" stroke-miterlimit="10"/><path d="M111.27 75.22a2 2 0 1 1-3.98 0 2 2 0 0 1 3.98 0" fill="#66f"/><path d="M111.27 75.22a2 2 0 1 1-3.98 0 2 2 0 0 1 3.98 0Z" stroke="#33f" fill="none" stroke-width=".8" stroke-miterlimit="10"/><path d="M128.7 65.35a2 2 0 1 1-3.98 0 2 2 0 0 1 3.98 0" fill="#66f"/><path d="M128.7 65.35a2 2 0 1 1-3.98 0 2 2 0 0 1 3.98 0Z" stroke="#33f" fill="none" stroke-width=".8" stroke-miterlimit="10"/><path d="M146.13 53a2 2 0 1 1-3.98.01 2 2 0 0 1 3.98 0" fill="#66f"/><path d="M146.13 53a2 2 0 1 1-3.98.01 2 2 0 0 1 3.98 0Z" stroke="#33f" fill="none" stroke-width=".8" stroke-miterlimit="10"/><path d="M163.56 45.6a2 2 0 1 1-3.99 0 2 2 0 0 1 3.99 0" fill="#66f"/><path d="M163.56 45.6a2 2 0 1 1-3.99 0 2 2 0 0 1 3.99 0Z" stroke="#33f" fill="none" stroke-width=".8" stroke-miterlimit="10"/><path d="M37.58 92.97h3.98v3.99h-3.98Z" fill="#ffb366"/><path d="M37.58 92.97h3.98v3.99h-3.98Z" stroke="#f93" fill="none" stroke-width=".8" stroke-miterlimit="10" stroke-dasharray="2.98883 2.98883"/><path d="M55 68.3h4v3.98h-4Z" fill="#ffb366"/><path d="M55 68.3h4v3.98h-4Z" stroke="#f93" fill="none" stroke-width=".8" stroke-miterlimit="10" stroke-dasharray="2.98883 2.98883"/><path d="M72.43 60.89h3.99v3.98h-3.99Z" fill="#ffb366"/><path d="M72.43 60.89h3.99v3.98h-3.99Z" stroke="#f93" fill="none" stroke-width=".8" stroke-miterlimit="10" stroke-dasharray="2.98883 2.98883"/><path d="M89.86 55.95h3.99v3.99h-3.99Z" fill="#ffb366"/><path d="M89.86 55.95h3.99v3.99h-3.99Z" stroke="#f93" fill="none" stroke-width=".8" stroke-miterlimit="10" stroke-dasharray="2.98883 2.98883"/><path d="M107.29 48.55h3.98v3.98h-3.98Z" fill="#ffb366"/><path d="M107.29 48.55h3.98v3.98h-3.98Z" stroke="#f93" fill="none" stroke-width=".8" stroke-miterlimit="10" stroke-dasharray="2.98883 2.98883"/><path d="M124.72 43.6h3.98v4h-3.98Z" fill="#ffb366"/><path d="M124.72 43.6h3.98v4h-3.98Z" stroke="#f93" fill="none" stroke-width=".8" stroke-miterlimit="10" stroke-dasharray="2.98883 2.98883"/><path d="M142.15 36.2h3.98v4h-3.98Z" fill="#ffb366"/><path d="M142.15 36.2h3.98v4h-3.98Z" stroke="#f93" fill="none" stroke-width=".8" stroke-miterlimit="10" stroke-dasharray="2.98883 2.98883"/><path d="M159.57 31.27h3.99v3.98h-3.99Z" fill="#ffb366"/><path d="M159.57 31.27h3.99v3.98h-3.99Z" stroke="#f93" fill="none" stroke-width=".8" stroke-miterlimit="10" stroke-dasharray="2.98883 2.98883"/><path d="m39.57 45.63 2.16-3.74h-4.32Z" fill="#66b3b3"/><path d="m39.57 45.63 2.16-3.74h-4.32Z" stroke="#00b34d" fill="none" stroke-width=".8" stroke-miterlimit="10" stroke-dasharray="2.98883 1.99255 .79701 1.99255"/><path d="m57 53.03 2.16-3.74h-4.32Z" fill="#66b3b3"/><path d="m57 53.03 2.16-3.74h-4.32Z" stroke="#00b34d" fill="none" stroke-width=".8" stroke-miterlimit="10" stroke-dasharray="2.98883 1.99255 .79701 1.99255"/><path d="m74.43 65.37 2.15-3.74h-4.31Z" fill="#66b3b3"/><path d="m74.43 65.37 2.15-3.74h-4.31Z" stroke="#00b34d" fill="none" stroke-width=".8" stroke-miterlimit="10" stroke-dasharray="2.98883 1.99255 .79701 1.99255"/><path d="M91.86 75.24 94 71.51h-4.3Z" fill="#66b3b3"/><path d="M91.86 75.24 94 71.51h-4.3Z" stroke="#00b34d" fill="none" stroke-width=".8" stroke-miterlimit="10" stroke-dasharray="2.98883 1.99255 .79701 1.99255"/><path d="m109.28 75.24 2.16-3.73h-4.31Z" fill="#66b3b3"/><path d="m109.28 75.24 2.16-3.73h-4.31Z" stroke="#00b34d" fill="none" stroke-width=".8" stroke-miterlimit="10" stroke-dasharray="2.98883 1.99255 .79701 1.99255"/><path d="m126.71 62.9 2.16-3.73h-4.32Z" fill="#66b3b3"/><path d="m126.71 62.9 2.16-3.73h-4.32Z" stroke="#00b34d" fill="none" stroke-width=".8" stroke-miterlimit="10" stroke-dasharray="2.98883 1.99255 .79701 1.99255"/><path d="m144.14 53.03 2.15-3.74h-4.31Z" fill="#66b3b3"/><path d="m144.14 53.03 2.15-3.74h-4.31Z" stroke="#00b34d" fill="none" stroke-width=".8" stroke-miterlimit="10" stroke-dasharray="2.98883 1.99255 .79701 1.99255"/><path d="m161.57 43.16 2.15-3.74h-4.31Z" fill="#66b3b3"/><path d="m161.57 43.16 2.15-3.74h-4.31Z" stroke="#00b34d" fill="none" stroke-width=".8" stroke-miterlimit="10" stroke-dasharray="2.98883 1.99255 .79701 1.99255"/><path d="M60.23 11.82v-.25h.17c.54 0 .55-.07.55-.31V7.62c0-.24-.01-.31-.55-.31h-.17v-.25h2.96c.99 0 1.7.61 1.7 1.27 0 .6-.61 1.13-1.46 1.22.68.12 1.25.55 1.25 1.08 0 .63-.73 1.19-1.7 1.19zm1.34-2.19v1.67c0 .21 0 .27.33.27h1.03c.7 0 1.06-.5 1.06-.94 0-.5-.47-1-1.27-1zm.33-2.32c-.33 0-.33.05-.33.27v1.85h1.48c.74 0 1.13-.6 1.13-1.08 0-.52-.46-1.04-1.23-1.04zm7.17 1.23c0 .87-.74 1.63-1.7 1.63s-1.71-.76-1.71-1.63S66.42 7 67.36 7c.95 0 1.71.69 1.71 1.55m-1.7-1.33c-.26 0-.64.08-.87.43-.19.28-.2.64-.2.96 0 .3 0 .72.24 1.02.18.2.47.35.83.35.4 0 .7-.2.85-.41.2-.27.22-.62.22-.96s-.02-.7-.22-.99c-.2-.26-.51-.4-.85-.4m4.5 2.85V9.8c.47 0 .53-.04.53-.39V8.22c0-.61-.4-1.04-.93-1.04-.63 0-.66.3-.66.66v2.3l-1.08-.08V9.8c.53 0 .53-.02.53-.64V8.12c0-.48 0-1.13 1.16-1.13.15 0 .66 0 1 .58V7l1.05.07v.25c-.47 0-.52.05-.52.39v2.43zm3.29-.25h1.09v.25h-1.1v1.29h-.23c0-.63-.3-1.32-.96-1.34v-.2h.65V7.93c0-.78.58-.94.97-.94.47 0 .8.4.8.94v.39h-.24v-.38c0-.47-.23-.73-.5-.73-.48 0-.48.59-.48.71z"/><path d="M82.03 11.82v-.25c.46 0 .52-.05.52-.4V9.74q-.4.4-.98.4c-.92 0-1.7-.7-1.7-1.57S80.6 7 81.49 7c.57 0 .91.3 1.03.43V7l1.08.07v.25c-.47 0-.53.05-.53.39v4.2zm.5-4.03c-.19-.33-.54-.6-1-.6a1 1 0 0 0-.8.42q-.23.3-.23.94c0 .16 0 .68.29 1.01.27.31.62.38.82.38q.51-.02.83-.4c.08-.12.08-.13.08-.26zm3.93 2.27V9.8c.47 0 .53-.04.53-.39V8.22c0-.61-.4-1.04-.93-1.04-.64 0-.66.3-.66.66v2.3l-1.08-.08V9.8c.52 0 .52-.02.52-.64V8.12c0-.48 0-1.13 1.17-1.13.15 0 .66 0 1 .58V7l1.05.07v.25c-.47 0-.52.05-.52.39v2.43zm3.27-1.41c0 .58.27 1.29.94 1.29a.3.3 0 0 1-.12-.25.3.3 0 0 1 .31-.33c.17 0 .32.12.32.33 0 .23-.22.44-.55.44-.35 0-.73-.21-.94-.74v.74l-1-.07V9.8c.46 0 .52-.04.52-.39v-1.8c0-.3-.07-.3-.52-.3v-.25l.8.02.9-.02v.25h-.14c-.52 0-.52.07-.52.31zm4.84.28c0 .37 0 .63-.32.89q-.43.36-1.03.35c-.67 0-1.13-.25-1.13-.68 0-.22.15-.34.33-.34s.33.14.33.33c0 .11-.06.26-.25.32.26.17.66.17.7.17a.8.8 0 0 0 .82-.84V8.9a4 4 0 0 1-1.36-.22c-.62-.23-.82-.62-.82-.93 0-.6.73-.77 1.22-.77.56 0 .89.31 1.03.58.03-.28.22-.55.54-.55.02 0 .7 0 .7.66v.39h-.25v-.38c0-.07 0-.4-.25-.4-.26 0-.26.32-.26.41zm-.55-.9c0-.66-.59-.85-.9-.85-.36 0-.7.24-.7.58 0 .38.34.92 1.6.97zm2.81 1.78h1.09v.25h-1.09v1.29h-.24c0-.63-.29-1.32-.96-1.34v-.2h.65V7.93c0-.78.59-.94.98-.94.46 0 .78.4.78.94v.39h-.23v-.38c0-.47-.23-.73-.5-.73-.48 0-.48.59-.48.71zm3.18 1.55c0 .2-.16.4-.4.4a.4.4 0 0 1-.4-.4c0-.25.2-.4.4-.4.22 0 .4.17.4.4m-1.06-1.3V9.8c.44 0 .5-.04.5-.38V7.61c0-.3-.06-.3-.52-.3v-.25l.78.02q.38 0 .74-.02v.25c-.4 0-.47 0-.47.29v2.53zm5.54-1.52c0 .87-.75 1.63-1.71 1.63s-1.71-.76-1.71-1.63.77-1.55 1.7-1.55c.95 0 1.72.69 1.72 1.55m-1.71-1.33c-.26 0-.64.08-.87.43-.18.28-.2.64-.2.96 0 .3 0 .72.25 1.02.17.2.46.35.82.35.41 0 .7-.2.86-.41.2-.27.21-.62.21-.96s-.02-.7-.22-.99q-.3-.4-.85-.4m5.58 1.96c0 .6-.3.96-1.04.96-.58 0-.95-.31-1.14-.67v.67l-1.03-.07V9.8c.46 0 .52-.04.52-.39v-1.8c0-.3-.07-.3-.52-.3v-.25l.8.02.8-.02v.25c-.46 0-.53 0-.53.3v1.25c0 .73.58 1.08 1.04 1.08.49 0 .55-.39.55-.74V7.6c0-.3-.07-.3-.52-.3v-.24l.8.02.8-.02v.25c-.46 0-.53 0-.53.3z"/><path d="M114.31 12.29a4.2 4.2 0 0 1-1.67-3.48c0-.99.29-2.51 1.67-3.5.06 0 .14 0 .14.1q0 .04-.07.1a4.3 4.3 0 0 0-1.27 3.29c0 1.88.72 2.8 1.3 3.32q.04.04.04.08c0 .09-.08.09-.14.09m3.7-3.64c.15 0 .2 0 .2.15 0 .61-.34 1.37-1.38 1.37a1.6 1.6 0 0 1-1.61-1.59c0-.88.77-1.6 1.7-1.6.94 0 1.3.76 1.3.91 0 .03-.02.1-.13.1-.09 0-.1-.04-.12-.11a1.05 1.05 0 0 0-1-.67c-.33 0-.64.15-.85.41-.26.33-.27.75-.27 1.03zm-2.15.18c.08.98.7 1.14.97 1.14.86 0 .89-.97.9-1.14zm4.57-2.88c-.46 0-.52 0-.52.3V7.4c.03-.03.36-.4.94-.4.92 0 1.71.69 1.71 1.57 0 .86-.7 1.57-1.6 1.57-.4 0-.8-.14-1.08-.42v.42l-1.05-.07V9.8c.49 0 .52-.03.52-.32V6.25c0-.3-.07-.3-.52-.3V5.7c.01 0 .5.03.8.03l.8-.03zm-.52 3.43c.2.35.6.53.98.53.58 0 1.04-.61 1.04-1.35 0-.8-.53-1.38-1.12-1.38-.61 0-.88.54-.9.58z"/><path d="M126.79 8.54c0 .87-.75 1.63-1.71 1.63s-1.71-.76-1.71-1.63.77-1.55 1.7-1.55c.95 0 1.72.69 1.72 1.55m-1.71-1.33c-.26 0-.64.08-.87.43-.18.28-.2.64-.2.96 0 .3 0 .72.25 1.02.17.2.46.35.82.35.41 0 .7-.2.86-.41.2-.27.21-.62.21-.96s-.02-.7-.22-.99c-.19-.26-.51-.4-.85-.4"/><path d="M129.99 9.84a.3.3 0 0 1-.2-.3c0-.2.14-.34.33-.34s.34.12.34.35c0 .62-.97.62-1.17.62-1.05 0-1.7-.8-1.7-1.6 0-.89.75-1.58 1.67-1.58 1.04 0 1.28.82 1.28.9s-.1.09-.12.09c-.09 0-.1-.02-.13-.12a1 1 0 0 0-.95-.65c-.48 0-1.1.36-1.1 1.36 0 .89.42 1.37 1.07 1.37.1 0 .43 0 .68-.1"/><path d="M134.2 9.17c0 .6-.3.96-1.05.96-.62 0-.96-.37-1.11-.63h-.01v2.4l-1.05-.08v-.25c.47 0 .52-.05.52-.4V7.62c0-.3-.06-.3-.52-.3v-.25l.8.02.8-.02v.25c-.45 0-.52 0-.52.3v1.25c0 .73.57 1.08 1.04 1.08s.55-.39.55-.74V7.6c0-.3-.07-.3-.53-.3v-.24l.8.02.8-.02v.25c-.45 0-.52 0-.52.3z"/><path d="M137.64 9.99c0 .11 0 .18-.1.18-.03 0-.05 0-.14-.09l-.12-.1q-.33.2-.73.19c-1 0-1.24-.53-1.24-.87q0-.34.27-.55c.26-.23.53-.28.96-.35.35-.06.91-.16.91-.63 0-.27-.19-.59-.86-.59s-.91.44-1.04.92c-.02.09-.02.11-.12.11-.12 0-.12-.04-.12-.18v-.86c0-.12 0-.18.1-.18.06 0 .2.14.33.3.31-.29.69-.3.85-.3.91 0 1.25.48 1.25.98q-.01.39-.3.64c-.27.25-.59.3-.83.34-.56.1-1.02.18-1.02.55 0 .23.2.5.86.5.8 0 .84-.57.85-.77.01-.07.1-.07.12-.07.12 0 .12.04.12.18zm1.14 2.3c-.05 0-.13 0-.13-.09q0-.04.06-.1c.6-.55 1.27-1.5 1.27-3.3 0-1.45-.45-2.55-1.2-3.24-.12-.12-.13-.12-.13-.16q0-.06.09-.08c.08 0 .75.46 1.2 1.33.31.58.51 1.33.51 2.15a4.2 4.2 0 0 1-1.67 3.49"/><path d="M7.92 64.24v1.27c0 1-.59 1.8-1.3 1.8-.68 0-1.3-.78-1.3-1.8v-2.65h.25v.16c0 .54.07.55.31.55h3.63c.24 0 .32-.01.32-.55v-.16h.25a32 32 0 0 0 0 2.1h-.25v-.17c0-.54-.07-.55-.32-.55zm-2.35 1.1c0 1.16.65 1.23 1.06 1.23.3 0 1.06 0 1.06-1.24v-1.12H5.84c-.22 0-.27 0-.27.33zm2.92 3.85c-.59 0-1.29.28-1.29.94a.3.3 0 0 1 .25-.12.3.3 0 0 1 .32.31c0 .17-.11.32-.32.32-.24 0-.45-.22-.45-.55s.22-.73.75-.94H7l.08-1h.25c0 .47.05.52.4.52h1.8c.3 0 .3-.07.3-.52h.25c0 .03-.03.5-.03.8l.03.9h-.25v-.14c0-.52-.08-.52-.32-.52zm.1 5.42c-.87 0-1.62-.75-1.62-1.71s.75-1.7 1.62-1.7 1.56.76 1.56 1.7-.7 1.7-1.56 1.7m1.34-1.71c0-.26-.09-.63-.43-.86-.29-.2-.65-.21-.97-.21-.3 0-.71 0-1.01.25-.2.17-.36.46-.36.82 0 .41.2.7.42.86.27.2.62.21.95.21s.7-.02 1-.22q.4-.3.4-.85m1.25 3.93c0-.45 0-.52-.3-.52H9.74c.04.03.4.36.4.95 0 .92-.68 1.7-1.57 1.7-.85 0-1.57-.7-1.57-1.6 0-.4.15-.8.43-1.08H7l.08-1.05h.25c0 .5.04.53.33.53h3.22c.3 0 .3-.07.3-.53h.25c0 .02-.03.5-.03.8l.03.8zm-3.42-.52c-.35.2-.53.61-.53.98 0 .59.61 1.04 1.34 1.04.8 0 1.38-.52 1.38-1.12s-.53-.88-.58-.9z"/><path d="M8.6 83.19c-.88 0-1.63-.75-1.63-1.71s.75-1.71 1.62-1.71 1.56.76 1.56 1.7c0 .95-.7 1.72-1.56 1.72m1.33-1.71c0-.26-.09-.64-.43-.87-.29-.19-.65-.2-.97-.2-.3 0-.71 0-1.01.24-.2.18-.36.47-.36.83 0 .4.2.7.42.85.27.2.62.22.95.22s.7-.02 1-.22c.26-.2.4-.51.4-.85m-1.44 3.38c-.59 0-1.29.27-1.29.93a.3.3 0 0 1 .25-.12.3.3 0 0 1 .32.31c0 .17-.11.33-.32.33-.24 0-.45-.23-.45-.56s.22-.73.75-.94H7l.08-1h.25c0 .47.05.52.4.52h1.8c.3 0 .3-.07.3-.52h.25c0 .03-.03.5-.03.8l.03.9h-.25v-.14c0-.52-.08-.52-.32-.52zm-1.17 3.12v1.09h-.25v-1.09H5.8v-.24c.63 0 1.32-.29 1.34-.96h.2v.65H9.2c.78 0 .94.59.94.98 0 .46-.4.79-.95.79h-.38v-.24h.37c.48 0 .74-.22.74-.5 0-.48-.59-.48-.72-.48zm-1.54 3.18a.4.4 0 0 1-.4-.4c0-.2.17-.4.4-.4.25 0 .4.2.4.4a.4.4 0 0 1-.4.4m1.3-1.06h.25c0 .44.04.5.39.5h1.8c.3 0 .3-.06.3-.52h.26c0 .02-.03.5-.03.78q0 .38.03.74h-.25c0-.4 0-.47-.3-.47H7zm1.51 5.54c-.87 0-1.62-.75-1.62-1.71s.75-1.71 1.62-1.71 1.56.77 1.56 1.7c0 .95-.7 1.72-1.56 1.72m1.34-1.71c0-.26-.09-.64-.43-.87-.29-.18-.65-.2-.97-.2-.3 0-.71 0-1.01.25-.2.17-.36.46-.36.82 0 .41.2.7.42.86.27.2.62.21.95.21s.7-.02 1-.22q.4-.3.4-.85M7.97 99.5c-.61 0-.97-.3-.97-1.04 0-.58.32-.95.68-1.14H7l.08-1.03h.25c0 .46.05.52.4.52h1.8c.3 0 .3-.07.3-.52h.25c0 .01-.03.5-.03.8l.03.8h-.25c0-.46 0-.53-.3-.53H8.27c-.73 0-1.07.58-1.07 1.04 0 .49.38.55.74.55h1.59c.3 0 .3-.07.3-.52h.25c0 .01-.03.5-.03.8l.03.8h-.25c0-.46 0-.53-.3-.53z"/><path d="M45.27 146.42c.06 0 .16 0 .16.1 0 .03 0 .04-.11.14-1.1 1.03-1.36 2.51-1.36 3.75 0 2.3.94 3.37 1.35 3.73.11.1.12.11.12.15s-.03.1-.11.1c-.13 0-.53-.4-.6-.48a5 5 0 0 1-1.28-3.5 4.8 4.8 0 0 1 1.83-3.99m3.99 4.37c0 .78-.76 1.18-1.49 1.18-.66 0-1.25-.26-1.25-.78 0-.24.17-.39.38-.39.22 0 .37.16.37.38q-.02.3-.3.37c.3.2.73.2.79.2.45 0 .9-.32.9-.97v-.25c-.47-.02-1-.04-1.56-.28-.7-.3-.84-.76-.84-1.02 0-.69.8-.9 1.36-.9.58 0 .94.33 1.11.65.04-.3.25-.6.6-.6.08 0 .76.03.76.75v.44h-.25v-.44c0-.33-.12-.45-.29-.45-.3 0-.3.36-.3.45zm-.6-1.25c0-.78-.66-.98-.98-.98-.42 0-.77.28-.77.66 0 .52.5 1.07 1.74 1.1zm3.95.87a5.5 5.5 0 0 1-.62 2.6c-.4.73-1.12 1.38-1.26 1.38q-.11-.02-.1-.1c0-.03 0-.04.09-.14a5 5 0 0 0 1.37-3.74c0-2.3-.95-3.37-1.36-3.74-.1-.1-.1-.11-.1-.15s.02-.1.1-.1c.12 0 .52.4.59.48a5 5 0 0 1 1.29 3.5"/><path d="M56.64 153.86v-.27h.18c.61 0 .63-.08.63-.38v-4.15c0-.3-.02-.38-.63-.38h-.18v-.27h3.25c1.1 0 1.88.7 1.88 1.46 0 .65-.61 1.28-1.6 1.39.86.18 1.36.7 1.36 1.25 0 .7-.8 1.35-1.86 1.35zm1.48-2.5v1.9c0 .28.02.33.39.33h1.1a1.1 1.1 0 0 0 1.15-1.08c0-.54-.48-1.16-1.39-1.16zm.39-2.68c-.37 0-.39.05-.39.32v2.13h1.62c.77 0 1.23-.62 1.23-1.25 0-.65-.54-1.2-1.35-1.2zm7.73 1.43a1.87 1.87 0 0 1-3.75 0c0-1 .85-1.78 1.87-1.78 1.03 0 1.88.79 1.88 1.78m-1.88-1.53c-.43 0-.76.2-.94.49-.2.32-.22.71-.22 1.11 0 .3 0 .78.25 1.13.2.28.54.43.91.43.42 0 .76-.2.94-.47a2 2 0 0 0 .23-1.09c0-.36-.02-.8-.24-1.14a1.1 1.1 0 0 0-.93-.46m4.79 3.26v-.26c.54 0 .6-.06.6-.45v-1.39c0-.68-.41-1.18-1-1.18-.7 0-.72.34-.72.74v2.63l-1.22-.09v-.26c.61 0 .61-.03.61-.74v-1.2c0-.56 0-1.3 1.27-1.3.75 0 1.04.57 1.08.64v-.65l1.2.08v.27c-.55 0-.61.05-.61.44v2.8zm3.52-.25h1.2v.26h-1.2v1.46h-.24c-.01-.72-.34-1.48-1.08-1.5v-.22h.72v-2.18c0-.93.72-1.08 1.08-1.08.54 0 .85.48.85 1.08v.45h-.24v-.43c0-.55-.25-.85-.55-.85-.54 0-.54.69-.54.81z"/><path d="M77.67 153.86v-.27h.17c.62 0 .63-.08.63-.38v-4.15c0-.3-.01-.38-.63-.38h-.17v-.27h3.03c1.43 0 2.59 1.2 2.59 2.67 0 1.54-1.17 2.78-2.6 2.78zm1.9-5.18c-.37 0-.39.05-.39.32v4.27c0 .27.02.32.39.32h.91c.62 0 1.14-.25 1.5-.65.5-.6.5-1.46.5-1.85s0-1.19-.5-1.78a2 2 0 0 0-1.5-.63zm6.86 3.16v-.26c.54 0 .6-.06.6-.45v-1.39c0-.68-.41-1.18-1-1.18-.7 0-.72.34-.72.74v2.63l-1.22-.09v-.26c.6 0 .6-.03.6-.74v-1.2c.01-.56.01-1.3 1.28-1.3.75 0 1.04.57 1.08.64v-.65l1.2.08v.27c-.55 0-.61.05-.61.44v2.8zm3.5-1.6c0 .59.26 1.45 1.02 1.46-.05-.03-.13-.1-.13-.27 0-.25.2-.36.35-.36.2 0 .36.12.36.36 0 .27-.25.5-.6.5-.52 0-.87-.4-1.04-.84v.84l-1.14-.09v-.26c.54 0 .6-.06.6-.45v-2.1c0-.35-.09-.35-.6-.35v-.27c.31.03.75.03.94.03.47 0 .49 0 1-.03v.27h-.15c-.59 0-.6.08-.6.37zm5.19.55c0 .78-.76 1.18-1.48 1.18-.66 0-1.25-.26-1.25-.78 0-.24.16-.39.37-.39.22 0 .37.16.37.38q-.01.3-.29.37c.3.2.73.2.78.2.45 0 .9-.32.9-.97v-.25c-.47-.02-1-.04-1.56-.28-.7-.3-.84-.76-.84-1.02 0-.69.8-.9 1.36-.9.58 0 .94.33 1.11.65.04-.3.25-.6.6-.6.08 0 .76.03.76.75v.44h-.25v-.44c0-.33-.12-.45-.29-.45-.3 0-.3.36-.3.45zm-.6-1.25c0-.78-.66-.98-.98-.98-.41 0-.76.28-.76.66 0 .52.49 1.07 1.73 1.1zm2.97 2.05h1.19v.26h-1.2v1.46h-.24c0-.72-.33-1.48-1.07-1.5v-.22h.71v-2.18c0-.93.72-1.08 1.09-1.08.53 0 .85.48.85 1.08v.45h-.25v-.43c0-.55-.24-.85-.55-.85-.53 0-.53.69-.53.81zm3.36 1.73c0 .23-.18.45-.44.45a.44.44 0 1 1 .45-.45m-1.2-1.48v-.26c.52 0 .59-.05.59-.44v-2.1c0-.36-.1-.36-.6-.36v-.27c.3.03.75.03.87.03.1 0 .58 0 .86-.03v.27c-.52 0-.55.04-.55.35v2.9zm5.99-1.73a1.87 1.87 0 0 1-3.75 0c0-1 .85-1.78 1.87-1.78 1.03 0 1.88.79 1.88 1.78m-1.88-1.53c-.43 0-.76.2-.94.49-.2.32-.22.71-.22 1.11 0 .3 0 .78.25 1.13.2.28.54.43.91.43.42 0 .76-.2.94-.47a2 2 0 0 0 .23-1.09c0-.36-.02-.8-.24-1.14a1.1 1.1 0 0 0-.93-.46m6 2.25c0 .67-.3 1.1-1.14 1.1-.79 0-1.15-.58-1.24-.77h-.01v.77l-1.16-.09v-.26c.54 0 .6-.06.6-.45v-2.1c0-.35-.09-.35-.6-.35v-.27c.35.03.7.03.91.03.23 0 .57 0 .91-.03v.27c-.51 0-.6 0-.6.36v1.44c0 .83.63 1.22 1.12 1.22.48 0 .6-.34.6-.84v-1.82c0-.36-.1-.36-.6-.36v-.27c.34.03.7.03.9.03q.38 0 .91-.03v.27c-.5 0-.6 0-.6.36z"/><path d="M113.77 153.86v-.27h.17c.62 0 .63-.08.63-.38v-4.15c0-.3-.01-.38-.63-.38h-.17v-.27h3.03c1.43 0 2.59 1.2 2.59 2.67 0 1.54-1.17 2.78-2.6 2.78zm1.9-5.18c-.37 0-.39.05-.39.32v4.27c0 .27.02.32.38.32h.92c.62 0 1.14-.25 1.5-.65.5-.6.5-1.46.5-1.85s0-1.19-.5-1.78a2 2 0 0 0-1.5-.63zm5.75 4.64c0 .23-.18.45-.45.45a.44.44 0 1 1 .45-.45m-1.2-1.48v-.26c.51 0 .59-.05.59-.44v-2.1c0-.36-.1-.36-.6-.36v-.27c.3.03.75.03.87.03.1 0 .58 0 .86-.03v.27c-.52 0-.55.04-.55.35v2.9zm4.83-.08c0 .13 0 .2-.1.2-.04 0-.06 0-.19-.12-.02 0-.09-.08-.11-.08l-.07.03c-.13.09-.36.18-.72.18-1.12 0-1.36-.6-1.36-.99 0-.4.3-.63.32-.65.31-.24.5-.27 1.03-.37.38-.07.99-.18.99-.73 0-.3-.2-.67-.94-.67-.8 0-1.04.62-1.14 1.04-.03.1-.04.14-.14.14-.12 0-.12-.06-.12-.21v-.99c0-.13 0-.2.1-.2.05 0 .06 0 .2.15l.17.19c.36-.33.73-.35.94-.35 1 0 1.36.59 1.36 1.11 0 .38-.23.94-1.18 1.12l-.54.1c-.25.05-.62.22-.62.53 0 .24.17.58.93.58.9 0 .93-.65.95-.88q.01-.09.12-.09c.12 0 .12.06.12.21zm1.99-.17h1.19v.26h-1.19v1.46h-.25c0-.72-.33-1.48-1.07-1.5v-.22h.71v-2.18c0-.93.72-1.08 1.09-1.08.53 0 .85.48.85 1.08v.45h-.25v-.43c0-.55-.24-.85-.55-.85-.53 0-.53.69-.53.81zm3.28-1.36c0 .6.24 1.46 1.01 1.47-.05-.03-.13-.1-.13-.27 0-.25.2-.36.35-.36.2 0 .36.12.36.36 0 .27-.25.5-.6.5-.52 0-.87-.4-1.04-.84v.84l-1.14-.09v-.26c.54 0 .6-.06.6-.45v-2.1c0-.35-.09-.35-.6-.35v-.27c.31.03.75.03.94.03.47 0 .49 0 1-.03v.27h-.15c-.59 0-.6.08-.6.37zm3.39 3.1c0 .22-.19.44-.45.44a.44.44 0 1 1 .45-.45m-1.2-1.49v-.26c.51 0 .58-.05.58-.44v-2.1c0-.36-.1-.36-.6-.36v-.27c.3.03.75.03.87.03.1 0 .58 0 .86-.03v.27c-.51 0-.55.04-.55.35v2.9zm3.46 2.1-1.19-.08v-.27c.54 0 .6-.05.6-.44v-4.74h.26l.28.5c.2-.27.57-.58 1.11-.58 1.01 0 1.89.79 1.89 1.8 0 1-.82 1.8-1.8 1.8a1.6 1.6 0 0 1-1.15-.49zm.02-3c0 .14 0 .16.12.3.23.3.6.46.97.46.41 0 .72-.24.88-.48.14-.22.25-.5.25-1.08 0-.18 0-.75-.29-1.12a1.2 1.2 0 0 0-.92-.46c-.38 0-.7.2-.91.5-.1.16-.1.17-.1.32zm5.88.9v-.26c.54 0 .6-.06.6-.45v-1.39c0-.68-.4-1.18-1-1.18-.7 0-.72.34-.72.74v2.63l-1.21-.09v-.26c.6 0 .6-.03.6-.74v-1.2c0-.56 0-1.3 1.28-1.3.74 0 1.03.57 1.07.64v-.65l1.2.08v.27c-.54 0-.6.05-.6.44v2.8zm3.53-.25h1.18v.26h-1.19v1.46h-.24c-.01-.72-.34-1.48-1.08-1.5v-.22h.72v-2.18c0-.93.72-1.08 1.08-1.08.54 0 .86.48.86 1.08v.45h-.25v-.43c0-.55-.25-.85-.55-.85-.53 0-.53.69-.53.81zm3.36 1.73c0 .23-.18.45-.45.45a.44.44 0 1 1 .45-.45m-1.2-1.48v-.26c.51 0 .59-.05.59-.44v-2.1c0-.36-.1-.36-.6-.36v-.27c.3.03.75.03.87.03.1 0 .58 0 .86-.03v.27c-.52 0-.55.04-.55.35v2.9zm5.98-1.73a1.87 1.87 0 0 1-3.74 0c0-1 .85-1.78 1.87-1.78 1.03 0 1.87.79 1.87 1.78m-1.87-1.53c-.43 0-.76.2-.94.49-.2.32-.22.71-.22 1.11 0 .3 0 .78.24 1.13.21.28.55.43.92.43.41 0 .76-.2.94-.47a2 2 0 0 0 .22-1.09c0-.36-.01-.8-.24-1.14a1.1 1.1 0 0 0-.92-.46m6 2.25c0 .67-.3 1.1-1.14 1.1-.8 0-1.15-.58-1.25-.77v.77l-1.16-.09v-.26c.54 0 .6-.06.6-.45v-2.1c0-.35-.1-.35-.6-.35v-.27c.34.03.7.03.9.03q.38 0 .92-.03v.27c-.51 0-.6 0-.6.36v1.44c0 .83.63 1.22 1.11 1.22s.61-.34.61-.84v-1.82c0-.36-.1-.36-.6-.36v-.27c.34.03.69.03.9.03.23 0 .57 0 .91-.03v.27c-.5 0-.6 0-.6.36z"/><path d="M116.9 126.97h17" stroke="#0000b3" fill="none" stroke-width=".8" stroke-miterlimit="10"/><path d="M127.4 126.97a2 2 0 1 1-2-2 2 2 0 0 1 2 2" fill="#66f"/><path d="M127.4 126.97a2 2 0 1 1-2-2 2 2 0 0 1 2 2Z" stroke="#33f" fill="none" stroke-width=".8" stroke-miterlimit="10"/><path d="M142.57 127.37h-.2c-.15-.81-.35-1.13-1.3-1.13h-.92c-.25 0-.25.04-.25.19v1.24h.58c.5 0 .64-.1.64-.59h.2v1.39h-.2c0-.48-.14-.58-.64-.58h-.58v1.1c0 .16 0 .2.25.2h.88c.83 0 1.05-.2 1.16-.97h.21l-.16 1.18h-3.42v-.21h.15c.4 0 .4-.05.4-.2v-2.54c0-.16 0-.2-.4-.2h-.15v-.23h3.5zm3.51.8-.47-.02-.56.02v-.22a.1.1 0 0 0 .1-.1c0-.08-.05-.13-.2-.27l-.24-.24a3 3 0 0 0-.49.52c0 .09.11.09.13.09v.22c-.2-.02-.6-.02-.62-.02-.2 0-.34 0-.55.02v-.22h.1c.3 0 .31-.01.58-.28l.59-.6c-.04-.02-.47-.46-.54-.52a1 1 0 0 0-.76-.3v-.23l.48.02.55-.02v.22q-.1.04-.09.1c0 .08.07.16.09.18l.41.4c.18-.17.4-.37.52-.51q.05-.05.04-.08c0-.08-.1-.09-.13-.09v-.22c.2.02.6.02.62.02.2 0 .34 0 .55-.02v.22h-.1c-.27 0-.32.04-.38.08l-.85.86c.61.64.74.77 1.22.77zm2.02-2.9h-.09c-.32 0-.32.05-.32.2v.78q.32-.28.77-.28c.75 0 1.37.5 1.37 1.13 0 .6-.55 1.12-1.29 1.12-.4 0-.7-.14-.87-.28v.28l-.84-.05v-.22c.36 0 .42 0 .42-.21v-2.27c0-.15 0-.2-.33-.2h-.09v-.21a9 9 0 0 0 1.27 0zm-.41 2.4c.21.31.6.37.8.37.48 0 .84-.44.84-.94 0-.54-.42-.97-.9-.97-.23 0-.5.1-.67.32-.07.09-.07.1-.07.19z"/><path d="M152.93 127.14c.1 0 .15 0 .15.12 0 .34-.18 1-1.1 1-.76 0-1.3-.55-1.3-1.14 0-.63.61-1.15 1.37-1.15.79 0 1.03.55 1.03.64s-.08.09-.1.09c-.08 0-.09-.02-.12-.09-.13-.34-.5-.46-.78-.46-.4 0-.63.22-.7.3-.2.24-.2.56-.2.7zm-1.74.16c.06.66.54.79.78.79.7 0 .73-.65.73-.8zm3.43-.16c0 .46.26.91.74.92 0 0-.07-.07-.07-.18 0-.18.14-.25.25-.25.12 0 .25.08.25.25 0 .19-.18.34-.44.34-.25 0-.57-.13-.77-.54v.54l-.8-.05v-.22c.37 0 .41-.03.41-.28v-1.23c0-.15 0-.2-.32-.2h-.09v-.22a9 9 0 0 0 1.36 0v.22H155c-.38 0-.38.05-.38.2zm2.7.81h.89v.22h-.88v.92h-.21c0-.47-.26-.96-.76-.98v-.16h.52v-1.3c0-.57.47-.68.78-.68.37 0 .65.27.65.68v.27h-.2v-.26c0-.37-.23-.51-.4-.51-.38 0-.38.4-.38.5z"/><path d="M116.9 118.07h17" stroke="#ff4d4d" fill="none" stroke-width=".8" stroke-miterlimit="10" stroke-dasharray="2.98883 2.98883"/><path d="M123.41 116.07h3.98v3.99h-3.98Z" fill="#ffb366"/><path d="M123.41 116.07h3.98v3.99h-3.98Z" stroke="#f93" fill="none" stroke-width=".8" stroke-miterlimit="10" stroke-dasharray="2.98883 2.98883"/><path d="M137.28 117.5c0-.15 0-.2-.4-.2h-.15v-.22h2.37c.76 0 1.37.43 1.37.92 0 .36-.36.76-1.17.87.5.08 1 .37 1 .76 0 .47-.63.86-1.37.86h-2.2v-.22h.15c.4 0 .4-.05.4-.2zm.5 1.44v1.14c0 .15 0 .19.24.19h.88c.53 0 .85-.33.85-.64 0-.36-.44-.7-.99-.7zm.24-1.64c-.25 0-.25.04-.25.2v1.27h1.18c.67 0 .95-.44.95-.76 0-.37-.41-.7-1-.7zm5.54 1.26c0 .48-.5.75-1.12.75-.3 0-.88-.01-.88-.43 0-.19.14-.27.26-.27.13 0 .26.1.26.26a.3.3 0 0 1-.11.23c.16.05.4.05.46.05.42 0 .69-.23.69-.6v-.12a4 4 0 0 1-1.14-.18c-.33-.11-.62-.32-.62-.64 0-.47.58-.58.98-.58q.59.01.84.4c.01-.17.13-.38.38-.38.04 0 .6 0 .6.48v.28h-.2v-.27c0-.05 0-.27-.2-.27s-.2.22-.2.27zm-.44-.77c0-.55-.6-.6-.73-.6-.3 0-.57.16-.57.42 0 .16.1.62 1.3.67zm3.45 1.39c0 .08 0 .13-.08.13q-.03 0-.08-.03l-.13-.1-.05.02q-.17.1-.55.11c-.82 0-.99-.37-.99-.6 0-.47.58-.56 1.04-.63.29-.05.75-.12.75-.45 0-.18-.15-.44-.75-.44-.34 0-.67.13-.82.66-.02.08-.03.1-.11.1-.1 0-.1-.04-.1-.14v-.64q-.02-.14.07-.14c.04 0 .05 0 .14.1l.13.12c.25-.22.56-.22.69-.22.83 0 1 .43 1 .68q-.02.33-.32.5c-.2.13-.35.15-.77.22-.32.05-.7.1-.7.37 0 .18.2.37.74.37q.63 0 .68-.51-.02-.11.1-.1c.11 0 .11.03.11.13zm3.08-.98c.1 0 .15 0 .15.12 0 .34-.18 1-1.11 1-.76 0-1.29-.55-1.29-1.14 0-.63.6-1.15 1.36-1.15.8 0 1.04.55 1.04.65 0 .08-.08.08-.1.08-.08 0-.09-.02-.12-.09-.14-.34-.5-.46-.79-.46-.4 0-.62.22-.7.3-.2.25-.2.56-.2.7zm-1.74.16c.06.66.54.79.78.79.69 0 .72-.65.73-.8zm3.46 2.18-.84-.05v-.22c.37 0 .42-.04.42-.28v-2.49c0-.15 0-.2-.33-.2h-.09v-.22a9 9 0 0 0 1.25 0v.22h-.09c-.32 0-.32.05-.32.2zm2.02-.39a.3.3 0 0 1-.3.3.3.3 0 0 1-.31-.3.3.3 0 0 1 .6 0m-.83-.92v-.22c.35 0 .4-.03.4-.28v-1.23c0-.15 0-.2-.33-.2h-.09v-.22a9 9 0 0 0 1.21 0v.22c-.33 0-.37 0-.37.2v1.79zm4.56-.64c0 .55-.37.7-.84.7-.53 0-.8-.3-.92-.5v.5l-.82-.06v-.22c.37 0 .42-.03.42-.28v-1.23c0-.15 0-.2-.33-.2h-.09v-.22a9 9 0 0 0 1.27 0v.22h-.09c-.32 0-.32.05-.32.2v.87c0 .56.52.75.83.75.36 0 .45-.2.45-.53v-1.09c0-.15 0-.2-.33-.2h-.08v-.22a9 9 0 0 0 1.27 0v.22h-.1c-.32 0-.32.05-.32.2zm3.32-.39c.1 0 .15 0 .15.12 0 .34-.18 1-1.1 1-.76 0-1.3-.55-1.3-1.14 0-.63.61-1.15 1.37-1.15.79 0 1.03.55 1.03.65 0 .08-.08.08-.1.08-.08 0-.09-.02-.12-.09-.13-.34-.5-.46-.78-.46-.4 0-.63.22-.7.3-.2.25-.2.56-.2.7zm-1.74.16c.06.66.54.79.78.79.7 0 .73-.65.73-.8z"/><path d="M116.9 109.16h17" stroke="#096" fill="none" stroke-width=".8" stroke-miterlimit="10" stroke-dasharray="2.98883 1.99255 .79701 1.99255"/><path d="m125.4 111.66 2.16-3.74h-4.31Z" fill="#66b3b3"/><path d="m125.4 111.66 2.16-3.74h-4.31Z" stroke="#00b34d" fill="none" stroke-width=".8" stroke-miterlimit="10" stroke-dasharray="2.98883 1.99255 .79701 1.99255"/><path d="M141.6 109.32h1.74c.06 0 .2 0 .2.14s-.14.14-.2.14h-1.74v1.74c0 .07 0 .2-.14.2s-.14-.13-.14-.2v-1.74h-1.74c-.06 0-.2 0-.2-.14s.14-.14.2-.14h1.74v-1.73c0-.07 0-.2.14-.2s.14.13.14.2zm7.06.59c0 .98-.9 1.82-2.08 1.82s-2.08-.85-2.08-1.82.92-1.8 2.08-1.8c1.18 0 2.08.83 2.08 1.8m-2.08-1.62c-.75 0-1.5.55-1.5 1.7 0 1.08.78 1.56 1.5 1.56.74 0 1.5-.5 1.5-1.57 0-1.16-.78-1.69-1.5-1.69m4.7 2.08v-.22c.36 0 .4-.04.4-.28v-.82c0-.45-.34-.72-.75-.72-.5 0-.52.2-.52.46v1.63l-.86-.05v-.22c.38 0 .41-.04.41-.3v-1.08c.05-.56.61-.6.94-.6a.9.9 0 0 1 .8.42v-.43l.84.06v.22c-.36 0-.4.03-.4.28v1.7zm2.81-1.04c0 .47.27.92.74.93 0 0-.07-.07-.07-.18 0-.18.14-.26.25-.26.12 0 .25.09.25.26 0 .19-.18.34-.44.34-.25 0-.57-.13-.76-.55v.55l-.8-.05v-.22c.36 0 .41-.04.41-.28v-1.23c0-.16 0-.2-.32-.2h-.1v-.22a9 9 0 0 0 1.36 0v.22h-.13c-.39 0-.39.05-.39.2zm3.71.98q.02.14-.08.14l-.08-.03-.13-.1-.05.02q-.17.1-.54.11c-.83 0-1-.38-1-.6 0-.48.58-.57 1.04-.64.29-.04.75-.11.75-.45 0-.17-.15-.43-.75-.43-.34 0-.67.12-.82.65-.02.09-.03.1-.11.1-.1 0-.1-.03-.1-.14v-.64q-.02-.13.07-.14c.04 0 .05 0 .14.1l.13.13c.25-.22.57-.23.7-.23.82 0 .99.44.99.69q-.02.33-.32.5c-.2.13-.35.15-.76.21-.32.05-.7.11-.7.38 0 .17.19.36.73.36q.63 0 .68-.5-.02-.12.1-.11c.11 0 .11.03.11.14z"/></g></svg>