<svg xmlns="http://www.w3.org/2000/svg" viewBox="0 0 100 100" role="img" aria-label="JT favicon">
  <style>
    :root { --fg: #000000; --text: #FFFFFF; }
    @media (prefers-color-scheme: dark) { :root { --fg: #FFFFFF; --text: #000000; } }
  </style>
  <rect width="100" height="100" rx="12" ry="12" fill="var(--fg)"/>
  <path fill="var(--text)" d="M28.67 53.53 28.78 57.39Q28.83 59.71 29.89 60.88Q30.94 62.05 33.08 62.05Q35.45 62.05 36.52 60.77Q37.59 59.48 37.59 56.59V30.92H46.06V56.00Q46.06 60.71 44.66 63.57Q43.25 66.43 40.29 67.76Q37.33 69.08 32.56 69.08Q28.80 69.08 26.28 67.90Q23.76 66.71 22.47 64.33Q21.18 61.95 21.10 58.32L21.00 53.53ZM42.27 37.90H23.11V30.92H42.27Z M61.69 68.52V30.92H70.17V68.52ZM52.83 30.92H79.00V37.90H52.83Z"/>
</svg>
